<svg xmlns="http://www.w3.org/2000/svg" xmlns:xlink="http://www.w3.org/1999/xlink" width="100" zoomAndPan="magnify" viewBox="0 0 75 74.999997" height="100" preserveAspectRatio="xMidYMid meet" version="1.0"><defs><g/><clipPath id="id1"><path d="M 26 28 L 38 28 L 38 48 L 26 48 Z M 26 28 " clip-rule="nonzero"/></clipPath><clipPath id="id2"><path d="M 33.566406 48.984375 L 22.117188 37.539062 L 34.757812 24.898438 L 46.203125 36.34375 Z M 33.566406 48.984375 " clip-rule="nonzero"/></clipPath><clipPath id="id3"><path d="M 33.566406 48.984375 L 22.117188 37.539062 L 34.757812 24.898438 L 46.203125 36.34375 Z M 33.566406 48.984375 " clip-rule="nonzero"/></clipPath><clipPath id="id4"><path d="M 31.15625 33.230469 C 30.730469 33.65625 30.371094 34.136719 30.089844 34.671875 C 29.804688 35.203125 29.601562 35.769531 29.484375 36.363281 C 29.371094 36.957031 29.339844 37.554688 29.402344 38.15625 C 29.460938 38.757812 29.609375 39.339844 29.84375 39.902344 C 30.074219 40.460938 30.382812 40.976562 30.769531 41.445312 C 31.15625 41.914062 31.597656 42.316406 32.105469 42.652344 C 32.609375 42.992188 33.148438 43.25 33.730469 43.425781 C 34.308594 43.601562 34.902344 43.691406 35.507812 43.691406 L 35.507812 43.25 C 35.132812 43.25 34.765625 43.210938 34.398438 43.136719 C 34.03125 43.0625 33.675781 42.957031 33.332031 42.8125 C 32.988281 42.667969 32.660156 42.492188 32.347656 42.285156 C 32.039062 42.078125 31.75 41.839844 31.488281 41.574219 C 31.222656 41.3125 30.988281 41.023438 30.777344 40.714844 C 30.570312 40.402344 30.394531 40.074219 30.25 39.730469 C 30.109375 39.386719 30 39.03125 29.925781 38.664062 C 29.851562 38.296875 29.816406 37.929688 29.816406 37.554688 C 29.816406 37.183594 29.851562 36.8125 29.921875 36.449219 C 29.996094 36.082031 30.101562 35.726562 30.242188 35.382812 C 30.386719 35.039062 30.558594 34.710938 30.765625 34.402344 C 30.972656 34.09375 31.207031 33.804688 31.472656 33.542969 C 31.734375 33.277344 32.019531 33.042969 32.332031 32.835938 C 32.640625 32.632812 32.96875 32.457031 33.3125 32.316406 C 33.65625 32.171875 34.011719 32.066406 34.378906 31.996094 C 34.742188 31.921875 35.113281 31.886719 35.484375 31.886719 L 37.992188 31.894531 L 37.992188 31.449219 L 35.484375 31.445312 C 34.671875 31.441406 33.890625 31.59375 33.140625 31.902344 C 32.390625 32.214844 31.726562 32.65625 31.15625 33.230469 Z M 32.730469 34.804688 C 32.457031 35.078125 32.230469 35.382812 32.050781 35.722656 C 31.871094 36.0625 31.742188 36.421875 31.667969 36.800781 C 31.59375 37.179688 31.574219 37.558594 31.613281 37.945312 C 31.652344 38.328125 31.746094 38.699219 31.894531 39.054688 C 32.042969 39.410156 32.238281 39.738281 32.484375 40.039062 C 32.730469 40.335938 33.011719 40.59375 33.335938 40.808594 C 33.65625 41.023438 34 41.1875 34.371094 41.300781 C 34.738281 41.414062 35.117188 41.46875 35.503906 41.472656 L 35.503906 41.027344 C 35.042969 41.027344 34.601562 40.9375 34.179688 40.761719 C 33.753906 40.585938 33.378906 40.335938 33.054688 40.007812 C 32.730469 39.683594 32.480469 39.308594 32.300781 38.886719 C 32.125 38.460938 32.039062 38.019531 32.035156 37.5625 C 32.035156 37.101562 32.121094 36.664062 32.296875 36.238281 C 32.472656 35.816406 32.722656 35.441406 33.042969 35.117188 C 33.367188 34.796875 33.742188 34.546875 34.164062 34.371094 C 34.589844 34.195312 35.03125 34.109375 35.488281 34.113281 L 37.996094 34.117188 L 37.996094 33.671875 L 35.488281 33.667969 C 34.410156 33.664062 33.488281 34.042969 32.730469 34.804688 Z M 31.941406 34.015625 C 31.59375 34.367188 31.300781 34.757812 31.070312 35.195312 C 30.835938 35.632812 30.671875 36.09375 30.578125 36.578125 C 30.480469 37.066406 30.457031 37.554688 30.507812 38.046875 C 30.558594 38.539062 30.675781 39.015625 30.867188 39.472656 C 31.058594 39.933594 31.3125 40.351562 31.625 40.738281 C 31.941406 41.121094 32.304688 41.449219 32.71875 41.726562 C 33.128906 42.003906 33.574219 42.214844 34.046875 42.359375 C 34.523438 42.503906 35.007812 42.578125 35.503906 42.578125 L 35.503906 42.136719 C 35.210938 42.128906 34.917969 42.09375 34.628906 42.03125 C 34.339844 41.964844 34.0625 41.875 33.789062 41.753906 C 33.519531 41.636719 33.261719 41.492188 33.019531 41.324219 C 32.773438 41.15625 32.550781 40.964844 32.34375 40.753906 C 32.136719 40.542969 31.953125 40.3125 31.789062 40.066406 C 31.628906 39.816406 31.492188 39.558594 31.378906 39.285156 C 31.265625 39.007812 31.183594 38.726562 31.125 38.4375 C 31.066406 38.148438 31.039062 37.855469 31.039062 37.558594 C 31.039062 37.265625 31.066406 36.972656 31.121094 36.683594 C 31.175781 36.390625 31.261719 36.109375 31.371094 35.835938 C 31.480469 35.5625 31.617188 35.304688 31.78125 35.058594 C 31.941406 34.8125 32.125 34.582031 32.332031 34.371094 C 32.535156 34.160156 32.761719 33.972656 33.003906 33.804688 C 33.246094 33.636719 33.503906 33.492188 33.773438 33.375 C 34.042969 33.257812 34.324219 33.167969 34.609375 33.105469 C 34.898438 33.042969 35.191406 33.007812 35.484375 33 L 37.992188 33.003906 L 37.992188 32.5625 L 35.484375 32.558594 C 34.820312 32.554688 34.179688 32.679688 33.566406 32.933594 C 32.953125 33.183594 32.410156 33.546875 31.945312 34.019531 Z M 29.578125 31.652344 C 29.191406 32.039062 28.847656 32.460938 28.542969 32.917969 C 28.242188 33.371094 27.984375 33.851562 27.777344 34.359375 C 27.570312 34.863281 27.410156 35.386719 27.304688 35.921875 C 27.199219 36.460938 27.148438 37.003906 27.148438 37.550781 C 27.152344 38.097656 27.207031 38.640625 27.3125 39.179688 C 27.421875 39.714844 27.582031 40.238281 27.792969 40.746094 C 28.003906 41.253906 28.261719 41.734375 28.566406 42.191406 C 28.871094 42.644531 29.21875 43.070312 29.609375 43.457031 C 30.390625 44.242188 31.292969 44.851562 32.316406 45.277344 C 33.339844 45.703125 34.40625 45.914062 35.511719 45.914062 L 35.511719 45.472656 C 34.992188 45.472656 34.476562 45.421875 33.96875 45.316406 C 33.457031 45.214844 32.964844 45.066406 32.484375 44.863281 C 32.003906 44.664062 31.550781 44.421875 31.117188 44.132812 C 30.683594 43.84375 30.285156 43.515625 29.917969 43.148438 C 29.550781 42.777344 29.222656 42.378906 28.933594 41.949219 C 28.644531 41.515625 28.398438 41.058594 28.199219 40.578125 C 28 40.101562 27.847656 39.605469 27.746094 39.097656 C 27.644531 38.585938 27.59375 38.074219 27.589844 37.554688 C 27.589844 37.035156 27.640625 36.523438 27.738281 36.011719 C 27.839844 35.503906 27.988281 35.011719 28.1875 34.53125 C 28.382812 34.054688 28.625 33.597656 28.914062 33.167969 C 29.203125 32.734375 29.527344 32.335938 29.894531 31.972656 C 30.261719 31.605469 30.660156 31.277344 31.089844 30.992188 C 31.519531 30.703125 31.976562 30.460938 32.453125 30.265625 C 32.933594 30.066406 33.425781 29.917969 33.9375 29.816406 C 34.445312 29.71875 34.957031 29.667969 35.476562 29.667969 L 37.984375 29.671875 L 37.980469 29.226562 L 35.476562 29.222656 C 34.371094 29.21875 33.304688 29.425781 32.285156 29.847656 C 31.261719 30.269531 30.359375 30.871094 29.582031 31.65625 Z M 33.515625 35.589844 C 33.117188 35.988281 32.863281 36.464844 32.753906 37.015625 C 32.648438 37.570312 32.699219 38.109375 32.917969 38.628906 C 33.136719 39.152344 33.476562 39.570312 33.949219 39.882812 C 34.417969 40.199219 34.933594 40.355469 35.5 40.359375 L 35.5 39.914062 C 35.1875 39.914062 34.886719 39.855469 34.601562 39.734375 C 34.3125 39.613281 34.058594 39.445312 33.835938 39.222656 C 33.617188 39.003906 33.445312 38.75 33.328125 38.460938 C 33.207031 38.171875 33.148438 37.875 33.148438 37.5625 C 33.144531 37.25 33.207031 36.953125 33.324219 36.664062 C 33.441406 36.378906 33.609375 36.125 33.832031 35.90625 C 34.050781 35.683594 34.304688 35.515625 34.589844 35.398438 C 34.878906 35.28125 35.175781 35.21875 35.488281 35.222656 L 38 35.230469 L 38 34.785156 L 35.488281 34.78125 C 34.71875 34.777344 34.058594 35.046875 33.519531 35.59375 Z M 30.367188 32.441406 C 29.863281 32.945312 29.441406 33.515625 29.105469 34.144531 C 28.769531 34.773438 28.53125 35.441406 28.394531 36.140625 C 28.253906 36.84375 28.222656 37.550781 28.292969 38.261719 C 28.363281 38.976562 28.539062 39.664062 28.8125 40.324219 C 29.089844 40.984375 29.453125 41.59375 29.910156 42.148438 C 30.363281 42.703125 30.890625 43.179688 31.488281 43.578125 C 32.082031 43.976562 32.722656 44.28125 33.410156 44.488281 C 34.09375 44.699219 34.792969 44.804688 35.511719 44.804688 L 35.507812 44.359375 C 35.066406 44.355469 34.625 44.308594 34.191406 44.214844 C 33.757812 44.125 33.335938 43.992188 32.929688 43.820312 C 32.519531 43.648438 32.128906 43.4375 31.761719 43.1875 C 31.394531 42.9375 31.054688 42.65625 30.742188 42.339844 C 30.429688 42.023438 30.148438 41.679688 29.902344 41.3125 C 29.65625 40.941406 29.449219 40.550781 29.28125 40.140625 C 29.109375 39.730469 28.984375 39.308594 28.894531 38.871094 C 28.808594 38.4375 28.765625 38 28.765625 37.554688 C 28.761719 37.113281 28.804688 36.671875 28.890625 36.238281 C 28.976562 35.804688 29.101562 35.378906 29.269531 34.972656 C 29.4375 34.5625 29.644531 34.171875 29.886719 33.804688 C 30.132812 33.433594 30.410156 33.09375 30.722656 32.777344 C 31.035156 32.464844 31.371094 32.183594 31.738281 31.9375 C 32.105469 31.6875 32.492188 31.476562 32.902344 31.308594 C 33.308594 31.136719 33.730469 31.003906 34.164062 30.917969 C 34.597656 30.828125 35.039062 30.78125 35.480469 30.777344 L 37.988281 30.785156 L 37.984375 30.339844 L 35.480469 30.335938 C 34.519531 30.328125 33.597656 30.511719 32.710938 30.875 C 31.824219 31.242188 31.042969 31.765625 30.367188 32.441406 Z M 26.039062 37.550781 C 26.039062 38.171875 26.101562 38.785156 26.222656 39.394531 C 26.347656 40.003906 26.527344 40.597656 26.765625 41.171875 C 27.003906 41.746094 27.296875 42.289062 27.644531 42.808594 C 27.988281 43.324219 28.382812 43.800781 28.820312 44.242188 C 29.261719 44.683594 29.742188 45.074219 30.257812 45.421875 C 30.773438 45.769531 31.320312 46.058594 31.894531 46.300781 C 32.46875 46.539062 33.058594 46.71875 33.667969 46.839844 C 34.277344 46.964844 34.894531 47.023438 35.515625 47.027344 L 35.515625 46.582031 C 34.921875 46.582031 34.335938 46.523438 33.753906 46.40625 C 33.175781 46.289062 32.609375 46.117188 32.0625 45.890625 C 31.515625 45.660156 30.996094 45.382812 30.503906 45.054688 C 30.011719 44.722656 29.554688 44.347656 29.136719 43.929688 C 28.714844 43.511719 28.339844 43.054688 28.011719 42.5625 C 27.679688 42.070312 27.402344 41.546875 27.175781 41 C 26.945312 40.453125 26.773438 39.890625 26.660156 39.308594 C 26.542969 38.730469 26.484375 38.140625 26.480469 37.550781 C 26.480469 36.957031 26.535156 36.371094 26.652344 35.792969 C 26.765625 35.210938 26.933594 34.648438 27.160156 34.101562 C 27.386719 33.554688 27.664062 33.039062 27.988281 32.546875 C 28.316406 32.054688 28.691406 31.601562 29.109375 31.183594 C 29.527344 30.765625 29.980469 30.390625 30.472656 30.0625 C 30.964844 29.738281 31.480469 29.460938 32.027344 29.234375 C 32.574219 29.007812 33.136719 28.839844 33.71875 28.726562 C 34.296875 28.609375 34.882812 28.554688 35.476562 28.554688 L 37.980469 28.5625 L 37.976562 28.117188 L 35.476562 28.113281 C 34.855469 28.109375 34.238281 28.171875 33.628906 28.289062 C 33.023438 28.410156 32.429688 28.589844 31.859375 28.824219 C 31.285156 29.0625 30.738281 29.351562 30.222656 29.695312 C 29.710938 30.039062 29.230469 30.429688 28.792969 30.867188 C 28.355469 31.304688 27.964844 31.78125 27.621094 32.296875 C 27.277344 32.8125 26.988281 33.359375 26.75 33.933594 C 26.515625 34.503906 26.335938 35.097656 26.214844 35.703125 C 26.097656 36.3125 26.035156 36.929688 26.039062 37.550781 Z M 26.039062 37.550781 " clip-rule="nonzero"/></clipPath><linearGradient x1="-4011.416113" gradientTransform="matrix(0.0585914, 0.000122413, 0.000122413, 0.0585914, 260.666831, -174.001983)" y1="3456.588188" x2="-3758.997833" gradientUnits="userSpaceOnUse" y2="3737.052013" id="id5"><stop stop-opacity="1" stop-color="rgb(63.09967%, 0%, 92.89856%)" offset="0"/><stop stop-opacity="1" stop-color="rgb(63.09967%, 0%, 92.89856%)" offset="0.25"/><stop stop-opacity="1" stop-color="rgb(63.09967%, 0%, 92.89856%)" offset="0.363201"/><stop stop-opacity="1" stop-color="rgb(63.09967%, 0%, 92.89856%)" offset="0.375"/><stop stop-opacity="1" stop-color="rgb(63.09967%, 0%, 92.89856%)" offset="0.4375"/><stop stop-opacity="1" stop-color="rgb(62.991333%, 0.0366211%, 92.910767%)" offset="0.46875"/><stop stop-opacity="1" stop-color="rgb(61.737061%, 0.474548%, 93.051147%)" offset="0.472656"/><stop stop-opacity="1" stop-color="rgb(60.591125%, 0.874329%, 93.180847%)" offset="0.476562"/><stop stop-opacity="1" stop-color="rgb(59.443665%, 1.272583%, 93.309021%)" offset="0.480469"/><stop stop-opacity="1" stop-color="rgb(58.297729%, 1.672363%, 93.438721%)" offset="0.484375"/><stop stop-opacity="1" stop-color="rgb(57.151794%, 2.072144%, 93.56842%)" offset="0.488281"/><stop stop-opacity="1" stop-color="rgb(56.005859%, 2.471924%, 93.69812%)" offset="0.492188"/><stop stop-opacity="1" stop-color="rgb(54.858398%, 2.871704%, 93.826294%)" offset="0.496094"/><stop stop-opacity="1" stop-color="rgb(53.712463%, 3.271484%, 93.955994%)" offset="0.5"/><stop stop-opacity="1" stop-color="rgb(52.565002%, 3.671265%, 94.084167%)" offset="0.503906"/><stop stop-opacity="1" stop-color="rgb(51.419067%, 4.071045%, 94.213867%)" offset="0.507812"/><stop stop-opacity="1" stop-color="rgb(50.273132%, 4.470825%, 94.342041%)" offset="0.511719"/><stop stop-opacity="1" stop-color="rgb(49.127197%, 4.870605%, 94.471741%)" offset="0.515625"/><stop stop-opacity="1" stop-color="rgb(47.979736%, 5.270386%, 94.599915%)" offset="0.519531"/><stop stop-opacity="1" stop-color="rgb(46.833801%, 5.670166%, 94.729614%)" offset="0.523438"/><stop stop-opacity="1" stop-color="rgb(45.687866%, 6.069946%, 94.857788%)" offset="0.527344"/><stop stop-opacity="1" stop-color="rgb(44.541931%, 6.469727%, 94.987488%)" offset="0.53125"/><stop stop-opacity="1" stop-color="rgb(43.39447%, 6.869507%, 95.115662%)" offset="0.535156"/><stop stop-opacity="1" stop-color="rgb(42.248535%, 7.269287%, 95.245361%)" offset="0.539062"/><stop stop-opacity="1" stop-color="rgb(41.101074%, 7.669067%, 95.373535%)" offset="0.542969"/><stop stop-opacity="1" stop-color="rgb(39.955139%, 8.068848%, 95.503235%)" offset="0.546875"/><stop stop-opacity="1" stop-color="rgb(38.809204%, 8.468628%, 95.631409%)" offset="0.550781"/><stop stop-opacity="1" stop-color="rgb(37.663269%, 8.868408%, 95.761108%)" offset="0.554688"/><stop stop-opacity="1" stop-color="rgb(36.515808%, 9.268188%, 95.889282%)" offset="0.558594"/><stop stop-opacity="1" stop-color="rgb(35.369873%, 9.667969%, 96.018982%)" offset="0.5625"/><stop stop-opacity="1" stop-color="rgb(34.222412%, 10.066223%, 96.147156%)" offset="0.566406"/><stop stop-opacity="1" stop-color="rgb(33.076477%, 10.466003%, 96.276855%)" offset="0.570312"/><stop stop-opacity="1" stop-color="rgb(31.930542%, 10.865784%, 96.405029%)" offset="0.574219"/><stop stop-opacity="1" stop-color="rgb(30.784607%, 11.265564%, 96.534729%)" offset="0.578125"/><stop stop-opacity="1" stop-color="rgb(29.637146%, 11.665344%, 96.662903%)" offset="0.582031"/><stop stop-opacity="1" stop-color="rgb(28.491211%, 12.065125%, 96.792603%)" offset="0.585938"/><stop stop-opacity="1" stop-color="rgb(27.34375%, 12.464905%, 96.922302%)" offset="0.589844"/><stop stop-opacity="1" stop-color="rgb(26.197815%, 12.864685%, 97.052002%)" offset="0.59375"/><stop stop-opacity="1" stop-color="rgb(25.05188%, 13.264465%, 97.180176%)" offset="0.597656"/><stop stop-opacity="1" stop-color="rgb(23.905945%, 13.664246%, 97.309875%)" offset="0.601562"/><stop stop-opacity="1" stop-color="rgb(22.758484%, 14.064026%, 97.438049%)" offset="0.605469"/><stop stop-opacity="1" stop-color="rgb(21.612549%, 14.463806%, 97.567749%)" offset="0.609375"/><stop stop-opacity="1" stop-color="rgb(20.465088%, 14.863586%, 97.695923%)" offset="0.613281"/><stop stop-opacity="1" stop-color="rgb(19.319153%, 15.263367%, 97.825623%)" offset="0.617188"/><stop stop-opacity="1" stop-color="rgb(18.173218%, 15.663147%, 97.953796%)" offset="0.621094"/><stop stop-opacity="1" stop-color="rgb(17.027283%, 16.062927%, 98.083496%)" offset="0.625"/><stop stop-opacity="1" stop-color="rgb(15.879822%, 16.462708%, 98.21167%)" offset="0.628906"/><stop stop-opacity="1" stop-color="rgb(14.733887%, 16.862488%, 98.34137%)" offset="0.632812"/><stop stop-opacity="1" stop-color="rgb(13.586426%, 17.262268%, 98.469543%)" offset="0.636719"/><stop stop-opacity="1" stop-color="rgb(12.440491%, 17.662048%, 98.599243%)" offset="0.640625"/><stop stop-opacity="1" stop-color="rgb(11.294556%, 18.060303%, 98.727417%)" offset="0.644531"/><stop stop-opacity="1" stop-color="rgb(10.148621%, 18.460083%, 98.857117%)" offset="0.648438"/><stop stop-opacity="1" stop-color="rgb(9.00116%, 18.859863%, 98.985291%)" offset="0.652344"/><stop stop-opacity="1" stop-color="rgb(7.855225%, 19.259644%, 99.11499%)" offset="0.65625"/><stop stop-opacity="1" stop-color="rgb(6.707764%, 19.659424%, 99.243164%)" offset="0.660156"/><stop stop-opacity="1" stop-color="rgb(5.561829%, 20.059204%, 99.372864%)" offset="0.664062"/><stop stop-opacity="1" stop-color="rgb(4.415894%, 20.458984%, 99.501038%)" offset="0.667969"/><stop stop-opacity="1" stop-color="rgb(3.269958%, 20.858765%, 99.630737%)" offset="0.671875"/><stop stop-opacity="1" stop-color="rgb(2.122498%, 21.258545%, 99.758911%)" offset="0.675781"/><stop stop-opacity="1" stop-color="rgb(0.976562%, 21.658325%, 99.888611%)" offset="0.679688"/><stop stop-opacity="1" stop-color="rgb(0.488281%, 21.827698%, 99.943542%)" offset="0.683594"/><stop stop-opacity="1" stop-color="rgb(0%, 21.998596%, 100%)" offset="0.6875"/><stop stop-opacity="1" stop-color="rgb(0%, 21.998596%, 100%)" offset="0.75"/><stop stop-opacity="1" stop-color="rgb(0%, 21.998596%, 100%)" offset="1"/></linearGradient><clipPath id="id6"><path d="M 44 28 L 55 28 L 55 36 L 44 36 Z M 44 28 " clip-rule="nonzero"/></clipPath><clipPath id="id7"><path d="M 48.183594 38.980469 L 40.871094 31.667969 L 47.785156 24.75 L 55.101562 32.0625 Z M 48.183594 38.980469 " clip-rule="nonzero"/></clipPath><clipPath id="id8"><path d="M 48.183594 38.980469 L 40.871094 31.667969 L 47.785156 24.75 L 55.101562 32.0625 Z M 48.183594 38.980469 " clip-rule="nonzero"/></clipPath><clipPath id="id9"><path d="M 49.792969 32.558594 L 44.4375 32.5625 L 44.4375 33.007812 L 49.792969 33.003906 Z M 44.4375 28.554688 L 48.195312 28.550781 L 48.195312 28.105469 L 44.4375 28.109375 Z M 44.4375 29.667969 L 50.789062 29.660156 L 50.789062 29.214844 L 44.4375 29.222656 Z M 44.4375 34.789062 L 44.4375 35.234375 L 51.621094 35.226562 L 51.625 34.785156 Z M 44.4375 34.125 L 53.039062 34.113281 L 53.039062 33.667969 L 44.4375 33.675781 Z M 44.433594 30.785156 L 52.699219 30.773438 L 52.699219 30.328125 L 44.4375 30.335938 Z M 44.4375 31.894531 L 54.476562 31.882812 L 54.476562 31.441406 L 44.4375 31.449219 Z M 44.4375 31.894531 " clip-rule="nonzero"/></clipPath><linearGradient x1="-3630.199326" gradientTransform="matrix(0.0586972, -0.0000603437, -0.0000603437, 0.0586972, 257.708271, -157.288714)" y1="3215.53" x2="-3459.001505" gradientUnits="userSpaceOnUse" y2="3215.53" id="id10"><stop stop-opacity="1" stop-color="rgb(54.899597%, 0%, 92.89856%)" offset="0"/><stop stop-opacity="1" stop-color="rgb(55.038452%, 0.344849%, 92.875671%)" offset="0.00390625"/><stop stop-opacity="1" stop-color="rgb(55.177307%, 0.691223%, 92.854309%)" offset="0.0078125"/><stop stop-opacity="1" stop-color="rgb(55.317688%, 1.042175%, 92.831421%)" offset="0.0117187"/><stop stop-opacity="1" stop-color="rgb(55.459595%, 1.393127%, 92.808533%)" offset="0.015625"/><stop stop-opacity="1" stop-color="rgb(55.599976%, 1.74408%, 92.785645%)" offset="0.0195312"/><stop stop-opacity="1" stop-color="rgb(55.741882%, 2.095032%, 92.764282%)" offset="0.0234375"/><stop stop-opacity="1" stop-color="rgb(55.882263%, 2.445984%, 92.741394%)" offset="0.0273437"/><stop stop-opacity="1" stop-color="rgb(56.02417%, 2.796936%, 92.718506%)" offset="0.03125"/><stop stop-opacity="1" stop-color="rgb(56.164551%, 3.147888%, 92.695618%)" offset="0.0351562"/><stop stop-opacity="1" stop-color="rgb(56.306458%, 3.49884%, 92.672729%)" offset="0.0390625"/><stop stop-opacity="1" stop-color="rgb(56.446838%, 3.849792%, 92.649841%)" offset="0.0429687"/><stop stop-opacity="1" stop-color="rgb(56.588745%, 4.200745%, 92.628479%)" offset="0.046875"/><stop stop-opacity="1" stop-color="rgb(56.729126%, 4.551697%, 92.605591%)" offset="0.0507812"/><stop stop-opacity="1" stop-color="rgb(56.871033%, 4.902649%, 92.582703%)" offset="0.0546875"/><stop stop-opacity="1" stop-color="rgb(57.011414%, 5.253601%, 92.559814%)" offset="0.0585937"/><stop stop-opacity="1" stop-color="rgb(57.15332%, 5.604553%, 92.536926%)" offset="0.0625"/><stop stop-opacity="1" stop-color="rgb(57.293701%, 5.955505%, 92.514038%)" offset="0.0664062"/><stop stop-opacity="1" stop-color="rgb(57.435608%, 6.306458%, 92.49115%)" offset="0.0703125"/><stop stop-opacity="1" stop-color="rgb(57.575989%, 6.65741%, 92.468262%)" offset="0.0742187"/><stop stop-opacity="1" stop-color="rgb(57.71637%, 7.008362%, 92.446899%)" offset="0.078125"/><stop stop-opacity="1" stop-color="rgb(57.85675%, 7.359314%, 92.424011%)" offset="0.0820312"/><stop stop-opacity="1" stop-color="rgb(57.998657%, 7.710266%, 92.401123%)" offset="0.0859375"/><stop stop-opacity="1" stop-color="rgb(58.139038%, 8.061218%, 92.378235%)" offset="0.0898437"/><stop stop-opacity="1" stop-color="rgb(58.280945%, 8.41217%, 92.355347%)" offset="0.09375"/><stop stop-opacity="1" stop-color="rgb(58.421326%, 8.763123%, 92.332458%)" offset="0.0976562"/><stop stop-opacity="1" stop-color="rgb(58.563232%, 9.114075%, 92.311096%)" offset="0.101562"/><stop stop-opacity="1" stop-color="rgb(58.703613%, 9.465027%, 92.288208%)" offset="0.105469"/><stop stop-opacity="1" stop-color="rgb(58.84552%, 9.815979%, 92.26532%)" offset="0.109375"/><stop stop-opacity="1" stop-color="rgb(58.985901%, 10.166931%, 92.242432%)" offset="0.113281"/><stop stop-opacity="1" stop-color="rgb(59.127808%, 10.517883%, 92.219543%)" offset="0.117187"/><stop stop-opacity="1" stop-color="rgb(59.268188%, 10.868835%, 92.196655%)" offset="0.121094"/><stop stop-opacity="1" stop-color="rgb(59.410095%, 11.219788%, 92.173767%)" offset="0.125"/><stop stop-opacity="1" stop-color="rgb(59.550476%, 11.57074%, 92.150879%)" offset="0.128906"/><stop stop-opacity="1" stop-color="rgb(59.692383%, 11.921692%, 92.129517%)" offset="0.132812"/><stop stop-opacity="1" stop-color="rgb(59.832764%, 12.272644%, 92.106628%)" offset="0.136719"/><stop stop-opacity="1" stop-color="rgb(59.97467%, 12.625122%, 92.08374%)" offset="0.140625"/><stop stop-opacity="1" stop-color="rgb(60.115051%, 12.976074%, 92.060852%)" offset="0.144531"/><stop stop-opacity="1" stop-color="rgb(60.256958%, 13.327026%, 92.037964%)" offset="0.148437"/><stop stop-opacity="1" stop-color="rgb(60.397339%, 13.677979%, 92.015076%)" offset="0.152344"/><stop stop-opacity="1" stop-color="rgb(60.539246%, 14.028931%, 91.993713%)" offset="0.15625"/><stop stop-opacity="1" stop-color="rgb(60.679626%, 14.379883%, 91.970825%)" offset="0.160156"/><stop stop-opacity="1" stop-color="rgb(60.821533%, 14.730835%, 91.947937%)" offset="0.164062"/><stop stop-opacity="1" stop-color="rgb(60.961914%, 15.081787%, 91.925049%)" offset="0.167969"/><stop stop-opacity="1" stop-color="rgb(61.103821%, 15.432739%, 91.902161%)" offset="0.171875"/><stop stop-opacity="1" stop-color="rgb(61.244202%, 15.783691%, 91.879272%)" offset="0.175781"/><stop stop-opacity="1" stop-color="rgb(61.386108%, 16.134644%, 91.856384%)" offset="0.179687"/><stop stop-opacity="1" stop-color="rgb(61.526489%, 16.485596%, 91.833496%)" offset="0.183594"/><stop stop-opacity="1" stop-color="rgb(61.668396%, 16.836548%, 91.812134%)" offset="0.1875"/><stop stop-opacity="1" stop-color="rgb(61.808777%, 17.1875%, 91.789246%)" offset="0.191406"/><stop stop-opacity="1" stop-color="rgb(61.950684%, 17.538452%, 91.766357%)" offset="0.195312"/><stop stop-opacity="1" stop-color="rgb(62.091064%, 17.889404%, 91.743469%)" offset="0.199219"/><stop stop-opacity="1" stop-color="rgb(62.231445%, 18.240356%, 91.720581%)" offset="0.203125"/><stop stop-opacity="1" stop-color="rgb(62.371826%, 18.591309%, 91.697693%)" offset="0.207031"/><stop stop-opacity="1" stop-color="rgb(62.513733%, 18.942261%, 91.676331%)" offset="0.210937"/><stop stop-opacity="1" stop-color="rgb(62.654114%, 19.293213%, 91.653442%)" offset="0.214844"/><stop stop-opacity="1" stop-color="rgb(62.796021%, 19.644165%, 91.630554%)" offset="0.21875"/><stop stop-opacity="1" stop-color="rgb(62.936401%, 19.995117%, 91.607666%)" offset="0.222656"/><stop stop-opacity="1" stop-color="rgb(63.078308%, 20.346069%, 91.584778%)" offset="0.226562"/><stop stop-opacity="1" stop-color="rgb(63.218689%, 20.697021%, 91.56189%)" offset="0.230469"/><stop stop-opacity="1" stop-color="rgb(63.360596%, 21.047974%, 91.539001%)" offset="0.234375"/><stop stop-opacity="1" stop-color="rgb(63.500977%, 21.398926%, 91.516113%)" offset="0.238281"/><stop stop-opacity="1" stop-color="rgb(63.642883%, 21.749878%, 91.494751%)" offset="0.242187"/><stop stop-opacity="1" stop-color="rgb(63.783264%, 22.10083%, 91.471863%)" offset="0.246094"/><stop stop-opacity="1" stop-color="rgb(63.925171%, 22.451782%, 91.448975%)" offset="0.25"/><stop stop-opacity="1" stop-color="rgb(64.065552%, 22.802734%, 91.426086%)" offset="0.253906"/><stop stop-opacity="1" stop-color="rgb(64.207458%, 23.153687%, 91.403198%)" offset="0.257812"/><stop stop-opacity="1" stop-color="rgb(64.347839%, 23.504639%, 91.38031%)" offset="0.261719"/><stop stop-opacity="1" stop-color="rgb(64.489746%, 23.855591%, 91.358948%)" offset="0.265625"/><stop stop-opacity="1" stop-color="rgb(64.630127%, 24.206543%, 91.33606%)" offset="0.269531"/><stop stop-opacity="1" stop-color="rgb(64.772034%, 24.557495%, 91.313171%)" offset="0.273437"/><stop stop-opacity="1" stop-color="rgb(64.912415%, 24.908447%, 91.290283%)" offset="0.277344"/><stop stop-opacity="1" stop-color="rgb(65.054321%, 25.259399%, 91.267395%)" offset="0.28125"/><stop stop-opacity="1" stop-color="rgb(65.194702%, 25.610352%, 91.244507%)" offset="0.285156"/><stop stop-opacity="1" stop-color="rgb(65.336609%, 25.961304%, 91.221619%)" offset="0.289062"/><stop stop-opacity="1" stop-color="rgb(65.47699%, 26.312256%, 91.19873%)" offset="0.292969"/><stop stop-opacity="1" stop-color="rgb(65.618896%, 26.663208%, 91.177368%)" offset="0.296875"/><stop stop-opacity="1" stop-color="rgb(65.759277%, 27.01416%, 91.15448%)" offset="0.300781"/><stop stop-opacity="1" stop-color="rgb(65.901184%, 27.365112%, 91.131592%)" offset="0.304687"/><stop stop-opacity="1" stop-color="rgb(66.041565%, 27.716064%, 91.108704%)" offset="0.308594"/><stop stop-opacity="1" stop-color="rgb(66.183472%, 28.067017%, 91.085815%)" offset="0.3125"/><stop stop-opacity="1" stop-color="rgb(66.323853%, 28.417969%, 91.062927%)" offset="0.316406"/><stop stop-opacity="1" stop-color="rgb(66.465759%, 28.768921%, 91.041565%)" offset="0.320312"/><stop stop-opacity="1" stop-color="rgb(66.60614%, 29.119873%, 91.018677%)" offset="0.324219"/><stop stop-opacity="1" stop-color="rgb(66.746521%, 29.470825%, 90.995789%)" offset="0.328125"/><stop stop-opacity="1" stop-color="rgb(66.886902%, 29.821777%, 90.9729%)" offset="0.332031"/><stop stop-opacity="1" stop-color="rgb(67.028809%, 30.174255%, 90.950012%)" offset="0.335937"/><stop stop-opacity="1" stop-color="rgb(67.169189%, 30.525208%, 90.927124%)" offset="0.339844"/><stop stop-opacity="1" stop-color="rgb(67.311096%, 30.87616%, 90.905762%)" offset="0.34375"/><stop stop-opacity="1" stop-color="rgb(67.451477%, 31.227112%, 90.882874%)" offset="0.347656"/><stop stop-opacity="1" stop-color="rgb(67.593384%, 31.578064%, 90.859985%)" offset="0.351562"/><stop stop-opacity="1" stop-color="rgb(67.733765%, 31.929016%, 90.837097%)" offset="0.355469"/><stop stop-opacity="1" stop-color="rgb(67.875671%, 32.279968%, 90.814209%)" offset="0.359375"/><stop stop-opacity="1" stop-color="rgb(68.016052%, 32.63092%, 90.791321%)" offset="0.363281"/><stop stop-opacity="1" stop-color="rgb(68.157959%, 32.981873%, 90.768433%)" offset="0.367187"/><stop stop-opacity="1" stop-color="rgb(68.29834%, 33.332825%, 90.745544%)" offset="0.371094"/><stop stop-opacity="1" stop-color="rgb(68.440247%, 33.683777%, 90.724182%)" offset="0.375"/><stop stop-opacity="1" stop-color="rgb(68.580627%, 34.034729%, 90.701294%)" offset="0.378906"/><stop stop-opacity="1" stop-color="rgb(68.722534%, 34.385681%, 90.678406%)" offset="0.382812"/><stop stop-opacity="1" stop-color="rgb(68.862915%, 34.736633%, 90.655518%)" offset="0.386719"/><stop stop-opacity="1" stop-color="rgb(69.004822%, 35.087585%, 90.632629%)" offset="0.390625"/><stop stop-opacity="1" stop-color="rgb(69.145203%, 35.438538%, 90.609741%)" offset="0.394531"/><stop stop-opacity="1" stop-color="rgb(69.287109%, 35.78949%, 90.588379%)" offset="0.398437"/><stop stop-opacity="1" stop-color="rgb(69.42749%, 36.140442%, 90.565491%)" offset="0.402344"/><stop stop-opacity="1" stop-color="rgb(69.569397%, 36.491394%, 90.542603%)" offset="0.40625"/><stop stop-opacity="1" stop-color="rgb(69.709778%, 36.842346%, 90.519714%)" offset="0.410156"/><stop stop-opacity="1" stop-color="rgb(69.851685%, 37.193298%, 90.496826%)" offset="0.414062"/><stop stop-opacity="1" stop-color="rgb(69.992065%, 37.54425%, 90.473938%)" offset="0.417969"/><stop stop-opacity="1" stop-color="rgb(70.133972%, 37.895203%, 90.45105%)" offset="0.421875"/><stop stop-opacity="1" stop-color="rgb(70.274353%, 38.246155%, 90.428162%)" offset="0.425781"/><stop stop-opacity="1" stop-color="rgb(70.41626%, 38.597107%, 90.406799%)" offset="0.429687"/><stop stop-opacity="1" stop-color="rgb(70.556641%, 38.948059%, 90.383911%)" offset="0.433594"/><stop stop-opacity="1" stop-color="rgb(70.698547%, 39.299011%, 90.361023%)" offset="0.4375"/><stop stop-opacity="1" stop-color="rgb(70.838928%, 39.649963%, 90.338135%)" offset="0.441406"/><stop stop-opacity="1" stop-color="rgb(70.980835%, 40.000916%, 90.315247%)" offset="0.445312"/><stop stop-opacity="1" stop-color="rgb(71.121216%, 40.351868%, 90.292358%)" offset="0.449219"/><stop stop-opacity="1" stop-color="rgb(71.261597%, 40.70282%, 90.270996%)" offset="0.453125"/><stop stop-opacity="1" stop-color="rgb(71.401978%, 41.053772%, 90.248108%)" offset="0.457031"/><stop stop-opacity="1" stop-color="rgb(71.543884%, 41.404724%, 90.22522%)" offset="0.460937"/><stop stop-opacity="1" stop-color="rgb(71.684265%, 41.755676%, 90.202332%)" offset="0.464844"/><stop stop-opacity="1" stop-color="rgb(71.826172%, 42.106628%, 90.179443%)" offset="0.46875"/><stop stop-opacity="1" stop-color="rgb(71.966553%, 42.457581%, 90.156555%)" offset="0.472656"/><stop stop-opacity="1" stop-color="rgb(72.108459%, 42.808533%, 90.133667%)" offset="0.476562"/><stop stop-opacity="1" stop-color="rgb(72.24884%, 43.159485%, 90.110779%)" offset="0.480469"/><stop stop-opacity="1" stop-color="rgb(72.390747%, 43.510437%, 90.089417%)" offset="0.484375"/><stop stop-opacity="1" stop-color="rgb(72.531128%, 43.861389%, 90.066528%)" offset="0.488281"/><stop stop-opacity="1" stop-color="rgb(72.673035%, 44.212341%, 90.04364%)" offset="0.492187"/><stop stop-opacity="1" stop-color="rgb(72.813416%, 44.563293%, 90.020752%)" offset="0.496094"/><stop stop-opacity="1" stop-color="rgb(72.955322%, 44.914246%, 89.997864%)" offset="0.5"/><stop stop-opacity="1" stop-color="rgb(73.095703%, 45.265198%, 89.974976%)" offset="0.503906"/><stop stop-opacity="1" stop-color="rgb(73.23761%, 45.61615%, 89.953613%)" offset="0.507812"/><stop stop-opacity="1" stop-color="rgb(73.377991%, 45.967102%, 89.930725%)" offset="0.511719"/><stop stop-opacity="1" stop-color="rgb(73.519897%, 46.318054%, 89.907837%)" offset="0.515625"/><stop stop-opacity="1" stop-color="rgb(73.660278%, 46.669006%, 89.884949%)" offset="0.519531"/><stop stop-opacity="1" stop-color="rgb(73.802185%, 47.019958%, 89.862061%)" offset="0.523437"/><stop stop-opacity="1" stop-color="rgb(73.942566%, 47.370911%, 89.839172%)" offset="0.527344"/><stop stop-opacity="1" stop-color="rgb(74.084473%, 47.721863%, 89.816284%)" offset="0.53125"/><stop stop-opacity="1" stop-color="rgb(74.224854%, 48.072815%, 89.793396%)" offset="0.535156"/><stop stop-opacity="1" stop-color="rgb(74.36676%, 48.425293%, 89.772034%)" offset="0.539062"/><stop stop-opacity="1" stop-color="rgb(74.507141%, 48.776245%, 89.749146%)" offset="0.542969"/><stop stop-opacity="1" stop-color="rgb(74.649048%, 49.127197%, 89.726257%)" offset="0.546875"/><stop stop-opacity="1" stop-color="rgb(74.789429%, 49.478149%, 89.703369%)" offset="0.550781"/><stop stop-opacity="1" stop-color="rgb(74.931335%, 49.829102%, 89.680481%)" offset="0.554687"/><stop stop-opacity="1" stop-color="rgb(75.071716%, 50.180054%, 89.657593%)" offset="0.558594"/><stop stop-opacity="1" stop-color="rgb(75.213623%, 50.531006%, 89.63623%)" offset="0.5625"/><stop stop-opacity="1" stop-color="rgb(75.354004%, 50.881958%, 89.613342%)" offset="0.566406"/><stop stop-opacity="1" stop-color="rgb(75.495911%, 51.23291%, 89.590454%)" offset="0.570312"/><stop stop-opacity="1" stop-color="rgb(75.636292%, 51.583862%, 89.567566%)" offset="0.574219"/><stop stop-opacity="1" stop-color="rgb(75.776672%, 51.934814%, 89.544678%)" offset="0.578125"/><stop stop-opacity="1" stop-color="rgb(75.917053%, 52.285767%, 89.52179%)" offset="0.582031"/><stop stop-opacity="1" stop-color="rgb(76.05896%, 52.636719%, 89.498901%)" offset="0.585937"/><stop stop-opacity="1" stop-color="rgb(76.199341%, 52.987671%, 89.476013%)" offset="0.589844"/><stop stop-opacity="1" stop-color="rgb(76.341248%, 53.338623%, 89.454651%)" offset="0.59375"/><stop stop-opacity="1" stop-color="rgb(76.481628%, 53.689575%, 89.431763%)" offset="0.597656"/><stop stop-opacity="1" stop-color="rgb(76.623535%, 54.040527%, 89.408875%)" offset="0.601562"/><stop stop-opacity="1" stop-color="rgb(76.763916%, 54.391479%, 89.385986%)" offset="0.605469"/><stop stop-opacity="1" stop-color="rgb(76.905823%, 54.742432%, 89.363098%)" offset="0.609375"/><stop stop-opacity="1" stop-color="rgb(77.046204%, 55.093384%, 89.34021%)" offset="0.613281"/><stop stop-opacity="1" stop-color="rgb(77.18811%, 55.444336%, 89.318848%)" offset="0.617187"/><stop stop-opacity="1" stop-color="rgb(77.328491%, 55.795288%, 89.295959%)" offset="0.621094"/><stop stop-opacity="1" stop-color="rgb(77.470398%, 56.14624%, 89.273071%)" offset="0.625"/><stop stop-opacity="1" stop-color="rgb(77.610779%, 56.497192%, 89.250183%)" offset="0.628906"/><stop stop-opacity="1" stop-color="rgb(77.752686%, 56.848145%, 89.227295%)" offset="0.632812"/><stop stop-opacity="1" stop-color="rgb(77.893066%, 57.199097%, 89.204407%)" offset="0.636719"/><stop stop-opacity="1" stop-color="rgb(78.034973%, 57.550049%, 89.181519%)" offset="0.640625"/><stop stop-opacity="1" stop-color="rgb(78.175354%, 57.901001%, 89.15863%)" offset="0.644531"/><stop stop-opacity="1" stop-color="rgb(78.317261%, 58.251953%, 89.137268%)" offset="0.648437"/><stop stop-opacity="1" stop-color="rgb(78.457642%, 58.602905%, 89.11438%)" offset="0.652344"/><stop stop-opacity="1" stop-color="rgb(78.599548%, 58.953857%, 89.091492%)" offset="0.65625"/><stop stop-opacity="1" stop-color="rgb(78.739929%, 59.30481%, 89.068604%)" offset="0.660156"/><stop stop-opacity="1" stop-color="rgb(78.881836%, 59.655762%, 89.045715%)" offset="0.664062"/><stop stop-opacity="1" stop-color="rgb(79.022217%, 60.006714%, 89.022827%)" offset="0.667969"/><stop stop-opacity="1" stop-color="rgb(79.164124%, 60.357666%, 89.001465%)" offset="0.671875"/><stop stop-opacity="1" stop-color="rgb(79.304504%, 60.708618%, 88.978577%)" offset="0.675781"/><stop stop-opacity="1" stop-color="rgb(79.446411%, 61.05957%, 88.955688%)" offset="0.679687"/><stop stop-opacity="1" stop-color="rgb(79.586792%, 61.410522%, 88.9328%)" offset="0.683594"/><stop stop-opacity="1" stop-color="rgb(79.728699%, 61.761475%, 88.909912%)" offset="0.6875"/><stop stop-opacity="1" stop-color="rgb(79.86908%, 62.112427%, 88.887024%)" offset="0.691406"/><stop stop-opacity="1" stop-color="rgb(80.010986%, 62.463379%, 88.864136%)" offset="0.695312"/><stop stop-opacity="1" stop-color="rgb(80.151367%, 62.814331%, 88.841248%)" offset="0.699219"/><stop stop-opacity="1" stop-color="rgb(80.291748%, 63.165283%, 88.819885%)" offset="0.703125"/><stop stop-opacity="1" stop-color="rgb(80.432129%, 63.516235%, 88.796997%)" offset="0.707031"/><stop stop-opacity="1" stop-color="rgb(80.574036%, 63.867188%, 88.774109%)" offset="0.710937"/><stop stop-opacity="1" stop-color="rgb(80.714417%, 64.21814%, 88.751221%)" offset="0.714844"/><stop stop-opacity="1" stop-color="rgb(80.856323%, 64.569092%, 88.728333%)" offset="0.71875"/><stop stop-opacity="1" stop-color="rgb(80.996704%, 64.920044%, 88.705444%)" offset="0.722656"/><stop stop-opacity="1" stop-color="rgb(81.138611%, 65.270996%, 88.684082%)" offset="0.726562"/><stop stop-opacity="1" stop-color="rgb(81.278992%, 65.621948%, 88.661194%)" offset="0.730469"/><stop stop-opacity="1" stop-color="rgb(81.420898%, 65.974426%, 88.638306%)" offset="0.734375"/><stop stop-opacity="1" stop-color="rgb(81.561279%, 66.325378%, 88.615417%)" offset="0.738281"/><stop stop-opacity="1" stop-color="rgb(81.703186%, 66.676331%, 88.592529%)" offset="0.742187"/><stop stop-opacity="1" stop-color="rgb(81.843567%, 67.027283%, 88.569641%)" offset="0.746094"/><stop stop-opacity="1" stop-color="rgb(81.985474%, 67.378235%, 88.546753%)" offset="0.75"/><stop stop-opacity="1" stop-color="rgb(82.125854%, 67.729187%, 88.523865%)" offset="0.753906"/><stop stop-opacity="1" stop-color="rgb(82.267761%, 68.080139%, 88.502502%)" offset="0.757812"/><stop stop-opacity="1" stop-color="rgb(82.408142%, 68.431091%, 88.479614%)" offset="0.761719"/><stop stop-opacity="1" stop-color="rgb(82.550049%, 68.782043%, 88.456726%)" offset="0.765625"/><stop stop-opacity="1" stop-color="rgb(82.69043%, 69.132996%, 88.433838%)" offset="0.769531"/><stop stop-opacity="1" stop-color="rgb(82.832336%, 69.483948%, 88.41095%)" offset="0.773437"/><stop stop-opacity="1" stop-color="rgb(82.972717%, 69.8349%, 88.388062%)" offset="0.777344"/><stop stop-opacity="1" stop-color="rgb(83.114624%, 70.185852%, 88.366699%)" offset="0.78125"/><stop stop-opacity="1" stop-color="rgb(83.255005%, 70.536804%, 88.343811%)" offset="0.785156"/><stop stop-opacity="1" stop-color="rgb(83.396912%, 70.887756%, 88.320923%)" offset="0.789062"/><stop stop-opacity="1" stop-color="rgb(83.537292%, 71.238708%, 88.298035%)" offset="0.792969"/><stop stop-opacity="1" stop-color="rgb(83.679199%, 71.589661%, 88.275146%)" offset="0.796875"/><stop stop-opacity="1" stop-color="rgb(83.81958%, 71.940613%, 88.252258%)" offset="0.800781"/><stop stop-opacity="1" stop-color="rgb(83.961487%, 72.291565%, 88.22937%)" offset="0.804687"/><stop stop-opacity="1" stop-color="rgb(84.101868%, 72.642517%, 88.206482%)" offset="0.808594"/><stop stop-opacity="1" stop-color="rgb(84.243774%, 72.993469%, 88.18512%)" offset="0.8125"/><stop stop-opacity="1" stop-color="rgb(84.384155%, 73.344421%, 88.162231%)" offset="0.816406"/><stop stop-opacity="1" stop-color="rgb(84.526062%, 73.695374%, 88.139343%)" offset="0.820312"/><stop stop-opacity="1" stop-color="rgb(84.666443%, 74.046326%, 88.116455%)" offset="0.824219"/><stop stop-opacity="1" stop-color="rgb(84.806824%, 74.397278%, 88.093567%)" offset="0.828125"/><stop stop-opacity="1" stop-color="rgb(84.947205%, 74.74823%, 88.070679%)" offset="0.832031"/><stop stop-opacity="1" stop-color="rgb(85.089111%, 75.099182%, 88.049316%)" offset="0.835937"/><stop stop-opacity="1" stop-color="rgb(85.229492%, 75.450134%, 88.026428%)" offset="0.839844"/><stop stop-opacity="1" stop-color="rgb(85.371399%, 75.801086%, 88.00354%)" offset="0.84375"/><stop stop-opacity="1" stop-color="rgb(85.51178%, 76.152039%, 87.980652%)" offset="0.847656"/><stop stop-opacity="1" stop-color="rgb(85.653687%, 76.502991%, 87.957764%)" offset="0.851562"/><stop stop-opacity="1" stop-color="rgb(85.794067%, 76.853943%, 87.934875%)" offset="0.855469"/><stop stop-opacity="1" stop-color="rgb(85.935974%, 77.204895%, 87.911987%)" offset="0.859375"/><stop stop-opacity="1" stop-color="rgb(86.076355%, 77.555847%, 87.889099%)" offset="0.863281"/><stop stop-opacity="1" stop-color="rgb(86.218262%, 77.906799%, 87.867737%)" offset="0.867187"/><stop stop-opacity="1" stop-color="rgb(86.358643%, 78.257751%, 87.844849%)" offset="0.871094"/><stop stop-opacity="1" stop-color="rgb(86.500549%, 78.608704%, 87.82196%)" offset="0.875"/><stop stop-opacity="1" stop-color="rgb(86.64093%, 78.959656%, 87.799072%)" offset="0.878906"/><stop stop-opacity="1" stop-color="rgb(86.782837%, 79.310608%, 87.776184%)" offset="0.882812"/><stop stop-opacity="1" stop-color="rgb(86.923218%, 79.66156%, 87.753296%)" offset="0.886719"/><stop stop-opacity="1" stop-color="rgb(87.065125%, 80.012512%, 87.731934%)" offset="0.890625"/><stop stop-opacity="1" stop-color="rgb(87.205505%, 80.363464%, 87.709045%)" offset="0.894531"/><stop stop-opacity="1" stop-color="rgb(87.347412%, 80.714417%, 87.686157%)" offset="0.898437"/><stop stop-opacity="1" stop-color="rgb(87.487793%, 81.065369%, 87.663269%)" offset="0.902344"/><stop stop-opacity="1" stop-color="rgb(87.6297%, 81.416321%, 87.640381%)" offset="0.90625"/><stop stop-opacity="1" stop-color="rgb(87.770081%, 81.767273%, 87.617493%)" offset="0.910156"/><stop stop-opacity="1" stop-color="rgb(87.911987%, 82.118225%, 87.594604%)" offset="0.914062"/><stop stop-opacity="1" stop-color="rgb(88.052368%, 82.469177%, 87.571716%)" offset="0.917969"/><stop stop-opacity="1" stop-color="rgb(88.194275%, 82.820129%, 87.550354%)" offset="0.921875"/><stop stop-opacity="1" stop-color="rgb(88.334656%, 83.171082%, 87.527466%)" offset="0.925781"/><stop stop-opacity="1" stop-color="rgb(88.476562%, 83.52356%, 87.504578%)" offset="0.929687"/><stop stop-opacity="1" stop-color="rgb(88.616943%, 83.874512%, 87.481689%)" offset="0.933594"/><stop stop-opacity="1" stop-color="rgb(88.75885%, 84.225464%, 87.458801%)" offset="0.9375"/><stop stop-opacity="1" stop-color="rgb(88.899231%, 84.576416%, 87.435913%)" offset="0.941406"/><stop stop-opacity="1" stop-color="rgb(89.041138%, 84.927368%, 87.414551%)" offset="0.945312"/><stop stop-opacity="1" stop-color="rgb(89.181519%, 85.27832%, 87.391663%)" offset="0.949219"/><stop stop-opacity="1" stop-color="rgb(89.323425%, 85.629272%, 87.368774%)" offset="0.953125"/><stop stop-opacity="1" stop-color="rgb(89.463806%, 85.980225%, 87.345886%)" offset="0.957031"/><stop stop-opacity="1" stop-color="rgb(89.604187%, 86.331177%, 87.322998%)" offset="0.960937"/><stop stop-opacity="1" stop-color="rgb(89.744568%, 86.682129%, 87.30011%)" offset="0.964844"/><stop stop-opacity="1" stop-color="rgb(89.886475%, 87.033081%, 87.277222%)" offset="0.96875"/><stop stop-opacity="1" stop-color="rgb(90.026855%, 87.384033%, 87.254333%)" offset="0.972656"/><stop stop-opacity="1" stop-color="rgb(90.168762%, 87.734985%, 87.232971%)" offset="0.976562"/><stop stop-opacity="1" stop-color="rgb(90.309143%, 88.085938%, 87.210083%)" offset="0.980469"/><stop stop-opacity="1" stop-color="rgb(90.45105%, 88.43689%, 87.187195%)" offset="0.984375"/><stop stop-opacity="1" stop-color="rgb(90.591431%, 88.787842%, 87.164307%)" offset="0.988281"/><stop stop-opacity="1" stop-color="rgb(90.733337%, 89.138794%, 87.141418%)" offset="0.992187"/><stop stop-opacity="1" stop-color="rgb(90.866089%, 89.468384%, 87.120056%)" offset="0.996094"/><stop stop-opacity="1" stop-color="rgb(90.99884%, 89.7995%, 87.098694%)" offset="1"/></linearGradient><clipPath id="id11"><path d="M 35 17 L 45 17 L 45 48 L 35 48 Z M 35 17 " clip-rule="nonzero"/></clipPath><clipPath id="id12"><path d="M 37.425781 48.984375 L 21.84375 33.402344 L 37.746094 17.503906 L 53.328125 33.085938 Z M 37.425781 48.984375 " clip-rule="nonzero"/></clipPath><clipPath id="id13"><path d="M 37.425781 48.984375 L 21.84375 33.402344 L 37.746094 17.503906 L 53.328125 33.085938 Z M 37.425781 48.984375 " clip-rule="nonzero"/></clipPath><clipPath id="id14"><path d="M 35.449219 41.027344 L 35.449219 41.472656 C 35.96875 41.472656 36.464844 41.375 36.941406 41.175781 C 37.417969 40.980469 37.835938 40.699219 38.203125 40.335938 C 38.566406 39.96875 38.847656 39.550781 39.042969 39.074219 C 39.242188 38.597656 39.339844 38.101562 39.339844 37.582031 L 39.308594 19.066406 L 38.863281 18.621094 L 38.894531 37.582031 C 38.894531 38.039062 38.808594 38.480469 38.632812 38.902344 C 38.460938 39.324219 38.210938 39.699219 37.886719 40.019531 C 37.566406 40.34375 37.191406 40.59375 36.769531 40.765625 C 36.347656 40.941406 35.90625 41.027344 35.449219 41.027344 Z M 37.785156 37.582031 C 37.785156 37.894531 37.726562 38.191406 37.609375 38.476562 C 37.488281 38.765625 37.320312 39.019531 37.101562 39.238281 C 36.882812 39.457031 36.628906 39.625 36.34375 39.742188 C 36.054688 39.863281 35.757812 39.921875 35.445312 39.921875 L 35.449219 40.363281 C 35.816406 40.363281 36.171875 40.292969 36.511719 40.152344 C 36.851562 40.011719 37.152344 39.8125 37.414062 39.550781 C 37.675781 39.289062 37.875 38.988281 38.015625 38.648438 C 38.15625 38.308594 38.230469 37.953125 38.226562 37.582031 L 38.195312 17.953125 L 37.75 17.511719 Z M 38.675781 40.808594 C 37.789062 41.699219 36.714844 42.144531 35.453125 42.136719 L 35.453125 42.582031 C 35.78125 42.582031 36.105469 42.550781 36.429688 42.488281 C 36.75 42.421875 37.0625 42.328125 37.367188 42.203125 C 37.671875 42.078125 37.960938 41.925781 38.230469 41.742188 C 38.503906 41.5625 38.757812 41.355469 38.988281 41.121094 C 39.222656 40.890625 39.429688 40.636719 39.609375 40.363281 C 39.792969 40.089844 39.945312 39.804688 40.070312 39.5 C 40.195312 39.195312 40.292969 38.882812 40.355469 38.5625 C 40.417969 38.238281 40.449219 37.914062 40.449219 37.585938 L 40.417969 20.175781 L 39.972656 19.734375 L 40.003906 37.585938 C 40.011719 38.847656 39.566406 39.921875 38.675781 40.808594 Z M 41.820312 43.953125 C 40.976562 44.796875 40.007812 45.445312 38.902344 45.902344 C 37.800781 46.355469 36.652344 46.582031 35.460938 46.574219 L 35.460938 47.019531 C 36.082031 47.019531 36.695312 46.960938 37.300781 46.839844 C 37.910156 46.722656 38.5 46.542969 39.074219 46.304688 C 39.644531 46.070312 40.1875 45.78125 40.703125 45.4375 C 41.21875 45.09375 41.695312 44.703125 42.132812 44.265625 C 42.570312 43.828125 42.960938 43.351562 43.304688 42.835938 C 43.648438 42.320312 43.9375 41.777344 44.171875 41.207031 C 44.410156 40.632812 44.589844 40.042969 44.707031 39.433594 C 44.828125 38.828125 44.886719 38.214844 44.886719 37.59375 L 44.863281 24.621094 L 44.417969 24.179688 L 44.441406 37.59375 C 44.449219 38.785156 44.222656 39.933594 43.769531 41.039062 C 43.3125 42.140625 42.664062 43.109375 41.820312 43.953125 Z M 41.03125 43.164062 C 40.292969 43.90625 39.445312 44.476562 38.476562 44.875 C 37.511719 45.273438 36.507812 45.472656 35.460938 45.46875 L 35.460938 45.910156 C 36.007812 45.914062 36.550781 45.859375 37.085938 45.753906 C 37.621094 45.648438 38.144531 45.492188 38.648438 45.28125 C 39.152344 45.074219 39.632812 44.816406 40.085938 44.515625 C 40.542969 44.210938 40.960938 43.867188 41.347656 43.480469 C 41.734375 43.09375 42.078125 42.675781 42.382812 42.21875 C 42.683594 41.765625 42.941406 41.285156 43.148438 40.78125 C 43.359375 40.277344 43.515625 39.753906 43.621094 39.21875 C 43.726562 38.683594 43.78125 38.140625 43.777344 37.59375 L 43.753906 23.511719 L 43.308594 23.066406 L 43.335938 37.59375 C 43.339844 38.640625 43.140625 39.644531 42.742188 40.613281 C 42.34375 41.578125 41.773438 42.429688 41.03125 43.164062 Z M 40.242188 42.378906 C 39.609375 43.011719 38.878906 43.503906 38.046875 43.84375 C 37.214844 44.1875 36.351562 44.355469 35.449219 44.351562 L 35.457031 44.800781 C 35.929688 44.800781 36.402344 44.753906 36.867188 44.664062 C 37.332031 44.570312 37.78125 44.4375 38.21875 44.253906 C 38.65625 44.074219 39.074219 43.851562 39.46875 43.589844 C 39.863281 43.328125 40.226562 43.027344 40.5625 42.695312 C 40.894531 42.359375 41.195312 41.996094 41.457031 41.601562 C 41.71875 41.207031 41.941406 40.789062 42.121094 40.351562 C 42.304688 39.914062 42.4375 39.464844 42.53125 39 C 42.621094 38.535156 42.667969 38.0625 42.667969 37.589844 L 42.640625 22.398438 L 42.195312 21.957031 L 42.222656 37.589844 C 42.226562 38.492188 42.058594 39.355469 41.714844 40.183594 C 41.371094 41.015625 40.882812 41.746094 40.246094 42.378906 Z M 35.453125 43.246094 L 35.453125 43.691406 C 35.855469 43.691406 36.253906 43.652344 36.648438 43.574219 C 37.039062 43.496094 37.421875 43.378906 37.792969 43.226562 C 38.160156 43.074219 38.515625 42.886719 38.847656 42.664062 C 39.179688 42.441406 39.488281 42.1875 39.769531 41.90625 C 40.054688 41.621094 40.308594 41.3125 40.53125 40.980469 C 40.753906 40.648438 40.941406 40.296875 41.09375 39.925781 C 41.246094 39.554688 41.363281 39.175781 41.441406 38.78125 C 41.519531 38.386719 41.558594 37.992188 41.554688 37.589844 L 41.527344 21.292969 L 41.085938 20.847656 L 41.113281 37.585938 C 41.117188 37.960938 41.078125 38.328125 41.007812 38.691406 C 40.933594 39.058594 40.828125 39.410156 40.6875 39.753906 C 40.542969 40.097656 40.371094 40.425781 40.164062 40.734375 C 39.957031 41.042969 39.722656 41.328125 39.460938 41.59375 C 39.195312 41.855469 38.910156 42.089844 38.601562 42.296875 C 38.292969 42.503906 37.964844 42.675781 37.621094 42.820312 C 37.277344 42.960938 36.925781 43.066406 36.558594 43.140625 C 36.195312 43.210938 35.828125 43.25 35.453125 43.246094 Z M 35.453125 43.246094 " clip-rule="nonzero"/></clipPath><linearGradient x1="-50.382908" gradientTransform="matrix(-0.0414363, -0.0414363, 0.0412921, -0.0412921, 37.419384, 48.977952)" y1="-13.409327" x2="370.394438" gradientUnits="userSpaceOnUse" y2="498.676454" id="id15"><stop stop-opacity="1" stop-color="rgb(0%, 18.798828%, 100%)" offset="0"/><stop stop-opacity="1" stop-color="rgb(0%, 18.798828%, 100%)" offset="0.25"/><stop stop-opacity="1" stop-color="rgb(0%, 18.798828%, 100%)" offset="0.3125"/><stop stop-opacity="1" stop-color="rgb(0%, 18.798828%, 100%)" offset="0.320312"/><stop stop-opacity="1" stop-color="rgb(0%, 19.126892%, 100%)" offset="0.324219"/><stop stop-opacity="1" stop-color="rgb(0%, 19.454956%, 100%)" offset="0.328125"/><stop stop-opacity="1" stop-color="rgb(0%, 20.005798%, 100%)" offset="0.332031"/><stop stop-opacity="1" stop-color="rgb(0%, 20.558167%, 100%)" offset="0.335937"/><stop stop-opacity="1" stop-color="rgb(0%, 21.109009%, 100%)" offset="0.339844"/><stop stop-opacity="1" stop-color="rgb(0%, 21.659851%, 100%)" offset="0.34375"/><stop stop-opacity="1" stop-color="rgb(0%, 22.210693%, 100%)" offset="0.347656"/><stop stop-opacity="1" stop-color="rgb(0%, 22.763062%, 100%)" offset="0.351562"/><stop stop-opacity="1" stop-color="rgb(0%, 23.313904%, 100%)" offset="0.355469"/><stop stop-opacity="1" stop-color="rgb(0%, 23.864746%, 100%)" offset="0.359375"/><stop stop-opacity="1" stop-color="rgb(0%, 24.415588%, 100%)" offset="0.363281"/><stop stop-opacity="1" stop-color="rgb(0%, 24.967957%, 100%)" offset="0.367188"/><stop stop-opacity="1" stop-color="rgb(0%, 25.518799%, 100%)" offset="0.371094"/><stop stop-opacity="1" stop-color="rgb(0%, 26.071167%, 100%)" offset="0.375"/><stop stop-opacity="1" stop-color="rgb(0%, 26.622009%, 100%)" offset="0.378906"/><stop stop-opacity="1" stop-color="rgb(0%, 27.172852%, 100%)" offset="0.382812"/><stop stop-opacity="1" stop-color="rgb(0%, 27.723694%, 100%)" offset="0.386719"/><stop stop-opacity="1" stop-color="rgb(0%, 28.276062%, 100%)" offset="0.390625"/><stop stop-opacity="1" stop-color="rgb(0%, 28.826904%, 100%)" offset="0.394531"/><stop stop-opacity="1" stop-color="rgb(0%, 29.379272%, 100%)" offset="0.398437"/><stop stop-opacity="1" stop-color="rgb(0%, 29.930115%, 100%)" offset="0.402344"/><stop stop-opacity="1" stop-color="rgb(0%, 30.480957%, 100%)" offset="0.40625"/><stop stop-opacity="1" stop-color="rgb(0%, 31.031799%, 100%)" offset="0.410156"/><stop stop-opacity="1" stop-color="rgb(0%, 31.584167%, 100%)" offset="0.414062"/><stop stop-opacity="1" stop-color="rgb(0%, 32.13501%, 100%)" offset="0.417969"/><stop stop-opacity="1" stop-color="rgb(0%, 32.685852%, 100%)" offset="0.421875"/><stop stop-opacity="1" stop-color="rgb(0%, 33.236694%, 100%)" offset="0.425781"/><stop stop-opacity="1" stop-color="rgb(0%, 33.789062%, 100%)" offset="0.429687"/><stop stop-opacity="1" stop-color="rgb(0%, 34.339905%, 100%)" offset="0.433594"/><stop stop-opacity="1" stop-color="rgb(0%, 34.892273%, 100%)" offset="0.4375"/><stop stop-opacity="1" stop-color="rgb(0%, 35.443115%, 100%)" offset="0.441406"/><stop stop-opacity="1" stop-color="rgb(0%, 35.993958%, 100%)" offset="0.445312"/><stop stop-opacity="1" stop-color="rgb(0%, 36.5448%, 100%)" offset="0.449219"/><stop stop-opacity="1" stop-color="rgb(0%, 37.097168%, 100%)" offset="0.453125"/><stop stop-opacity="1" stop-color="rgb(0%, 37.64801%, 100%)" offset="0.457031"/><stop stop-opacity="1" stop-color="rgb(0%, 38.200378%, 100%)" offset="0.460938"/><stop stop-opacity="1" stop-color="rgb(0%, 38.751221%, 100%)" offset="0.464844"/><stop stop-opacity="1" stop-color="rgb(0%, 39.302063%, 100%)" offset="0.46875"/><stop stop-opacity="1" stop-color="rgb(0%, 39.852905%, 100%)" offset="0.472656"/><stop stop-opacity="1" stop-color="rgb(0%, 40.405273%, 100%)" offset="0.476562"/><stop stop-opacity="1" stop-color="rgb(0%, 40.956116%, 100%)" offset="0.480469"/><stop stop-opacity="1" stop-color="rgb(0%, 41.506958%, 100%)" offset="0.484375"/><stop stop-opacity="1" stop-color="rgb(0%, 42.0578%, 100%)" offset="0.488281"/><stop stop-opacity="1" stop-color="rgb(0%, 42.610168%, 100%)" offset="0.492188"/><stop stop-opacity="1" stop-color="rgb(0%, 43.161011%, 100%)" offset="0.496094"/><stop stop-opacity="1" stop-color="rgb(0%, 43.713379%, 100%)" offset="0.5"/><stop stop-opacity="1" stop-color="rgb(0%, 44.264221%, 100%)" offset="0.503906"/><stop stop-opacity="1" stop-color="rgb(0%, 44.815063%, 100%)" offset="0.507812"/><stop stop-opacity="1" stop-color="rgb(0%, 45.365906%, 100%)" offset="0.511719"/><stop stop-opacity="1" stop-color="rgb(0%, 45.918274%, 100%)" offset="0.515625"/><stop stop-opacity="1" stop-color="rgb(0%, 46.469116%, 100%)" offset="0.519531"/><stop stop-opacity="1" stop-color="rgb(0%, 47.021484%, 100%)" offset="0.523438"/><stop stop-opacity="1" stop-color="rgb(0%, 47.572327%, 100%)" offset="0.527344"/><stop stop-opacity="1" stop-color="rgb(0%, 48.123169%, 100%)" offset="0.53125"/><stop stop-opacity="1" stop-color="rgb(0%, 48.674011%, 100%)" offset="0.535156"/><stop stop-opacity="1" stop-color="rgb(0%, 49.226379%, 100%)" offset="0.539062"/><stop stop-opacity="1" stop-color="rgb(0%, 49.777222%, 100%)" offset="0.542969"/><stop stop-opacity="1" stop-color="rgb(0%, 50.328064%, 100%)" offset="0.546875"/><stop stop-opacity="1" stop-color="rgb(0%, 50.878906%, 100%)" offset="0.550781"/><stop stop-opacity="1" stop-color="rgb(0%, 51.431274%, 100%)" offset="0.554687"/><stop stop-opacity="1" stop-color="rgb(0%, 51.982117%, 100%)" offset="0.558594"/><stop stop-opacity="1" stop-color="rgb(0%, 52.534485%, 100%)" offset="0.5625"/><stop stop-opacity="1" stop-color="rgb(0%, 53.085327%, 100%)" offset="0.566406"/><stop stop-opacity="1" stop-color="rgb(0%, 53.636169%, 100%)" offset="0.570312"/><stop stop-opacity="1" stop-color="rgb(0%, 54.187012%, 100%)" offset="0.574219"/><stop stop-opacity="1" stop-color="rgb(0%, 54.73938%, 100%)" offset="0.578125"/><stop stop-opacity="1" stop-color="rgb(0%, 55.290222%, 100%)" offset="0.582031"/><stop stop-opacity="1" stop-color="rgb(0%, 55.84259%, 100%)" offset="0.585937"/><stop stop-opacity="1" stop-color="rgb(0%, 56.393433%, 100%)" offset="0.589844"/><stop stop-opacity="1" stop-color="rgb(0%, 56.944275%, 100%)" offset="0.59375"/><stop stop-opacity="1" stop-color="rgb(0%, 57.495117%, 100%)" offset="0.597656"/><stop stop-opacity="1" stop-color="rgb(0%, 58.047485%, 100%)" offset="0.601562"/><stop stop-opacity="1" stop-color="rgb(0%, 58.598328%, 100%)" offset="0.605469"/><stop stop-opacity="1" stop-color="rgb(0%, 59.14917%, 100%)" offset="0.609375"/><stop stop-opacity="1" stop-color="rgb(0%, 59.700012%, 100%)" offset="0.613281"/><stop stop-opacity="1" stop-color="rgb(0%, 60.25238%, 100%)" offset="0.617187"/><stop stop-opacity="1" stop-color="rgb(0%, 60.803223%, 100%)" offset="0.621094"/><stop stop-opacity="1" stop-color="rgb(0%, 61.355591%, 100%)" offset="0.625"/><stop stop-opacity="1" stop-color="rgb(0%, 61.906433%, 100%)" offset="0.628906"/><stop stop-opacity="1" stop-color="rgb(0%, 62.457275%, 100%)" offset="0.632812"/><stop stop-opacity="1" stop-color="rgb(0%, 63.008118%, 100%)" offset="0.636719"/><stop stop-opacity="1" stop-color="rgb(0%, 63.560486%, 100%)" offset="0.640625"/><stop stop-opacity="1" stop-color="rgb(0%, 64.111328%, 100%)" offset="0.644531"/><stop stop-opacity="1" stop-color="rgb(0%, 64.663696%, 100%)" offset="0.648437"/><stop stop-opacity="1" stop-color="rgb(0%, 65.214539%, 100%)" offset="0.652344"/><stop stop-opacity="1" stop-color="rgb(0%, 65.765381%, 100%)" offset="0.65625"/><stop stop-opacity="1" stop-color="rgb(0%, 66.316223%, 100%)" offset="0.660156"/><stop stop-opacity="1" stop-color="rgb(0%, 66.868591%, 100%)" offset="0.664062"/><stop stop-opacity="1" stop-color="rgb(0%, 67.419434%, 100%)" offset="0.667969"/><stop stop-opacity="1" stop-color="rgb(0%, 67.970276%, 100%)" offset="0.671875"/><stop stop-opacity="1" stop-color="rgb(0%, 68.521118%, 100%)" offset="0.675781"/><stop stop-opacity="1" stop-color="rgb(0%, 69.073486%, 100%)" offset="0.679687"/><stop stop-opacity="1" stop-color="rgb(0%, 69.624329%, 100%)" offset="0.683594"/><stop stop-opacity="1" stop-color="rgb(0%, 70.176697%, 100%)" offset="0.6875"/><stop stop-opacity="1" stop-color="rgb(0%, 70.727539%, 100%)" offset="0.691406"/><stop stop-opacity="1" stop-color="rgb(0%, 71.278381%, 100%)" offset="0.695312"/><stop stop-opacity="1" stop-color="rgb(0%, 71.829224%, 100%)" offset="0.699219"/><stop stop-opacity="1" stop-color="rgb(0%, 72.381592%, 100%)" offset="0.703125"/><stop stop-opacity="1" stop-color="rgb(0%, 72.932434%, 100%)" offset="0.707031"/><stop stop-opacity="1" stop-color="rgb(0%, 73.484802%, 100%)" offset="0.710937"/><stop stop-opacity="1" stop-color="rgb(0%, 74.035645%, 100%)" offset="0.714844"/><stop stop-opacity="1" stop-color="rgb(0%, 74.586487%, 100%)" offset="0.71875"/><stop stop-opacity="1" stop-color="rgb(0%, 75.137329%, 100%)" offset="0.722656"/><stop stop-opacity="1" stop-color="rgb(0%, 75.689697%, 100%)" offset="0.726562"/><stop stop-opacity="1" stop-color="rgb(0%, 75.894165%, 100%)" offset="0.730469"/><stop stop-opacity="1" stop-color="rgb(0%, 76.098633%, 100%)" offset="0.734375"/><stop stop-opacity="1" stop-color="rgb(0%, 76.098633%, 100%)" offset="0.75"/><stop stop-opacity="1" stop-color="rgb(0%, 76.098633%, 100%)" offset="1"/></linearGradient></defs><g clip-path="url(#id1)"><g clip-path="url(#id2)"><g clip-path="url(#id3)"><g clip-path="url(#id4)"><path fill="url(#id5)" d="M 25.996094 28.085938 L 26.035156 47.027344 L 38.039062 47.050781 L 38 28.109375 Z M 25.996094 28.085938 " fill-rule="nonzero"/></g></g></g></g><g clip-path="url(#id6)"><g clip-path="url(#id7)"><g clip-path="url(#id8)"><g clip-path="url(#id9)"><path fill="url(#id10)" d="M 44.433594 28.105469 L 44.429688 35.246094 L 54.476562 35.234375 L 54.484375 28.097656 Z M 44.433594 28.105469 " fill-rule="nonzero"/></g></g></g></g><g clip-path="url(#id11)"><g clip-path="url(#id12)"><g clip-path="url(#id13)"><g clip-path="url(#id14)"><path fill="url(#id15)" d="M 40.167969 51.738281 L 59.640625 32.265625 L 40.167969 12.789062 L 20.691406 32.265625 Z M 40.167969 51.738281 " fill-rule="nonzero"/></g></g></g></g><g fill="#ffffff" fill-opacity="1"><g transform="translate(7.817129, 56.567118)"><g><path d="M 0.582031 0 L 1.582031 0 L 1.582031 -4.398438 L 1.652344 -4.398438 L 3.472656 0 L 4.316406 0 L 6.140625 -4.40625 L 6.207031 -4.40625 L 6.207031 0 L 7.207031 0 L 7.207031 -5.796875 L 5.789062 -5.796875 L 3.929688 -1.238281 L 3.863281 -1.238281 L 1.980469 -5.796875 L 0.582031 -5.796875 Z M 0.582031 0 "/></g></g></g><g fill="#ffffff" fill-opacity="1"><g transform="translate(15.610876, 56.567118)"><g><path d="M 1.636719 0.132812 C 2.285156 0.132812 2.867188 -0.132812 3.136719 -0.648438 L 3.195312 -0.648438 L 3.195312 0 L 4.128906 0 L 4.128906 -2.71875 C 4.128906 -3.636719 3.382812 -4.257812 2.308594 -4.257812 C 1.210938 -4.257812 0.464844 -3.652344 0.464844 -2.777344 L 1.367188 -2.777344 C 1.367188 -3.285156 1.753906 -3.636719 2.300781 -3.636719 C 2.832031 -3.636719 3.195312 -3.265625 3.195312 -2.75 L 3.195312 -2.53125 L 2.160156 -2.367188 C 0.851562 -2.160156 0.269531 -1.726562 0.269531 -0.984375 C 0.269531 -0.277344 0.820312 0.132812 1.636719 0.132812 Z M 1.964844 -0.476562 C 1.464844 -0.476562 1.171875 -0.695312 1.171875 -1.054688 C 1.171875 -1.441406 1.464844 -1.695312 2.21875 -1.824219 L 3.195312 -1.988281 L 3.195312 -1.628906 C 3.195312 -0.964844 2.703125 -0.476562 1.964844 -0.476562 Z M 1.964844 -0.476562 "/></g></g></g><g fill="#ffffff" fill-opacity="1"><g transform="translate(20.211805, 56.567118)"><g><path d="M 0.539062 0 L 1.464844 0 L 1.464844 -2.1875 C 1.464844 -2.941406 1.851562 -3.4375 2.441406 -3.4375 C 2.644531 -3.4375 2.898438 -3.382812 3.128906 -3.265625 L 3.128906 -4.128906 C 2.964844 -4.199219 2.769531 -4.242188 2.578125 -4.242188 C 2.078125 -4.242188 1.726562 -3.953125 1.53125 -3.480469 L 1.464844 -3.480469 L 1.464844 -4.160156 L 0.539062 -4.160156 Z M 0.539062 0 "/></g></g></g><g fill="#ffffff" fill-opacity="1"><g transform="translate(23.527422, 56.567118)"><g><path d="M 2.539062 0.132812 C 3.609375 0.132812 4.445312 -0.464844 4.609375 -1.390625 L 3.75 -1.507812 C 3.621094 -1 3.121094 -0.628906 2.546875 -0.628906 C 1.777344 -0.628906 1.21875 -1.238281 1.21875 -2.078125 C 1.21875 -2.921875 1.777344 -3.527344 2.546875 -3.527344 C 3.113281 -3.527344 3.621094 -3.152344 3.75 -2.621094 L 4.609375 -2.734375 C 4.453125 -3.683594 3.609375 -4.289062 2.539062 -4.289062 C 1.210938 -4.289062 0.292969 -3.40625 0.292969 -2.078125 C 0.285156 -0.769531 1.226562 0.132812 2.539062 0.132812 Z M 2.539062 0.132812 "/></g></g></g><g fill="#ffffff" fill-opacity="1"><g transform="translate(28.431261, 56.567118)"><g><path d="M 2.585938 0.132812 C 3.585938 0.132812 4.453125 -0.410156 4.683594 -1.210938 L 3.863281 -1.34375 C 3.691406 -0.875 3.195312 -0.539062 2.628906 -0.539062 C 1.859375 -0.539062 1.308594 -1.054688 1.246094 -1.824219 L 4.816406 -1.824219 L 4.824219 -2.078125 C 4.824219 -3.398438 3.921875 -4.289062 2.597656 -4.289062 C 1.246094 -4.289062 0.292969 -3.40625 0.292969 -2.089844 C 0.292969 -0.761719 1.238281 0.132812 2.585938 0.132812 Z M 1.238281 -2.367188 C 1.308594 -3.113281 1.835938 -3.628906 2.578125 -3.628906 C 3.300781 -3.628906 3.832031 -3.085938 3.882812 -2.367188 Z M 1.238281 -2.367188 "/></g></g></g><g fill="#ffffff" fill-opacity="1"><g transform="translate(33.539768, 56.567118)"><g><path d="M 0.53125 0 L 1.464844 0 L 1.464844 -6.042969 L 0.53125 -6.042969 Z M 0.53125 0 "/></g></g></g><g fill="#ffffff" fill-opacity="1"><g transform="translate(35.537325, 56.567118)"><g><path d="M 2.546875 0.132812 C 3.898438 0.132812 4.816406 -0.746094 4.816406 -2.078125 C 4.816406 -3.414062 3.898438 -4.289062 2.546875 -4.289062 C 1.195312 -4.289062 0.285156 -3.421875 0.285156 -2.078125 C 0.285156 -0.746094 1.203125 0.132812 2.546875 0.132812 Z M 2.546875 -0.664062 C 1.769531 -0.664062 1.210938 -1.253906 1.210938 -2.078125 C 1.210938 -2.90625 1.769531 -3.496094 2.546875 -3.496094 C 3.332031 -3.496094 3.890625 -2.90625 3.890625 -2.078125 C 3.890625 -1.253906 3.332031 -0.664062 2.546875 -0.664062 Z M 2.546875 -0.664062 "/></g></g></g><g fill="#ffffff" fill-opacity="1"><g transform="translate(40.629458, 56.567118)"><g/></g></g><g fill="#ffffff" fill-opacity="1"><g transform="translate(42.643389, 56.567118)"><g><path d="M 0.582031 0 L 3.339844 0 C 4.585938 0 5.394531 -0.605469 5.394531 -1.5625 C 5.394531 -2.277344 4.929688 -2.800781 4.273438 -2.957031 L 4.273438 -3.023438 C 4.839844 -3.183594 5.234375 -3.644531 5.234375 -4.273438 C 5.234375 -5.183594 4.480469 -5.796875 3.300781 -5.796875 L 0.582031 -5.796875 Z M 1.613281 -3.324219 L 1.613281 -5.027344 L 3.121094 -5.027344 C 3.734375 -5.027344 4.175781 -4.675781 4.175781 -4.175781 C 4.175781 -3.675781 3.734375 -3.324219 3.121094 -3.324219 Z M 1.613281 -0.769531 L 1.613281 -2.644531 L 3.144531 -2.644531 C 3.832031 -2.644531 4.339844 -2.261719 4.339844 -1.710938 C 4.339844 -1.164062 3.832031 -0.769531 3.144531 -0.769531 Z M 1.613281 -0.769531 "/></g></g></g><g fill="#ffffff" fill-opacity="1"><g transform="translate(48.415019, 56.567118)"><g><path d="M 1.636719 0.132812 C 2.285156 0.132812 2.867188 -0.132812 3.136719 -0.648438 L 3.195312 -0.648438 L 3.195312 0 L 4.128906 0 L 4.128906 -2.71875 C 4.128906 -3.636719 3.382812 -4.257812 2.308594 -4.257812 C 1.210938 -4.257812 0.464844 -3.652344 0.464844 -2.777344 L 1.367188 -2.777344 C 1.367188 -3.285156 1.753906 -3.636719 2.300781 -3.636719 C 2.832031 -3.636719 3.195312 -3.265625 3.195312 -2.75 L 3.195312 -2.53125 L 2.160156 -2.367188 C 0.851562 -2.160156 0.269531 -1.726562 0.269531 -0.984375 C 0.269531 -0.277344 0.820312 0.132812 1.636719 0.132812 Z M 1.964844 -0.476562 C 1.464844 -0.476562 1.171875 -0.695312 1.171875 -1.054688 C 1.171875 -1.441406 1.464844 -1.695312 2.21875 -1.824219 L 3.195312 -1.988281 L 3.195312 -1.628906 C 3.195312 -0.964844 2.703125 -0.476562 1.964844 -0.476562 Z M 1.964844 -0.476562 "/></g></g></g><g fill="#ffffff" fill-opacity="1"><g transform="translate(53.015951, 56.567118)"><g><path d="M 2.03125 0.0898438 C 2.269531 0.0898438 2.578125 0.0507812 2.792969 -0.0234375 L 2.792969 -0.703125 C 2.644531 -0.664062 2.449219 -0.640625 2.300781 -0.640625 C 1.957031 -0.640625 1.734375 -0.890625 1.734375 -1.269531 L 1.726562 -3.472656 L 2.734375 -3.472656 L 2.734375 -4.160156 L 1.726562 -4.160156 L 1.734375 -5.4375 L 0.984375 -5.4375 L 0.835938 -4.160156 L 0.164062 -4.160156 L 0.164062 -3.472656 L 0.800781 -3.472656 L 0.800781 -1.238281 C 0.800781 -0.441406 1.285156 0.0898438 2.03125 0.0898438 Z M 2.03125 0.0898438 "/></g></g></g><g fill="#ffffff" fill-opacity="1"><g transform="translate(56.028658, 56.567118)"><g><path d="M 1.03125 -4.832031 C 1.367188 -4.832031 1.613281 -5.058594 1.613281 -5.386719 C 1.613281 -5.714844 1.367188 -5.945312 1.03125 -5.945312 C 0.703125 -5.945312 0.457031 -5.714844 0.457031 -5.386719 C 0.457031 -5.058594 0.703125 -4.832031 1.03125 -4.832031 Z M 0.566406 0 L 1.5 0 L 1.5 -4.160156 L 0.566406 -4.160156 Z M 0.566406 0 "/></g></g></g><g fill="#ffffff" fill-opacity="1"><g transform="translate(58.091707, 56.567118)"><g><path d="M 2.203125 0.148438 C 3.324219 0.148438 4.085938 -0.367188 4.085938 -1.203125 C 4.085938 -2.195312 3.167969 -2.34375 2.390625 -2.449219 C 1.777344 -2.53125 1.210938 -2.585938 1.210938 -3.113281 C 1.210938 -3.464844 1.582031 -3.710938 2.105469 -3.710938 C 2.703125 -3.710938 3.101562 -3.398438 3.101562 -2.921875 L 3.9375 -2.921875 C 3.9375 -3.765625 3.175781 -4.308594 2.105469 -4.308594 C 1.054688 -4.308594 0.351562 -3.800781 0.351562 -3.023438 C 0.351562 -1.980469 1.300781 -1.875 2.046875 -1.785156 C 2.628906 -1.710938 3.160156 -1.664062 3.160156 -1.097656 C 3.160156 -0.703125 2.757812 -0.449219 2.210938 -0.449219 C 1.546875 -0.449219 1.097656 -0.8125 1.089844 -1.328125 L 0.285156 -1.328125 C 0.285156 -0.441406 1.046875 0.148438 2.203125 0.148438 Z M 2.203125 0.148438 "/></g></g></g><g fill="#ffffff" fill-opacity="1"><g transform="translate(62.471599, 56.567118)"><g><path d="M 2.03125 0.0898438 C 2.269531 0.0898438 2.578125 0.0507812 2.792969 -0.0234375 L 2.792969 -0.703125 C 2.644531 -0.664062 2.449219 -0.640625 2.300781 -0.640625 C 1.957031 -0.640625 1.734375 -0.890625 1.734375 -1.269531 L 1.726562 -3.472656 L 2.734375 -3.472656 L 2.734375 -4.160156 L 1.726562 -4.160156 L 1.734375 -5.4375 L 0.984375 -5.4375 L 0.835938 -4.160156 L 0.164062 -4.160156 L 0.164062 -3.472656 L 0.800781 -3.472656 L 0.800781 -1.238281 C 0.800781 -0.441406 1.285156 0.0898438 2.03125 0.0898438 Z M 2.03125 0.0898438 "/></g></g></g><g fill="#ffffff" fill-opacity="1"><g transform="translate(65.484306, 56.567118)"><g><path d="M 1.636719 0.132812 C 2.285156 0.132812 2.867188 -0.132812 3.136719 -0.648438 L 3.195312 -0.648438 L 3.195312 0 L 4.128906 0 L 4.128906 -2.71875 C 4.128906 -3.636719 3.382812 -4.257812 2.308594 -4.257812 C 1.210938 -4.257812 0.464844 -3.652344 0.464844 -2.777344 L 1.367188 -2.777344 C 1.367188 -3.285156 1.753906 -3.636719 2.300781 -3.636719 C 2.832031 -3.636719 3.195312 -3.265625 3.195312 -2.75 L 3.195312 -2.53125 L 2.160156 -2.367188 C 0.851562 -2.160156 0.269531 -1.726562 0.269531 -0.984375 C 0.269531 -0.277344 0.820312 0.132812 1.636719 0.132812 Z M 1.964844 -0.476562 C 1.464844 -0.476562 1.171875 -0.695312 1.171875 -1.054688 C 1.171875 -1.441406 1.464844 -1.695312 2.21875 -1.824219 L 3.195312 -1.988281 L 3.195312 -1.628906 C 3.195312 -0.964844 2.703125 -0.476562 1.964844 -0.476562 Z M 1.964844 -0.476562 "/></g></g></g><g fill="#00c2ff" fill-opacity="1"><g transform="translate(14.489431, 62.767136)"><g><path d="M 1.058594 0.0585938 C 1.609375 0.0585938 1.96875 -0.199219 1.96875 -0.597656 C 1.96875 -1.078125 1.507812 -1.148438 1.128906 -1.207031 C 0.828125 -1.25 0.554688 -1.296875 0.554688 -1.546875 C 0.554688 -1.753906 0.738281 -1.902344 1.039062 -1.902344 C 1.355469 -1.902344 1.558594 -1.738281 1.558594 -1.464844 L 1.90625 -1.464844 C 1.90625 -1.894531 1.558594 -2.183594 1.027344 -2.183594 C 0.507812 -2.183594 0.175781 -1.921875 0.175781 -1.523438 C 0.175781 -1.035156 0.652344 -0.976562 1.027344 -0.921875 C 1.320312 -0.875 1.589844 -0.835938 1.589844 -0.574219 C 1.589844 -0.363281 1.386719 -0.226562 1.074219 -0.226562 C 0.722656 -0.226562 0.507812 -0.402344 0.507812 -0.691406 L 0.148438 -0.6875 C 0.148438 -0.238281 0.511719 0.0585938 1.058594 0.0585938 Z M 1.058594 0.0585938 "/></g></g></g><g fill="#00c2ff" fill-opacity="1"><g transform="translate(17.24346, 62.767136)"><g><path d="M 1.289062 0.0585938 C 1.972656 0.0585938 2.449219 -0.394531 2.449219 -1.0625 C 2.449219 -1.730469 1.972656 -2.183594 1.289062 -2.183594 C 0.605469 -2.183594 0.128906 -1.730469 0.128906 -1.0625 C 0.128906 -0.394531 0.605469 0.0585938 1.289062 0.0585938 Z M 1.289062 -0.257812 C 0.835938 -0.257812 0.511719 -0.589844 0.511719 -1.0625 C 0.511719 -1.535156 0.835938 -1.867188 1.289062 -1.867188 C 1.75 -1.867188 2.074219 -1.535156 2.074219 -1.0625 C 2.074219 -0.589844 1.75 -0.257812 1.289062 -0.257812 Z M 1.289062 -0.257812 "/></g></g></g><g fill="#00c2ff" fill-opacity="1"><g transform="translate(20.462495, 62.767136)"><g><path d="M 0.214844 0 L 0.59375 0 L 0.59375 -0.902344 L 1.535156 -0.902344 L 1.535156 -1.195312 L 0.59375 -1.195312 L 0.59375 -1.796875 L 1.683594 -1.796875 L 1.683594 -2.125 L 0.214844 -2.125 Z M 0.214844 0 "/></g></g></g><g fill="#00c2ff" fill-opacity="1"><g transform="translate(22.874519, 62.767136)"><g><path d="M 0.757812 0 L 1.132812 0 L 1.132812 -1.808594 L 1.84375 -1.808594 L 1.84375 -2.125 L 0.046875 -2.125 L 0.046875 -1.808594 L 0.757812 -1.808594 Z M 0.757812 0 "/></g></g></g><g fill="#00c2ff" fill-opacity="1"><g transform="translate(25.400546, 62.767136)"><g><path d="M 0.675781 0 L 1.214844 0 L 1.644531 -1.636719 L 1.671875 -1.636719 L 2.101562 0 L 2.640625 0 L 3.242188 -2.125 L 2.863281 -2.125 L 2.367188 -0.347656 L 2.339844 -0.347656 L 1.859375 -2.125 L 1.453125 -2.125 L 0.976562 -0.347656 L 0.949219 -0.347656 L 0.449219 -2.125 L 0.0703125 -2.125 Z M 0.675781 0 "/></g></g></g><g fill="#00c2ff" fill-opacity="1"><g transform="translate(29.348588, 62.767136)"><g><path d="M 0.046875 0 L 0.433594 0 L 0.59375 -0.441406 L 1.539062 -0.441406 L 1.699219 0 L 2.089844 0 L 1.347656 -2.125 L 0.789062 -2.125 Z M 0.675781 -0.722656 L 1.054688 -1.796875 L 1.078125 -1.796875 L 1.457031 -0.722656 Z M 0.675781 -0.722656 "/></g></g></g><g fill="#00c2ff" fill-opacity="1"><g transform="translate(32.117617, 62.767136)"><g><path d="M 0.214844 0 L 0.59375 0 L 0.59375 -0.8125 L 0.941406 -0.8125 L 1.597656 0 L 2.027344 0 L 1.3125 -0.839844 L 1.378906 -0.84375 C 1.753906 -0.871094 2.003906 -1.113281 2.003906 -1.460938 C 2.003906 -1.867188 1.6875 -2.125 1.199219 -2.125 L 0.214844 -2.125 Z M 0.59375 -1.070312 L 0.59375 -1.84375 L 1.140625 -1.84375 C 1.429688 -1.84375 1.621094 -1.699219 1.621094 -1.457031 C 1.621094 -1.222656 1.429688 -1.070312 1.140625 -1.070312 Z M 0.59375 -1.070312 "/></g></g></g><g fill="#00c2ff" fill-opacity="1"><g transform="translate(34.892646, 62.767136)"><g><path d="M 0.214844 0 L 1.789062 0 L 1.789062 -0.304688 L 0.582031 -0.304688 L 0.582031 -0.960938 L 1.671875 -0.960938 L 1.671875 -1.21875 L 0.582031 -1.21875 L 0.582031 -1.820312 L 1.757812 -1.820312 L 1.757812 -2.125 L 0.214844 -2.125 Z M 0.214844 0 "/></g></g></g><g fill="#00c2ff" fill-opacity="1"><g transform="translate(37.433672, 62.767136)"><g/></g></g><g fill="#00c2ff" fill-opacity="1"><g transform="translate(38.807685, 62.767136)"><g><path d="M 0.214844 0 L 0.976562 0 C 1.679688 0 2.148438 -0.40625 2.148438 -1.0625 C 2.148438 -1.71875 1.675781 -2.125 0.976562 -2.125 L 0.214844 -2.125 Z M 0.582031 -0.292969 L 0.582031 -1.832031 L 0.976562 -1.832031 C 1.445312 -1.832031 1.769531 -1.542969 1.769531 -1.0625 C 1.769531 -0.582031 1.453125 -0.292969 0.976562 -0.292969 Z M 0.582031 -0.292969 "/></g></g></g><g fill="#00c2ff" fill-opacity="1"><g transform="translate(41.723717, 62.767136)"><g><path d="M 0.214844 0 L 1.789062 0 L 1.789062 -0.304688 L 0.582031 -0.304688 L 0.582031 -0.960938 L 1.671875 -0.960938 L 1.671875 -1.21875 L 0.582031 -1.21875 L 0.582031 -1.820312 L 1.757812 -1.820312 L 1.757812 -2.125 L 0.214844 -2.125 Z M 0.214844 0 "/></g></g></g><g fill="#00c2ff" fill-opacity="1"><g transform="translate(44.264743, 62.767136)"><g><path d="M 0.769531 0 L 1.355469 0 L 2.078125 -2.125 L 1.6875 -2.125 L 1.074219 -0.289062 L 1.050781 -0.289062 L 0.433594 -2.125 L 0.046875 -2.125 Z M 0.769531 0 "/></g></g></g><g fill="#00c2ff" fill-opacity="1"><g transform="translate(47.021772, 62.767136)"><g><path d="M 0.214844 0 L 1.789062 0 L 1.789062 -0.304688 L 0.582031 -0.304688 L 0.582031 -0.960938 L 1.671875 -0.960938 L 1.671875 -1.21875 L 0.582031 -1.21875 L 0.582031 -1.820312 L 1.757812 -1.820312 L 1.757812 -2.125 L 0.214844 -2.125 Z M 0.214844 0 "/></g></g></g><g fill="#00c2ff" fill-opacity="1"><g transform="translate(49.5628, 62.767136)"><g><path d="M 0.214844 0 L 1.648438 0 L 1.648438 -0.328125 L 0.59375 -0.328125 L 0.59375 -2.125 L 0.214844 -2.125 Z M 0.214844 0 "/></g></g></g><g fill="#00c2ff" fill-opacity="1"><g transform="translate(51.929824, 62.767136)"><g><path d="M 1.289062 0.0585938 C 1.972656 0.0585938 2.449219 -0.394531 2.449219 -1.0625 C 2.449219 -1.730469 1.972656 -2.183594 1.289062 -2.183594 C 0.605469 -2.183594 0.128906 -1.730469 0.128906 -1.0625 C 0.128906 -0.394531 0.605469 0.0585938 1.289062 0.0585938 Z M 1.289062 -0.257812 C 0.835938 -0.257812 0.511719 -0.589844 0.511719 -1.0625 C 0.511719 -1.535156 0.835938 -1.867188 1.289062 -1.867188 C 1.75 -1.867188 2.074219 -1.535156 2.074219 -1.0625 C 2.074219 -0.589844 1.75 -0.257812 1.289062 -0.257812 Z M 1.289062 -0.257812 "/></g></g></g><g fill="#00c2ff" fill-opacity="1"><g transform="translate(55.14886, 62.767136)"><g><path d="M 0.214844 0 L 0.59375 0 L 0.59375 -0.722656 L 1.09375 -0.722656 C 1.621094 -0.722656 1.921875 -1.007812 1.921875 -1.425781 C 1.921875 -1.839844 1.621094 -2.125 1.097656 -2.125 L 0.214844 -2.125 Z M 0.59375 -1.003906 L 0.59375 -1.84375 L 1.058594 -1.84375 C 1.375 -1.84375 1.542969 -1.667969 1.542969 -1.425781 C 1.542969 -1.175781 1.375 -1.003906 1.058594 -1.003906 Z M 0.59375 -1.003906 "/></g></g></g><g fill="#00c2ff" fill-opacity="1"><g transform="translate(57.809888, 62.767136)"><g><path d="M 0.214844 0 L 1.789062 0 L 1.789062 -0.304688 L 0.582031 -0.304688 L 0.582031 -0.960938 L 1.671875 -0.960938 L 1.671875 -1.21875 L 0.582031 -1.21875 L 0.582031 -1.820312 L 1.757812 -1.820312 L 1.757812 -2.125 L 0.214844 -2.125 Z M 0.214844 0 "/></g></g></g><g fill="#00c2ff" fill-opacity="1"><g transform="translate(60.350916, 62.767136)"><g><path d="M 0.214844 0 L 0.59375 0 L 0.59375 -0.8125 L 0.941406 -0.8125 L 1.597656 0 L 2.027344 0 L 1.3125 -0.839844 L 1.378906 -0.84375 C 1.753906 -0.871094 2.003906 -1.113281 2.003906 -1.460938 C 2.003906 -1.867188 1.6875 -2.125 1.199219 -2.125 L 0.214844 -2.125 Z M 0.59375 -1.070312 L 0.59375 -1.84375 L 1.140625 -1.84375 C 1.429688 -1.84375 1.621094 -1.699219 1.621094 -1.457031 C 1.621094 -1.222656 1.429688 -1.070312 1.140625 -1.070312 Z M 0.59375 -1.070312 "/></g></g></g></svg>