<svg xmlns="http://www.w3.org/2000/svg" xmlns:xlink="http://www.w3.org/1999/xlink" width="150" zoomAndPan="magnify" viewBox="0 0 112.5 112.499997" height="150" preserveAspectRatio="xMidYMid meet" version="1.0"><defs><g/><clipPath id="id1"><path d="M 42 36 L 56 36 L 56 58 L 42 58 Z M 42 36 " clip-rule="nonzero"/></clipPath><clipPath id="id2"><path d="M 50.847656 59.289062 L 38.292969 46.734375 L 52.15625 32.871094 L 64.710938 45.425781 Z M 50.847656 59.289062 " clip-rule="nonzero"/></clipPath><clipPath id="id3"><path d="M 50.847656 59.289062 L 38.292969 46.734375 L 52.15625 32.871094 L 64.710938 45.425781 Z M 50.847656 59.289062 " clip-rule="nonzero"/></clipPath><clipPath id="id4"><path d="M 48.207031 42.011719 C 47.738281 42.480469 47.347656 43.007812 47.035156 43.589844 C 46.722656 44.175781 46.503906 44.792969 46.375 45.445312 C 46.246094 46.097656 46.214844 46.753906 46.28125 47.414062 C 46.347656 48.074219 46.507812 48.714844 46.765625 49.328125 C 47.019531 49.941406 47.359375 50.503906 47.78125 51.019531 C 48.203125 51.535156 48.691406 51.976562 49.246094 52.347656 C 49.796875 52.714844 50.394531 53 51.027344 53.191406 C 51.664062 53.386719 52.316406 53.484375 52.980469 53.484375 L 52.976562 53 C 52.570312 53 52.164062 52.957031 51.761719 52.875 C 51.359375 52.796875 50.972656 52.675781 50.59375 52.519531 C 50.214844 52.363281 49.855469 52.167969 49.515625 51.941406 C 49.175781 51.714844 48.859375 51.453125 48.570312 51.164062 C 48.277344 50.875 48.019531 50.558594 47.792969 50.21875 C 47.5625 49.878906 47.371094 49.519531 47.214844 49.140625 C 47.058594 48.761719 46.9375 48.371094 46.859375 47.96875 C 46.777344 47.570312 46.738281 47.164062 46.734375 46.753906 C 46.734375 46.34375 46.773438 45.941406 46.851562 45.539062 C 46.933594 45.136719 47.050781 44.75 47.207031 44.371094 C 47.359375 43.992188 47.550781 43.636719 47.777344 43.296875 C 48.003906 42.957031 48.261719 42.640625 48.550781 42.351562 C 48.839844 42.066406 49.15625 41.808594 49.496094 41.582031 C 49.835938 41.355469 50.191406 41.164062 50.570312 41.007812 C 50.949219 40.851562 51.339844 40.734375 51.738281 40.65625 C 52.140625 40.578125 52.546875 40.539062 52.953125 40.539062 L 55.703125 40.542969 L 55.703125 40.058594 L 52.953125 40.054688 C 52.0625 40.050781 51.203125 40.21875 50.382812 40.554688 C 49.558594 40.894531 48.832031 41.378906 48.207031 42.011719 Z M 49.933594 43.738281 C 49.636719 44.035156 49.386719 44.371094 49.1875 44.746094 C 48.988281 45.117188 48.847656 45.511719 48.765625 45.925781 C 48.683594 46.339844 48.664062 46.757812 48.707031 47.179688 C 48.75 47.601562 48.851562 48.007812 49.015625 48.398438 C 49.179688 48.789062 49.394531 49.148438 49.664062 49.476562 C 49.933594 49.804688 50.242188 50.085938 50.59375 50.324219 C 50.949219 50.558594 51.328125 50.738281 51.730469 50.863281 C 52.136719 50.984375 52.550781 51.046875 52.972656 51.050781 L 52.972656 50.5625 C 52.46875 50.5625 51.984375 50.464844 51.519531 50.269531 C 51.054688 50.078125 50.644531 49.800781 50.289062 49.445312 C 49.933594 49.089844 49.65625 48.679688 49.464844 48.214844 C 49.269531 47.75 49.171875 47.265625 49.171875 46.761719 C 49.171875 46.257812 49.265625 45.773438 49.457031 45.3125 C 49.648438 44.847656 49.921875 44.4375 50.277344 44.082031 C 50.632812 43.726562 51.042969 43.453125 51.507812 43.261719 C 51.972656 43.070312 52.453125 42.976562 52.957031 42.976562 L 55.710938 42.984375 L 55.707031 42.496094 L 52.957031 42.492188 C 51.773438 42.484375 50.765625 42.902344 49.933594 43.738281 Z M 49.066406 42.871094 C 48.683594 43.257812 48.367188 43.6875 48.109375 44.167969 C 47.855469 44.644531 47.675781 45.152344 47.570312 45.683594 C 47.464844 46.214844 47.441406 46.753906 47.496094 47.292969 C 47.550781 47.835938 47.679688 48.355469 47.890625 48.859375 C 48.097656 49.363281 48.375 49.824219 48.722656 50.242188 C 49.066406 50.664062 49.464844 51.027344 49.917969 51.328125 C 50.371094 51.632812 50.855469 51.863281 51.378906 52.023438 C 51.898438 52.183594 52.429688 52.261719 52.972656 52.265625 L 52.976562 51.78125 C 52.652344 51.773438 52.332031 51.730469 52.015625 51.660156 C 51.699219 51.589844 51.390625 51.492188 51.09375 51.359375 C 50.796875 51.230469 50.515625 51.074219 50.25 50.886719 C 49.980469 50.703125 49.734375 50.496094 49.507812 50.261719 C 49.28125 50.03125 49.078125 49.777344 48.902344 49.507812 C 48.722656 49.234375 48.574219 48.949219 48.449219 48.648438 C 48.328125 48.347656 48.234375 48.039062 48.171875 47.722656 C 48.109375 47.402344 48.078125 47.082031 48.078125 46.757812 C 48.074219 46.433594 48.105469 46.113281 48.167969 45.796875 C 48.230469 45.480469 48.320312 45.171875 48.441406 44.871094 C 48.5625 44.570312 48.714844 44.285156 48.890625 44.015625 C 49.066406 43.746094 49.269531 43.492188 49.492188 43.261719 C 49.71875 43.03125 49.964844 42.824219 50.230469 42.640625 C 50.496094 42.457031 50.78125 42.300781 51.074219 42.171875 C 51.371094 42.042969 51.679688 41.941406 51.996094 41.875 C 52.3125 41.804688 52.632812 41.765625 52.953125 41.757812 L 55.707031 41.765625 L 55.703125 41.277344 L 52.953125 41.273438 C 52.222656 41.269531 51.523438 41.40625 50.851562 41.683594 C 50.175781 41.960938 49.582031 42.359375 49.070312 42.875 Z M 46.476562 40.28125 C 46.054688 40.707031 45.675781 41.167969 45.34375 41.667969 C 45.007812 42.164062 44.730469 42.691406 44.5 43.246094 C 44.269531 43.800781 44.097656 44.375 43.984375 44.964844 C 43.867188 45.550781 43.808594 46.148438 43.8125 46.75 C 43.8125 47.347656 43.875 47.945312 43.992188 48.535156 C 44.109375 49.125 44.285156 49.699219 44.515625 50.253906 C 44.746094 50.808594 45.03125 51.335938 45.367188 51.835938 C 45.703125 52.339844 46.082031 52.800781 46.507812 53.226562 C 47.367188 54.089844 48.355469 54.753906 49.480469 55.222656 C 50.601562 55.691406 51.769531 55.921875 52.984375 55.921875 L 52.980469 55.4375 C 52.414062 55.4375 51.847656 55.378906 51.289062 55.269531 C 50.730469 55.15625 50.191406 54.992188 49.664062 54.773438 C 49.136719 54.554688 48.636719 54.285156 48.164062 53.96875 C 47.691406 53.652344 47.25 53.289062 46.847656 52.886719 C 46.445312 52.484375 46.085938 52.046875 45.765625 51.570312 C 45.449219 51.097656 45.183594 50.597656 44.964844 50.070312 C 44.746094 49.546875 44.578125 49.003906 44.464844 48.445312 C 44.355469 47.886719 44.296875 47.324219 44.296875 46.753906 C 44.296875 46.183594 44.351562 45.621094 44.460938 45.0625 C 44.570312 44.503906 44.734375 43.964844 44.949219 43.4375 C 45.167969 42.914062 45.433594 42.414062 45.746094 41.941406 C 46.0625 41.46875 46.421875 41.03125 46.824219 40.628906 C 47.222656 40.230469 47.660156 39.871094 48.132812 39.554688 C 48.605469 39.238281 49.105469 38.972656 49.628906 38.757812 C 50.15625 38.539062 50.695312 38.378906 51.253906 38.265625 C 51.8125 38.15625 52.375 38.101562 52.945312 38.105469 L 55.695312 38.109375 L 55.691406 37.621094 L 52.945312 37.617188 C 51.730469 37.609375 50.5625 37.839844 49.441406 38.300781 C 48.320312 38.761719 47.332031 39.425781 46.480469 40.285156 Z M 50.792969 44.597656 C 50.359375 45.035156 50.082031 45.558594 49.960938 46.164062 C 49.839844 46.769531 49.902344 47.359375 50.140625 47.933594 C 50.375 48.503906 50.753906 48.964844 51.269531 49.308594 C 51.785156 49.652344 52.351562 49.828125 52.96875 49.828125 L 52.96875 49.339844 C 52.628906 49.339844 52.300781 49.273438 51.984375 49.144531 C 51.667969 49.011719 51.390625 48.824219 51.148438 48.585938 C 50.90625 48.34375 50.71875 48.0625 50.589844 47.746094 C 50.457031 47.433594 50.390625 47.105469 50.390625 46.761719 C 50.390625 46.421875 50.453125 46.09375 50.582031 45.777344 C 50.714844 45.464844 50.898438 45.183594 51.140625 44.945312 C 51.378906 44.703125 51.660156 44.519531 51.972656 44.386719 C 52.289062 44.257812 52.617188 44.195312 52.957031 44.195312 L 55.714844 44.203125 L 55.710938 43.71875 L 52.957031 43.710938 C 52.113281 43.707031 51.390625 44.003906 50.796875 44.601562 Z M 47.339844 41.144531 C 46.785156 41.699219 46.324219 42.320312 45.957031 43.011719 C 45.589844 43.703125 45.328125 44.433594 45.175781 45.203125 C 45.023438 45.972656 44.988281 46.75 45.066406 47.53125 C 45.144531 48.3125 45.335938 49.066406 45.636719 49.792969 C 45.9375 50.515625 46.339844 51.183594 46.839844 51.792969 C 47.339844 52.398438 47.914062 52.921875 48.570312 53.359375 C 49.222656 53.796875 49.925781 54.128906 50.675781 54.359375 C 51.429688 54.589844 52.195312 54.703125 52.980469 54.703125 L 52.980469 54.21875 C 52.496094 54.210938 52.011719 54.160156 51.535156 54.058594 C 51.058594 53.960938 50.597656 53.816406 50.148438 53.625 C 49.699219 53.4375 49.273438 53.203125 48.871094 52.929688 C 48.46875 52.65625 48.09375 52.347656 47.753906 52.003906 C 47.410156 51.65625 47.101562 51.28125 46.832031 50.875 C 46.5625 50.46875 46.335938 50.039062 46.148438 49.589844 C 45.964844 49.140625 45.824219 48.675781 45.726562 48.199219 C 45.632812 47.722656 45.585938 47.242188 45.582031 46.753906 C 45.582031 46.269531 45.628906 45.785156 45.722656 45.308594 C 45.816406 44.832031 45.953125 44.371094 46.136719 43.921875 C 46.320312 43.472656 46.546875 43.042969 46.816406 42.640625 C 47.085938 42.234375 47.390625 41.859375 47.730469 41.515625 C 48.070312 41.171875 48.445312 40.863281 48.847656 40.589844 C 49.25 40.320312 49.671875 40.089844 50.121094 39.902344 C 50.570312 39.714844 51.03125 39.570312 51.507812 39.472656 C 51.984375 39.375 52.464844 39.324219 52.949219 39.320312 L 55.699219 39.328125 L 55.695312 38.839844 L 52.949219 38.835938 C 51.894531 38.828125 50.882812 39.027344 49.910156 39.429688 C 48.941406 39.828125 48.082031 40.402344 47.34375 41.148438 Z M 42.59375 46.746094 C 42.59375 47.429688 42.664062 48.101562 42.796875 48.773438 C 42.929688 49.441406 43.128906 50.089844 43.390625 50.71875 C 43.652344 51.347656 43.972656 51.945312 44.351562 52.515625 C 44.730469 53.082031 45.164062 53.605469 45.644531 54.089844 C 46.128906 54.570312 46.652344 55.003906 47.21875 55.382812 C 47.789062 55.761719 48.386719 56.082031 49.015625 56.34375 C 49.644531 56.605469 50.292969 56.804688 50.964844 56.9375 C 51.632812 57.074219 52.304688 57.140625 52.988281 57.140625 L 52.984375 56.65625 C 52.335938 56.652344 51.695312 56.589844 51.058594 56.460938 C 50.417969 56.332031 49.800781 56.144531 49.199219 55.894531 C 48.601562 55.644531 48.03125 55.339844 47.488281 54.976562 C 46.949219 54.617188 46.449219 54.207031 45.988281 53.746094 C 45.53125 53.285156 45.117188 52.785156 44.757812 52.246094 C 44.394531 51.703125 44.089844 51.132812 43.839844 50.535156 C 43.589844 49.933594 43.402344 49.316406 43.273438 48.679688 C 43.144531 48.042969 43.082031 47.398438 43.078125 46.75 C 43.078125 46.101562 43.140625 45.457031 43.265625 44.820312 C 43.390625 44.183594 43.578125 43.566406 43.824219 42.96875 C 44.070312 42.367188 44.375 41.800781 44.734375 41.261719 C 45.09375 40.722656 45.503906 40.222656 45.960938 39.765625 C 46.417969 39.308594 46.917969 38.898438 47.457031 38.539062 C 47.996094 38.179688 48.5625 37.875 49.164062 37.628906 C 49.761719 37.382812 50.378906 37.195312 51.015625 37.070312 C 51.652344 36.945312 52.296875 36.882812 52.945312 36.882812 L 55.6875 36.890625 L 55.6875 36.402344 L 52.945312 36.398438 C 52.261719 36.394531 51.589844 36.460938 50.921875 36.59375 C 50.253906 36.722656 49.605469 36.917969 48.976562 37.179688 C 48.347656 37.4375 47.75 37.757812 47.183594 38.132812 C 46.621094 38.511719 46.097656 38.9375 45.617188 39.421875 C 45.136719 39.902344 44.707031 40.421875 44.328125 40.988281 C 43.953125 41.554688 43.632812 42.152344 43.375 42.78125 C 43.113281 43.410156 42.917969 44.058594 42.789062 44.726562 C 42.65625 45.390625 42.589844 46.066406 42.59375 46.746094 Z M 42.59375 46.746094 " clip-rule="nonzero"/></clipPath><linearGradient x1="-4011.416283" gradientTransform="matrix(0.0642618, 0.00013426, 0.00013426, 0.0642618, 299.928787, -185.277091)" y1="3456.587999" x2="-3758.997987" gradientUnits="userSpaceOnUse" y2="3737.051841" id="id5"><stop stop-opacity="1" stop-color="rgb(63.09967%, 0%, 92.89856%)" offset="0"/><stop stop-opacity="1" stop-color="rgb(63.09967%, 0%, 92.89856%)" offset="0.25"/><stop stop-opacity="1" stop-color="rgb(63.09967%, 0%, 92.89856%)" offset="0.363201"/><stop stop-opacity="1" stop-color="rgb(63.09967%, 0%, 92.89856%)" offset="0.375"/><stop stop-opacity="1" stop-color="rgb(63.09967%, 0%, 92.89856%)" offset="0.4375"/><stop stop-opacity="1" stop-color="rgb(62.991333%, 0.0366211%, 92.910767%)" offset="0.46875"/><stop stop-opacity="1" stop-color="rgb(61.737061%, 0.474548%, 93.051147%)" offset="0.472656"/><stop stop-opacity="1" stop-color="rgb(60.591125%, 0.874329%, 93.180847%)" offset="0.476562"/><stop stop-opacity="1" stop-color="rgb(59.44519%, 1.272583%, 93.309021%)" offset="0.480469"/><stop stop-opacity="1" stop-color="rgb(58.299255%, 1.672363%, 93.438721%)" offset="0.484375"/><stop stop-opacity="1" stop-color="rgb(57.151794%, 2.072144%, 93.56842%)" offset="0.488281"/><stop stop-opacity="1" stop-color="rgb(56.005859%, 2.471924%, 93.69812%)" offset="0.492187"/><stop stop-opacity="1" stop-color="rgb(54.858398%, 2.871704%, 93.826294%)" offset="0.496094"/><stop stop-opacity="1" stop-color="rgb(53.712463%, 3.271484%, 93.955994%)" offset="0.5"/><stop stop-opacity="1" stop-color="rgb(52.566528%, 3.671265%, 94.084167%)" offset="0.503906"/><stop stop-opacity="1" stop-color="rgb(51.420593%, 4.071045%, 94.213867%)" offset="0.507812"/><stop stop-opacity="1" stop-color="rgb(50.273132%, 4.470825%, 94.342041%)" offset="0.511719"/><stop stop-opacity="1" stop-color="rgb(49.127197%, 4.870605%, 94.471741%)" offset="0.515625"/><stop stop-opacity="1" stop-color="rgb(47.979736%, 5.270386%, 94.599915%)" offset="0.519531"/><stop stop-opacity="1" stop-color="rgb(46.833801%, 5.670166%, 94.729614%)" offset="0.523438"/><stop stop-opacity="1" stop-color="rgb(45.687866%, 6.069946%, 94.857788%)" offset="0.527344"/><stop stop-opacity="1" stop-color="rgb(44.541931%, 6.469727%, 94.987488%)" offset="0.53125"/><stop stop-opacity="1" stop-color="rgb(43.39447%, 6.869507%, 95.115662%)" offset="0.535156"/><stop stop-opacity="1" stop-color="rgb(42.248535%, 7.269287%, 95.245361%)" offset="0.539062"/><stop stop-opacity="1" stop-color="rgb(41.101074%, 7.669067%, 95.373535%)" offset="0.542969"/><stop stop-opacity="1" stop-color="rgb(39.955139%, 8.068848%, 95.503235%)" offset="0.546875"/><stop stop-opacity="1" stop-color="rgb(38.809204%, 8.468628%, 95.631409%)" offset="0.550781"/><stop stop-opacity="1" stop-color="rgb(37.663269%, 8.868408%, 95.761108%)" offset="0.554688"/><stop stop-opacity="1" stop-color="rgb(36.515808%, 9.266663%, 95.889282%)" offset="0.558594"/><stop stop-opacity="1" stop-color="rgb(35.369873%, 9.666443%, 96.018982%)" offset="0.5625"/><stop stop-opacity="1" stop-color="rgb(34.222412%, 10.066223%, 96.147156%)" offset="0.566406"/><stop stop-opacity="1" stop-color="rgb(33.076477%, 10.466003%, 96.276855%)" offset="0.570312"/><stop stop-opacity="1" stop-color="rgb(31.930542%, 10.865784%, 96.405029%)" offset="0.574219"/><stop stop-opacity="1" stop-color="rgb(30.784607%, 11.265564%, 96.534729%)" offset="0.578125"/><stop stop-opacity="1" stop-color="rgb(29.637146%, 11.665344%, 96.662903%)" offset="0.582031"/><stop stop-opacity="1" stop-color="rgb(28.491211%, 12.065125%, 96.792603%)" offset="0.585937"/><stop stop-opacity="1" stop-color="rgb(27.34375%, 12.464905%, 96.922302%)" offset="0.589844"/><stop stop-opacity="1" stop-color="rgb(26.197815%, 12.864685%, 97.052002%)" offset="0.59375"/><stop stop-opacity="1" stop-color="rgb(25.05188%, 13.264465%, 97.180176%)" offset="0.597656"/><stop stop-opacity="1" stop-color="rgb(23.905945%, 13.664246%, 97.309875%)" offset="0.601562"/><stop stop-opacity="1" stop-color="rgb(22.758484%, 14.064026%, 97.438049%)" offset="0.605469"/><stop stop-opacity="1" stop-color="rgb(21.612549%, 14.463806%, 97.567749%)" offset="0.609375"/><stop stop-opacity="1" stop-color="rgb(20.465088%, 14.863586%, 97.695923%)" offset="0.613281"/><stop stop-opacity="1" stop-color="rgb(19.319153%, 15.263367%, 97.825623%)" offset="0.617187"/><stop stop-opacity="1" stop-color="rgb(18.173218%, 15.663147%, 97.953796%)" offset="0.621094"/><stop stop-opacity="1" stop-color="rgb(17.027283%, 16.062927%, 98.083496%)" offset="0.625"/><stop stop-opacity="1" stop-color="rgb(15.879822%, 16.462708%, 98.21167%)" offset="0.628906"/><stop stop-opacity="1" stop-color="rgb(14.733887%, 16.862488%, 98.34137%)" offset="0.632812"/><stop stop-opacity="1" stop-color="rgb(13.586426%, 17.262268%, 98.469543%)" offset="0.636719"/><stop stop-opacity="1" stop-color="rgb(12.440491%, 17.662048%, 98.599243%)" offset="0.640625"/><stop stop-opacity="1" stop-color="rgb(11.294556%, 18.060303%, 98.727417%)" offset="0.644531"/><stop stop-opacity="1" stop-color="rgb(10.148621%, 18.460083%, 98.857117%)" offset="0.648437"/><stop stop-opacity="1" stop-color="rgb(9.00116%, 18.859863%, 98.985291%)" offset="0.652344"/><stop stop-opacity="1" stop-color="rgb(7.855225%, 19.259644%, 99.11499%)" offset="0.65625"/><stop stop-opacity="1" stop-color="rgb(6.707764%, 19.659424%, 99.243164%)" offset="0.660156"/><stop stop-opacity="1" stop-color="rgb(5.561829%, 20.059204%, 99.372864%)" offset="0.664062"/><stop stop-opacity="1" stop-color="rgb(4.415894%, 20.458984%, 99.501038%)" offset="0.667969"/><stop stop-opacity="1" stop-color="rgb(3.269958%, 20.858765%, 99.630737%)" offset="0.671875"/><stop stop-opacity="1" stop-color="rgb(2.122498%, 21.258545%, 99.758911%)" offset="0.675781"/><stop stop-opacity="1" stop-color="rgb(0.976562%, 21.658325%, 99.888611%)" offset="0.679687"/><stop stop-opacity="1" stop-color="rgb(0.488281%, 21.827698%, 99.943542%)" offset="0.683594"/><stop stop-opacity="1" stop-color="rgb(0%, 21.998596%, 100%)" offset="0.6875"/><stop stop-opacity="1" stop-color="rgb(0%, 21.998596%, 100%)" offset="0.75"/><stop stop-opacity="1" stop-color="rgb(0%, 21.998596%, 100%)" offset="1"/></linearGradient><clipPath id="id6"><path d="M 62 36 L 74 36 L 74 45 L 62 45 Z M 62 36 " clip-rule="nonzero"/></clipPath><clipPath id="id7"><path d="M 66.882812 48.316406 L 58.859375 40.296875 L 66.445312 32.710938 L 74.46875 40.730469 Z M 66.882812 48.316406 " clip-rule="nonzero"/></clipPath><clipPath id="id8"><path d="M 66.882812 48.316406 L 58.859375 40.296875 L 66.445312 32.710938 L 74.46875 40.730469 Z M 66.882812 48.316406 " clip-rule="nonzero"/></clipPath><clipPath id="id9"><path d="M 68.648438 41.273438 L 62.773438 41.28125 L 62.773438 41.765625 L 68.648438 41.761719 Z M 62.773438 36.882812 L 66.894531 36.878906 L 66.894531 36.390625 L 62.773438 36.394531 Z M 62.773438 38.101562 L 69.738281 38.097656 L 69.738281 37.609375 L 62.773438 37.613281 Z M 62.773438 43.722656 L 62.773438 44.207031 L 70.652344 44.199219 L 70.652344 43.714844 Z M 62.773438 42.988281 L 72.207031 42.980469 L 72.207031 42.492188 L 62.773438 42.5 Z M 62.769531 39.328125 L 71.832031 39.316406 L 71.832031 38.828125 L 62.773438 38.835938 Z M 62.773438 40.546875 L 73.78125 40.535156 L 73.785156 40.046875 L 62.773438 40.058594 Z M 62.773438 40.546875 " clip-rule="nonzero"/></clipPath><linearGradient x1="-3630.199489" gradientTransform="matrix(0.0643779, -0.0000661872, -0.0000661872, 0.0643779, 296.683898, -166.946332)" y1="3215.53" x2="-3459.001672" gradientUnits="userSpaceOnUse" y2="3215.53" id="id10"><stop stop-opacity="1" stop-color="rgb(54.899597%, 0%, 92.89856%)" offset="0"/><stop stop-opacity="1" stop-color="rgb(55.038452%, 0.344849%, 92.875671%)" offset="0.00390625"/><stop stop-opacity="1" stop-color="rgb(55.177307%, 0.691223%, 92.854309%)" offset="0.0078125"/><stop stop-opacity="1" stop-color="rgb(55.317688%, 1.042175%, 92.831421%)" offset="0.0117188"/><stop stop-opacity="1" stop-color="rgb(55.459595%, 1.393127%, 92.808533%)" offset="0.015625"/><stop stop-opacity="1" stop-color="rgb(55.599976%, 1.74408%, 92.785645%)" offset="0.0195312"/><stop stop-opacity="1" stop-color="rgb(55.741882%, 2.095032%, 92.764282%)" offset="0.0234375"/><stop stop-opacity="1" stop-color="rgb(55.882263%, 2.445984%, 92.741394%)" offset="0.0273438"/><stop stop-opacity="1" stop-color="rgb(56.02417%, 2.796936%, 92.718506%)" offset="0.03125"/><stop stop-opacity="1" stop-color="rgb(56.164551%, 3.147888%, 92.695618%)" offset="0.0351562"/><stop stop-opacity="1" stop-color="rgb(56.306458%, 3.49884%, 92.672729%)" offset="0.0390625"/><stop stop-opacity="1" stop-color="rgb(56.446838%, 3.849792%, 92.649841%)" offset="0.0429687"/><stop stop-opacity="1" stop-color="rgb(56.588745%, 4.200745%, 92.628479%)" offset="0.046875"/><stop stop-opacity="1" stop-color="rgb(56.729126%, 4.551697%, 92.605591%)" offset="0.0507812"/><stop stop-opacity="1" stop-color="rgb(56.871033%, 4.902649%, 92.582703%)" offset="0.0546875"/><stop stop-opacity="1" stop-color="rgb(57.011414%, 5.253601%, 92.559814%)" offset="0.0585938"/><stop stop-opacity="1" stop-color="rgb(57.15332%, 5.604553%, 92.536926%)" offset="0.0625"/><stop stop-opacity="1" stop-color="rgb(57.293701%, 5.955505%, 92.514038%)" offset="0.0664062"/><stop stop-opacity="1" stop-color="rgb(57.434082%, 6.306458%, 92.49115%)" offset="0.0703125"/><stop stop-opacity="1" stop-color="rgb(57.574463%, 6.65741%, 92.468262%)" offset="0.0742188"/><stop stop-opacity="1" stop-color="rgb(57.71637%, 7.008362%, 92.446899%)" offset="0.078125"/><stop stop-opacity="1" stop-color="rgb(57.85675%, 7.359314%, 92.424011%)" offset="0.0820312"/><stop stop-opacity="1" stop-color="rgb(57.998657%, 7.710266%, 92.401123%)" offset="0.0859375"/><stop stop-opacity="1" stop-color="rgb(58.139038%, 8.061218%, 92.378235%)" offset="0.0898438"/><stop stop-opacity="1" stop-color="rgb(58.280945%, 8.41217%, 92.355347%)" offset="0.09375"/><stop stop-opacity="1" stop-color="rgb(58.421326%, 8.763123%, 92.332458%)" offset="0.0976563"/><stop stop-opacity="1" stop-color="rgb(58.563232%, 9.114075%, 92.311096%)" offset="0.101563"/><stop stop-opacity="1" stop-color="rgb(58.703613%, 9.465027%, 92.288208%)" offset="0.105469"/><stop stop-opacity="1" stop-color="rgb(58.84552%, 9.815979%, 92.26532%)" offset="0.109375"/><stop stop-opacity="1" stop-color="rgb(58.985901%, 10.166931%, 92.242432%)" offset="0.113281"/><stop stop-opacity="1" stop-color="rgb(59.127808%, 10.517883%, 92.219543%)" offset="0.117188"/><stop stop-opacity="1" stop-color="rgb(59.268188%, 10.868835%, 92.196655%)" offset="0.121094"/><stop stop-opacity="1" stop-color="rgb(59.410095%, 11.219788%, 92.173767%)" offset="0.125"/><stop stop-opacity="1" stop-color="rgb(59.550476%, 11.57074%, 92.150879%)" offset="0.128906"/><stop stop-opacity="1" stop-color="rgb(59.692383%, 11.921692%, 92.129517%)" offset="0.132812"/><stop stop-opacity="1" stop-color="rgb(59.832764%, 12.272644%, 92.106628%)" offset="0.136719"/><stop stop-opacity="1" stop-color="rgb(59.97467%, 12.623596%, 92.08374%)" offset="0.140625"/><stop stop-opacity="1" stop-color="rgb(60.115051%, 12.974548%, 92.060852%)" offset="0.144531"/><stop stop-opacity="1" stop-color="rgb(60.256958%, 13.327026%, 92.037964%)" offset="0.148437"/><stop stop-opacity="1" stop-color="rgb(60.397339%, 13.677979%, 92.015076%)" offset="0.152344"/><stop stop-opacity="1" stop-color="rgb(60.539246%, 14.028931%, 91.993713%)" offset="0.15625"/><stop stop-opacity="1" stop-color="rgb(60.679626%, 14.379883%, 91.970825%)" offset="0.160156"/><stop stop-opacity="1" stop-color="rgb(60.821533%, 14.730835%, 91.947937%)" offset="0.164062"/><stop stop-opacity="1" stop-color="rgb(60.961914%, 15.081787%, 91.925049%)" offset="0.167969"/><stop stop-opacity="1" stop-color="rgb(61.103821%, 15.432739%, 91.902161%)" offset="0.171875"/><stop stop-opacity="1" stop-color="rgb(61.244202%, 15.783691%, 91.879272%)" offset="0.175781"/><stop stop-opacity="1" stop-color="rgb(61.386108%, 16.134644%, 91.856384%)" offset="0.179687"/><stop stop-opacity="1" stop-color="rgb(61.526489%, 16.485596%, 91.833496%)" offset="0.183594"/><stop stop-opacity="1" stop-color="rgb(61.668396%, 16.836548%, 91.812134%)" offset="0.1875"/><stop stop-opacity="1" stop-color="rgb(61.808777%, 17.1875%, 91.789246%)" offset="0.191406"/><stop stop-opacity="1" stop-color="rgb(61.950684%, 17.538452%, 91.766357%)" offset="0.195312"/><stop stop-opacity="1" stop-color="rgb(62.091064%, 17.889404%, 91.743469%)" offset="0.199219"/><stop stop-opacity="1" stop-color="rgb(62.231445%, 18.240356%, 91.720581%)" offset="0.203125"/><stop stop-opacity="1" stop-color="rgb(62.371826%, 18.591309%, 91.697693%)" offset="0.207031"/><stop stop-opacity="1" stop-color="rgb(62.513733%, 18.942261%, 91.676331%)" offset="0.210937"/><stop stop-opacity="1" stop-color="rgb(62.654114%, 19.293213%, 91.653442%)" offset="0.214844"/><stop stop-opacity="1" stop-color="rgb(62.796021%, 19.644165%, 91.630554%)" offset="0.21875"/><stop stop-opacity="1" stop-color="rgb(62.936401%, 19.995117%, 91.607666%)" offset="0.222656"/><stop stop-opacity="1" stop-color="rgb(63.078308%, 20.346069%, 91.584778%)" offset="0.226562"/><stop stop-opacity="1" stop-color="rgb(63.218689%, 20.697021%, 91.56189%)" offset="0.230469"/><stop stop-opacity="1" stop-color="rgb(63.360596%, 21.047974%, 91.539001%)" offset="0.234375"/><stop stop-opacity="1" stop-color="rgb(63.500977%, 21.398926%, 91.516113%)" offset="0.238281"/><stop stop-opacity="1" stop-color="rgb(63.642883%, 21.749878%, 91.494751%)" offset="0.242187"/><stop stop-opacity="1" stop-color="rgb(63.783264%, 22.10083%, 91.471863%)" offset="0.246094"/><stop stop-opacity="1" stop-color="rgb(63.925171%, 22.451782%, 91.448975%)" offset="0.25"/><stop stop-opacity="1" stop-color="rgb(64.065552%, 22.802734%, 91.426086%)" offset="0.253906"/><stop stop-opacity="1" stop-color="rgb(64.207458%, 23.153687%, 91.403198%)" offset="0.257812"/><stop stop-opacity="1" stop-color="rgb(64.347839%, 23.504639%, 91.38031%)" offset="0.261719"/><stop stop-opacity="1" stop-color="rgb(64.489746%, 23.855591%, 91.358948%)" offset="0.265625"/><stop stop-opacity="1" stop-color="rgb(64.630127%, 24.206543%, 91.33606%)" offset="0.269531"/><stop stop-opacity="1" stop-color="rgb(64.772034%, 24.557495%, 91.313171%)" offset="0.273437"/><stop stop-opacity="1" stop-color="rgb(64.912415%, 24.908447%, 91.290283%)" offset="0.277344"/><stop stop-opacity="1" stop-color="rgb(65.054321%, 25.259399%, 91.267395%)" offset="0.28125"/><stop stop-opacity="1" stop-color="rgb(65.194702%, 25.610352%, 91.244507%)" offset="0.285156"/><stop stop-opacity="1" stop-color="rgb(65.336609%, 25.961304%, 91.221619%)" offset="0.289062"/><stop stop-opacity="1" stop-color="rgb(65.47699%, 26.312256%, 91.19873%)" offset="0.292969"/><stop stop-opacity="1" stop-color="rgb(65.618896%, 26.663208%, 91.177368%)" offset="0.296875"/><stop stop-opacity="1" stop-color="rgb(65.759277%, 27.01416%, 91.15448%)" offset="0.300781"/><stop stop-opacity="1" stop-color="rgb(65.901184%, 27.365112%, 91.131592%)" offset="0.304687"/><stop stop-opacity="1" stop-color="rgb(66.041565%, 27.716064%, 91.108704%)" offset="0.308594"/><stop stop-opacity="1" stop-color="rgb(66.183472%, 28.067017%, 91.085815%)" offset="0.3125"/><stop stop-opacity="1" stop-color="rgb(66.323853%, 28.417969%, 91.062927%)" offset="0.316406"/><stop stop-opacity="1" stop-color="rgb(66.465759%, 28.768921%, 91.041565%)" offset="0.320312"/><stop stop-opacity="1" stop-color="rgb(66.60614%, 29.119873%, 91.018677%)" offset="0.324219"/><stop stop-opacity="1" stop-color="rgb(66.746521%, 29.470825%, 90.995789%)" offset="0.328125"/><stop stop-opacity="1" stop-color="rgb(66.886902%, 29.821777%, 90.9729%)" offset="0.332031"/><stop stop-opacity="1" stop-color="rgb(67.028809%, 30.172729%, 90.950012%)" offset="0.335937"/><stop stop-opacity="1" stop-color="rgb(67.169189%, 30.523682%, 90.927124%)" offset="0.339844"/><stop stop-opacity="1" stop-color="rgb(67.311096%, 30.874634%, 90.905762%)" offset="0.34375"/><stop stop-opacity="1" stop-color="rgb(67.451477%, 31.225586%, 90.882874%)" offset="0.347656"/><stop stop-opacity="1" stop-color="rgb(67.593384%, 31.578064%, 90.859985%)" offset="0.351562"/><stop stop-opacity="1" stop-color="rgb(67.733765%, 31.929016%, 90.837097%)" offset="0.355469"/><stop stop-opacity="1" stop-color="rgb(67.875671%, 32.279968%, 90.814209%)" offset="0.359375"/><stop stop-opacity="1" stop-color="rgb(68.016052%, 32.63092%, 90.791321%)" offset="0.363281"/><stop stop-opacity="1" stop-color="rgb(68.157959%, 32.981873%, 90.768433%)" offset="0.367187"/><stop stop-opacity="1" stop-color="rgb(68.29834%, 33.332825%, 90.745544%)" offset="0.371094"/><stop stop-opacity="1" stop-color="rgb(68.440247%, 33.683777%, 90.724182%)" offset="0.375"/><stop stop-opacity="1" stop-color="rgb(68.580627%, 34.034729%, 90.701294%)" offset="0.378906"/><stop stop-opacity="1" stop-color="rgb(68.722534%, 34.385681%, 90.678406%)" offset="0.382812"/><stop stop-opacity="1" stop-color="rgb(68.862915%, 34.736633%, 90.655518%)" offset="0.386719"/><stop stop-opacity="1" stop-color="rgb(69.004822%, 35.087585%, 90.632629%)" offset="0.390625"/><stop stop-opacity="1" stop-color="rgb(69.145203%, 35.438538%, 90.609741%)" offset="0.394531"/><stop stop-opacity="1" stop-color="rgb(69.287109%, 35.78949%, 90.588379%)" offset="0.398438"/><stop stop-opacity="1" stop-color="rgb(69.42749%, 36.140442%, 90.565491%)" offset="0.402344"/><stop stop-opacity="1" stop-color="rgb(69.569397%, 36.491394%, 90.542603%)" offset="0.40625"/><stop stop-opacity="1" stop-color="rgb(69.709778%, 36.842346%, 90.519714%)" offset="0.410156"/><stop stop-opacity="1" stop-color="rgb(69.851685%, 37.193298%, 90.496826%)" offset="0.414062"/><stop stop-opacity="1" stop-color="rgb(69.992065%, 37.54425%, 90.473938%)" offset="0.417969"/><stop stop-opacity="1" stop-color="rgb(70.133972%, 37.895203%, 90.45105%)" offset="0.421875"/><stop stop-opacity="1" stop-color="rgb(70.274353%, 38.246155%, 90.428162%)" offset="0.425781"/><stop stop-opacity="1" stop-color="rgb(70.41626%, 38.597107%, 90.406799%)" offset="0.429688"/><stop stop-opacity="1" stop-color="rgb(70.556641%, 38.948059%, 90.383911%)" offset="0.433594"/><stop stop-opacity="1" stop-color="rgb(70.698547%, 39.299011%, 90.361023%)" offset="0.4375"/><stop stop-opacity="1" stop-color="rgb(70.838928%, 39.649963%, 90.338135%)" offset="0.441406"/><stop stop-opacity="1" stop-color="rgb(70.980835%, 40.000916%, 90.315247%)" offset="0.445312"/><stop stop-opacity="1" stop-color="rgb(71.121216%, 40.351868%, 90.292358%)" offset="0.449219"/><stop stop-opacity="1" stop-color="rgb(71.261597%, 40.70282%, 90.270996%)" offset="0.453125"/><stop stop-opacity="1" stop-color="rgb(71.401978%, 41.053772%, 90.248108%)" offset="0.457031"/><stop stop-opacity="1" stop-color="rgb(71.543884%, 41.404724%, 90.22522%)" offset="0.460938"/><stop stop-opacity="1" stop-color="rgb(71.684265%, 41.755676%, 90.202332%)" offset="0.464844"/><stop stop-opacity="1" stop-color="rgb(71.826172%, 42.106628%, 90.179443%)" offset="0.46875"/><stop stop-opacity="1" stop-color="rgb(71.966553%, 42.457581%, 90.156555%)" offset="0.472656"/><stop stop-opacity="1" stop-color="rgb(72.108459%, 42.808533%, 90.133667%)" offset="0.476562"/><stop stop-opacity="1" stop-color="rgb(72.24884%, 43.159485%, 90.110779%)" offset="0.480469"/><stop stop-opacity="1" stop-color="rgb(72.390747%, 43.510437%, 90.089417%)" offset="0.484375"/><stop stop-opacity="1" stop-color="rgb(72.531128%, 43.861389%, 90.066528%)" offset="0.488281"/><stop stop-opacity="1" stop-color="rgb(72.673035%, 44.212341%, 90.04364%)" offset="0.492188"/><stop stop-opacity="1" stop-color="rgb(72.813416%, 44.563293%, 90.020752%)" offset="0.496094"/><stop stop-opacity="1" stop-color="rgb(72.955322%, 44.914246%, 89.997864%)" offset="0.5"/><stop stop-opacity="1" stop-color="rgb(73.095703%, 45.265198%, 89.974976%)" offset="0.503906"/><stop stop-opacity="1" stop-color="rgb(73.23761%, 45.61615%, 89.953613%)" offset="0.507812"/><stop stop-opacity="1" stop-color="rgb(73.377991%, 45.967102%, 89.930725%)" offset="0.511719"/><stop stop-opacity="1" stop-color="rgb(73.519897%, 46.318054%, 89.907837%)" offset="0.515625"/><stop stop-opacity="1" stop-color="rgb(73.660278%, 46.669006%, 89.884949%)" offset="0.519531"/><stop stop-opacity="1" stop-color="rgb(73.802185%, 47.019958%, 89.862061%)" offset="0.523437"/><stop stop-opacity="1" stop-color="rgb(73.942566%, 47.370911%, 89.839172%)" offset="0.527344"/><stop stop-opacity="1" stop-color="rgb(74.084473%, 47.721863%, 89.816284%)" offset="0.53125"/><stop stop-opacity="1" stop-color="rgb(74.224854%, 48.072815%, 89.793396%)" offset="0.535156"/><stop stop-opacity="1" stop-color="rgb(74.36676%, 48.423767%, 89.772034%)" offset="0.539062"/><stop stop-opacity="1" stop-color="rgb(74.507141%, 48.774719%, 89.749146%)" offset="0.542969"/><stop stop-opacity="1" stop-color="rgb(74.649048%, 49.127197%, 89.726257%)" offset="0.546875"/><stop stop-opacity="1" stop-color="rgb(74.789429%, 49.478149%, 89.703369%)" offset="0.550781"/><stop stop-opacity="1" stop-color="rgb(74.931335%, 49.829102%, 89.680481%)" offset="0.554687"/><stop stop-opacity="1" stop-color="rgb(75.071716%, 50.180054%, 89.657593%)" offset="0.558594"/><stop stop-opacity="1" stop-color="rgb(75.213623%, 50.531006%, 89.63623%)" offset="0.5625"/><stop stop-opacity="1" stop-color="rgb(75.354004%, 50.881958%, 89.613342%)" offset="0.566406"/><stop stop-opacity="1" stop-color="rgb(75.495911%, 51.23291%, 89.590454%)" offset="0.570312"/><stop stop-opacity="1" stop-color="rgb(75.636292%, 51.583862%, 89.567566%)" offset="0.574219"/><stop stop-opacity="1" stop-color="rgb(75.776672%, 51.934814%, 89.544678%)" offset="0.578125"/><stop stop-opacity="1" stop-color="rgb(75.917053%, 52.285767%, 89.52179%)" offset="0.582031"/><stop stop-opacity="1" stop-color="rgb(76.05896%, 52.636719%, 89.498901%)" offset="0.585937"/><stop stop-opacity="1" stop-color="rgb(76.199341%, 52.987671%, 89.476013%)" offset="0.589844"/><stop stop-opacity="1" stop-color="rgb(76.341248%, 53.338623%, 89.454651%)" offset="0.59375"/><stop stop-opacity="1" stop-color="rgb(76.481628%, 53.689575%, 89.431763%)" offset="0.597656"/><stop stop-opacity="1" stop-color="rgb(76.623535%, 54.040527%, 89.408875%)" offset="0.601562"/><stop stop-opacity="1" stop-color="rgb(76.763916%, 54.391479%, 89.385986%)" offset="0.605469"/><stop stop-opacity="1" stop-color="rgb(76.905823%, 54.742432%, 89.363098%)" offset="0.609375"/><stop stop-opacity="1" stop-color="rgb(77.046204%, 55.093384%, 89.34021%)" offset="0.613281"/><stop stop-opacity="1" stop-color="rgb(77.18811%, 55.444336%, 89.318848%)" offset="0.617187"/><stop stop-opacity="1" stop-color="rgb(77.328491%, 55.795288%, 89.295959%)" offset="0.621094"/><stop stop-opacity="1" stop-color="rgb(77.470398%, 56.14624%, 89.273071%)" offset="0.625"/><stop stop-opacity="1" stop-color="rgb(77.610779%, 56.497192%, 89.250183%)" offset="0.628906"/><stop stop-opacity="1" stop-color="rgb(77.752686%, 56.848145%, 89.227295%)" offset="0.632812"/><stop stop-opacity="1" stop-color="rgb(77.893066%, 57.199097%, 89.204407%)" offset="0.636719"/><stop stop-opacity="1" stop-color="rgb(78.034973%, 57.550049%, 89.181519%)" offset="0.640625"/><stop stop-opacity="1" stop-color="rgb(78.175354%, 57.901001%, 89.15863%)" offset="0.644531"/><stop stop-opacity="1" stop-color="rgb(78.317261%, 58.251953%, 89.137268%)" offset="0.648437"/><stop stop-opacity="1" stop-color="rgb(78.457642%, 58.602905%, 89.11438%)" offset="0.652344"/><stop stop-opacity="1" stop-color="rgb(78.599548%, 58.953857%, 89.091492%)" offset="0.65625"/><stop stop-opacity="1" stop-color="rgb(78.739929%, 59.30481%, 89.068604%)" offset="0.660156"/><stop stop-opacity="1" stop-color="rgb(78.881836%, 59.655762%, 89.045715%)" offset="0.664062"/><stop stop-opacity="1" stop-color="rgb(79.022217%, 60.006714%, 89.022827%)" offset="0.667969"/><stop stop-opacity="1" stop-color="rgb(79.164124%, 60.357666%, 89.001465%)" offset="0.671875"/><stop stop-opacity="1" stop-color="rgb(79.304504%, 60.708618%, 88.978577%)" offset="0.675781"/><stop stop-opacity="1" stop-color="rgb(79.446411%, 61.05957%, 88.955688%)" offset="0.679687"/><stop stop-opacity="1" stop-color="rgb(79.586792%, 61.410522%, 88.9328%)" offset="0.683594"/><stop stop-opacity="1" stop-color="rgb(79.728699%, 61.761475%, 88.909912%)" offset="0.6875"/><stop stop-opacity="1" stop-color="rgb(79.86908%, 62.112427%, 88.887024%)" offset="0.691406"/><stop stop-opacity="1" stop-color="rgb(80.010986%, 62.463379%, 88.864136%)" offset="0.695312"/><stop stop-opacity="1" stop-color="rgb(80.151367%, 62.814331%, 88.841248%)" offset="0.699219"/><stop stop-opacity="1" stop-color="rgb(80.291748%, 63.165283%, 88.819885%)" offset="0.703125"/><stop stop-opacity="1" stop-color="rgb(80.432129%, 63.516235%, 88.796997%)" offset="0.707031"/><stop stop-opacity="1" stop-color="rgb(80.574036%, 63.867188%, 88.774109%)" offset="0.710937"/><stop stop-opacity="1" stop-color="rgb(80.714417%, 64.21814%, 88.751221%)" offset="0.714844"/><stop stop-opacity="1" stop-color="rgb(80.856323%, 64.569092%, 88.728333%)" offset="0.71875"/><stop stop-opacity="1" stop-color="rgb(80.996704%, 64.920044%, 88.705444%)" offset="0.722656"/><stop stop-opacity="1" stop-color="rgb(81.138611%, 65.270996%, 88.684082%)" offset="0.726562"/><stop stop-opacity="1" stop-color="rgb(81.278992%, 65.621948%, 88.661194%)" offset="0.730469"/><stop stop-opacity="1" stop-color="rgb(81.420898%, 65.9729%, 88.638306%)" offset="0.734375"/><stop stop-opacity="1" stop-color="rgb(81.561279%, 66.323853%, 88.615417%)" offset="0.738281"/><stop stop-opacity="1" stop-color="rgb(81.703186%, 66.676331%, 88.592529%)" offset="0.742187"/><stop stop-opacity="1" stop-color="rgb(81.843567%, 67.027283%, 88.569641%)" offset="0.746094"/><stop stop-opacity="1" stop-color="rgb(81.985474%, 67.378235%, 88.546753%)" offset="0.75"/><stop stop-opacity="1" stop-color="rgb(82.125854%, 67.729187%, 88.523865%)" offset="0.753906"/><stop stop-opacity="1" stop-color="rgb(82.267761%, 68.080139%, 88.502502%)" offset="0.757812"/><stop stop-opacity="1" stop-color="rgb(82.408142%, 68.431091%, 88.479614%)" offset="0.761719"/><stop stop-opacity="1" stop-color="rgb(82.550049%, 68.782043%, 88.456726%)" offset="0.765625"/><stop stop-opacity="1" stop-color="rgb(82.69043%, 69.132996%, 88.433838%)" offset="0.769531"/><stop stop-opacity="1" stop-color="rgb(82.832336%, 69.483948%, 88.41095%)" offset="0.773438"/><stop stop-opacity="1" stop-color="rgb(82.972717%, 69.8349%, 88.388062%)" offset="0.777344"/><stop stop-opacity="1" stop-color="rgb(83.114624%, 70.185852%, 88.366699%)" offset="0.78125"/><stop stop-opacity="1" stop-color="rgb(83.255005%, 70.536804%, 88.343811%)" offset="0.785156"/><stop stop-opacity="1" stop-color="rgb(83.396912%, 70.887756%, 88.320923%)" offset="0.789062"/><stop stop-opacity="1" stop-color="rgb(83.537292%, 71.238708%, 88.298035%)" offset="0.792969"/><stop stop-opacity="1" stop-color="rgb(83.679199%, 71.589661%, 88.275146%)" offset="0.796875"/><stop stop-opacity="1" stop-color="rgb(83.81958%, 71.940613%, 88.252258%)" offset="0.800781"/><stop stop-opacity="1" stop-color="rgb(83.961487%, 72.291565%, 88.22937%)" offset="0.804688"/><stop stop-opacity="1" stop-color="rgb(84.101868%, 72.642517%, 88.206482%)" offset="0.808594"/><stop stop-opacity="1" stop-color="rgb(84.243774%, 72.993469%, 88.18512%)" offset="0.8125"/><stop stop-opacity="1" stop-color="rgb(84.384155%, 73.344421%, 88.162231%)" offset="0.816406"/><stop stop-opacity="1" stop-color="rgb(84.526062%, 73.695374%, 88.139343%)" offset="0.820312"/><stop stop-opacity="1" stop-color="rgb(84.666443%, 74.046326%, 88.116455%)" offset="0.824219"/><stop stop-opacity="1" stop-color="rgb(84.806824%, 74.397278%, 88.093567%)" offset="0.828125"/><stop stop-opacity="1" stop-color="rgb(84.947205%, 74.74823%, 88.070679%)" offset="0.832031"/><stop stop-opacity="1" stop-color="rgb(85.089111%, 75.099182%, 88.049316%)" offset="0.835938"/><stop stop-opacity="1" stop-color="rgb(85.229492%, 75.450134%, 88.026428%)" offset="0.839844"/><stop stop-opacity="1" stop-color="rgb(85.371399%, 75.801086%, 88.00354%)" offset="0.84375"/><stop stop-opacity="1" stop-color="rgb(85.51178%, 76.152039%, 87.980652%)" offset="0.847656"/><stop stop-opacity="1" stop-color="rgb(85.653687%, 76.502991%, 87.957764%)" offset="0.851562"/><stop stop-opacity="1" stop-color="rgb(85.794067%, 76.853943%, 87.934875%)" offset="0.855469"/><stop stop-opacity="1" stop-color="rgb(85.935974%, 77.204895%, 87.911987%)" offset="0.859375"/><stop stop-opacity="1" stop-color="rgb(86.076355%, 77.555847%, 87.889099%)" offset="0.863281"/><stop stop-opacity="1" stop-color="rgb(86.218262%, 77.906799%, 87.867737%)" offset="0.867188"/><stop stop-opacity="1" stop-color="rgb(86.358643%, 78.257751%, 87.844849%)" offset="0.871094"/><stop stop-opacity="1" stop-color="rgb(86.500549%, 78.608704%, 87.82196%)" offset="0.875"/><stop stop-opacity="1" stop-color="rgb(86.64093%, 78.959656%, 87.799072%)" offset="0.878906"/><stop stop-opacity="1" stop-color="rgb(86.782837%, 79.310608%, 87.776184%)" offset="0.882812"/><stop stop-opacity="1" stop-color="rgb(86.923218%, 79.66156%, 87.753296%)" offset="0.886719"/><stop stop-opacity="1" stop-color="rgb(87.065125%, 80.012512%, 87.731934%)" offset="0.890625"/><stop stop-opacity="1" stop-color="rgb(87.205505%, 80.363464%, 87.709045%)" offset="0.894531"/><stop stop-opacity="1" stop-color="rgb(87.347412%, 80.714417%, 87.686157%)" offset="0.898438"/><stop stop-opacity="1" stop-color="rgb(87.487793%, 81.065369%, 87.663269%)" offset="0.902344"/><stop stop-opacity="1" stop-color="rgb(87.6297%, 81.416321%, 87.640381%)" offset="0.90625"/><stop stop-opacity="1" stop-color="rgb(87.770081%, 81.767273%, 87.617493%)" offset="0.910156"/><stop stop-opacity="1" stop-color="rgb(87.911987%, 82.118225%, 87.594604%)" offset="0.914062"/><stop stop-opacity="1" stop-color="rgb(88.052368%, 82.469177%, 87.571716%)" offset="0.917969"/><stop stop-opacity="1" stop-color="rgb(88.194275%, 82.820129%, 87.550354%)" offset="0.921875"/><stop stop-opacity="1" stop-color="rgb(88.334656%, 83.171082%, 87.527466%)" offset="0.925781"/><stop stop-opacity="1" stop-color="rgb(88.476562%, 83.522034%, 87.504578%)" offset="0.929688"/><stop stop-opacity="1" stop-color="rgb(88.616943%, 83.872986%, 87.481689%)" offset="0.933594"/><stop stop-opacity="1" stop-color="rgb(88.75885%, 84.223938%, 87.458801%)" offset="0.9375"/><stop stop-opacity="1" stop-color="rgb(88.899231%, 84.57489%, 87.435913%)" offset="0.941406"/><stop stop-opacity="1" stop-color="rgb(89.041138%, 84.927368%, 87.414551%)" offset="0.945312"/><stop stop-opacity="1" stop-color="rgb(89.181519%, 85.27832%, 87.391663%)" offset="0.949219"/><stop stop-opacity="1" stop-color="rgb(89.321899%, 85.629272%, 87.368774%)" offset="0.953125"/><stop stop-opacity="1" stop-color="rgb(89.46228%, 85.980225%, 87.345886%)" offset="0.957031"/><stop stop-opacity="1" stop-color="rgb(89.604187%, 86.331177%, 87.322998%)" offset="0.960938"/><stop stop-opacity="1" stop-color="rgb(89.744568%, 86.682129%, 87.30011%)" offset="0.964844"/><stop stop-opacity="1" stop-color="rgb(89.886475%, 87.033081%, 87.277222%)" offset="0.96875"/><stop stop-opacity="1" stop-color="rgb(90.026855%, 87.384033%, 87.254333%)" offset="0.972656"/><stop stop-opacity="1" stop-color="rgb(90.168762%, 87.734985%, 87.232971%)" offset="0.976562"/><stop stop-opacity="1" stop-color="rgb(90.309143%, 88.085938%, 87.210083%)" offset="0.980469"/><stop stop-opacity="1" stop-color="rgb(90.45105%, 88.43689%, 87.187195%)" offset="0.984375"/><stop stop-opacity="1" stop-color="rgb(90.591431%, 88.787842%, 87.164307%)" offset="0.988281"/><stop stop-opacity="1" stop-color="rgb(90.733337%, 89.138794%, 87.141418%)" offset="0.992188"/><stop stop-opacity="1" stop-color="rgb(90.866089%, 89.468384%, 87.120056%)" offset="0.996094"/><stop stop-opacity="1" stop-color="rgb(90.99884%, 89.7995%, 87.098694%)" offset="1"/></linearGradient><clipPath id="id11"><path d="M 52 24 L 64 24 L 64 58 L 52 58 Z M 52 24 " clip-rule="nonzero"/></clipPath><clipPath id="id12"><path d="M 55.082031 59.289062 L 37.992188 42.199219 L 55.433594 24.761719 L 72.523438 41.851562 Z M 55.082031 59.289062 " clip-rule="nonzero"/></clipPath><clipPath id="id13"><path d="M 55.082031 59.289062 L 37.992188 42.199219 L 55.433594 24.761719 L 72.523438 41.851562 Z M 55.082031 59.289062 " clip-rule="nonzero"/></clipPath><clipPath id="id14"><path d="M 52.917969 50.5625 L 52.917969 51.050781 C 53.199219 51.050781 53.476562 51.023438 53.75 50.96875 C 54.023438 50.914062 54.292969 50.832031 54.550781 50.726562 C 54.808594 50.621094 55.054688 50.488281 55.289062 50.332031 C 55.519531 50.175781 55.734375 50 55.933594 49.804688 C 56.132812 49.605469 56.308594 49.390625 56.464844 49.15625 C 56.621094 48.925781 56.75 48.679688 56.859375 48.417969 C 56.964844 48.160156 57.046875 47.894531 57.101562 47.617188 C 57.15625 47.34375 57.183594 47.066406 57.183594 46.785156 L 57.144531 26.476562 L 56.660156 25.988281 L 56.695312 46.785156 C 56.695312 47.285156 56.601562 47.769531 56.410156 48.234375 C 56.21875 48.695312 55.945312 49.105469 55.589844 49.457031 C 55.234375 49.8125 54.828125 50.085938 54.363281 50.277344 C 53.902344 50.46875 53.417969 50.566406 52.917969 50.5625 Z M 55.476562 46.785156 C 55.476562 47.125 55.414062 47.453125 55.28125 47.765625 C 55.152344 48.082031 54.96875 48.359375 54.726562 48.597656 C 54.484375 48.839844 54.207031 49.023438 53.894531 49.15625 C 53.582031 49.285156 53.253906 49.347656 52.914062 49.347656 L 52.914062 49.835938 C 53.316406 49.835938 53.707031 49.757812 54.082031 49.605469 C 54.453125 49.449219 54.785156 49.230469 55.070312 48.941406 C 55.355469 48.65625 55.578125 48.328125 55.730469 47.953125 C 55.886719 47.578125 55.964844 47.191406 55.964844 46.785156 L 55.925781 25.253906 L 55.441406 24.769531 Z M 56.453125 50.320312 C 55.984375 50.792969 55.445312 51.152344 54.832031 51.40625 C 54.21875 51.660156 53.582031 51.785156 52.917969 51.78125 L 52.917969 52.265625 C 53.28125 52.269531 53.636719 52.234375 53.988281 52.164062 C 54.34375 52.09375 54.6875 51.988281 55.019531 51.851562 C 55.351562 51.714844 55.667969 51.546875 55.96875 51.347656 C 56.265625 51.148438 56.542969 50.921875 56.796875 50.664062 C 57.050781 50.410156 57.277344 50.132812 57.480469 49.835938 C 57.679688 49.535156 57.847656 49.21875 57.984375 48.886719 C 58.121094 48.554688 58.226562 48.210938 58.296875 47.859375 C 58.363281 47.503906 58.398438 47.148438 58.398438 46.789062 L 58.363281 27.695312 L 57.878906 27.207031 L 57.914062 46.785156 C 57.914062 47.449219 57.789062 48.089844 57.539062 48.703125 C 57.285156 49.316406 56.921875 49.855469 56.453125 50.320312 Z M 59.902344 53.769531 C 58.980469 54.695312 57.914062 55.410156 56.703125 55.910156 C 55.496094 56.40625 54.234375 56.652344 52.925781 56.648438 L 52.925781 57.132812 C 53.605469 57.136719 54.28125 57.070312 54.945312 56.9375 C 55.613281 56.808594 56.261719 56.613281 56.890625 56.351562 C 57.515625 56.09375 58.113281 55.777344 58.675781 55.398438 C 59.242188 55.023438 59.765625 54.59375 60.246094 54.113281 C 60.726562 53.632812 61.152344 53.109375 61.53125 52.546875 C 61.90625 51.980469 62.226562 51.386719 62.484375 50.757812 C 62.742188 50.128906 62.9375 49.484375 63.070312 48.816406 C 63.199219 48.148438 63.265625 47.476562 63.265625 46.796875 L 63.238281 32.570312 L 62.753906 32.082031 L 62.777344 46.796875 C 62.785156 48.105469 62.539062 49.363281 62.039062 50.574219 C 61.539062 51.78125 60.828125 52.847656 59.902344 53.769531 Z M 59.035156 52.90625 C 58.230469 53.71875 57.296875 54.34375 56.238281 54.78125 C 55.175781 55.21875 54.074219 55.4375 52.925781 55.433594 L 52.925781 55.917969 C 53.527344 55.921875 54.121094 55.863281 54.710938 55.746094 C 55.296875 55.628906 55.867188 55.457031 56.421875 55.230469 C 56.976562 55 57.503906 54.71875 58 54.386719 C 58.5 54.054688 58.960938 53.675781 59.386719 53.253906 C 59.808594 52.828125 60.1875 52.367188 60.519531 51.871094 C 60.851562 51.371094 61.132812 50.847656 61.359375 50.292969 C 61.589844 49.738281 61.761719 49.167969 61.878906 48.578125 C 61.992188 47.988281 62.050781 47.394531 62.050781 46.796875 L 62.023438 31.351562 L 61.535156 30.863281 L 61.5625 46.796875 C 61.570312 47.941406 61.351562 49.046875 60.914062 50.105469 C 60.476562 51.167969 59.851562 52.101562 59.039062 52.90625 Z M 58.171875 52.042969 C 57.480469 52.742188 56.675781 53.277344 55.765625 53.652344 C 54.851562 54.027344 53.902344 54.214844 52.917969 54.207031 L 52.921875 54.699219 C 53.441406 54.703125 53.957031 54.652344 54.46875 54.550781 C 54.976562 54.449219 55.472656 54.300781 55.953125 54.101562 C 56.433594 53.90625 56.890625 53.660156 57.320312 53.371094 C 57.753906 53.085938 58.152344 52.757812 58.519531 52.390625 C 58.886719 52.023438 59.214844 51.621094 59.503906 51.191406 C 59.792969 50.757812 60.035156 50.304688 60.234375 49.824219 C 60.433594 49.34375 60.582031 48.847656 60.683594 48.335938 C 60.78125 47.828125 60.832031 47.3125 60.832031 46.792969 L 60.804688 30.132812 L 60.316406 29.644531 L 60.34375 46.792969 C 60.351562 47.78125 60.164062 48.726562 59.789062 49.640625 C 59.410156 50.550781 58.875 51.351562 58.175781 52.046875 Z M 52.921875 52.996094 L 52.921875 53.484375 C 53.359375 53.484375 53.796875 53.441406 54.226562 53.355469 C 54.660156 53.269531 55.078125 53.144531 55.484375 52.976562 C 55.890625 52.808594 56.277344 52.601562 56.640625 52.359375 C 57.007812 52.113281 57.34375 51.835938 57.65625 51.527344 C 57.964844 51.214844 58.242188 50.878906 58.488281 50.511719 C 58.730469 50.148438 58.9375 49.761719 59.105469 49.355469 C 59.273438 48.949219 59.398438 48.53125 59.484375 48.097656 C 59.570312 47.667969 59.613281 47.230469 59.613281 46.792969 L 59.582031 28.917969 L 59.09375 28.429688 L 59.128906 46.789062 C 59.128906 47.199219 59.089844 47.601562 59.011719 48 C 58.933594 48.402344 58.8125 48.789062 58.660156 49.167969 C 58.503906 49.542969 58.3125 49.902344 58.085938 50.242188 C 57.859375 50.582031 57.601562 50.894531 57.3125 51.183594 C 57.027344 51.472656 56.710938 51.726562 56.371094 51.953125 C 56.035156 52.179688 55.675781 52.371094 55.300781 52.527344 C 54.921875 52.683594 54.535156 52.800781 54.132812 52.878906 C 53.734375 52.957031 53.328125 53 52.921875 52.996094 Z M 52.921875 52.996094 " clip-rule="nonzero"/></clipPath><linearGradient x1="-50.382932" gradientTransform="matrix(-0.0454465, -0.0454465, 0.0452883, -0.0452883, 55.075772, 59.282493)" y1="-13.409356" x2="370.394401" gradientUnits="userSpaceOnUse" y2="498.676408" id="id15"><stop stop-opacity="1" stop-color="rgb(0%, 18.798828%, 100%)" offset="0"/><stop stop-opacity="1" stop-color="rgb(0%, 18.798828%, 100%)" offset="0.25"/><stop stop-opacity="1" stop-color="rgb(0%, 18.798828%, 100%)" offset="0.3125"/><stop stop-opacity="1" stop-color="rgb(0%, 18.798828%, 100%)" offset="0.320312"/><stop stop-opacity="1" stop-color="rgb(0%, 19.126892%, 100%)" offset="0.324219"/><stop stop-opacity="1" stop-color="rgb(0%, 19.454956%, 100%)" offset="0.328125"/><stop stop-opacity="1" stop-color="rgb(0%, 20.005798%, 100%)" offset="0.332031"/><stop stop-opacity="1" stop-color="rgb(0%, 20.558167%, 100%)" offset="0.335938"/><stop stop-opacity="1" stop-color="rgb(0%, 21.109009%, 100%)" offset="0.339844"/><stop stop-opacity="1" stop-color="rgb(0%, 21.659851%, 100%)" offset="0.34375"/><stop stop-opacity="1" stop-color="rgb(0%, 22.210693%, 100%)" offset="0.347656"/><stop stop-opacity="1" stop-color="rgb(0%, 22.763062%, 100%)" offset="0.351562"/><stop stop-opacity="1" stop-color="rgb(0%, 23.313904%, 100%)" offset="0.355469"/><stop stop-opacity="1" stop-color="rgb(0%, 23.864746%, 100%)" offset="0.359375"/><stop stop-opacity="1" stop-color="rgb(0%, 24.415588%, 100%)" offset="0.363281"/><stop stop-opacity="1" stop-color="rgb(0%, 24.967957%, 100%)" offset="0.367188"/><stop stop-opacity="1" stop-color="rgb(0%, 25.518799%, 100%)" offset="0.371094"/><stop stop-opacity="1" stop-color="rgb(0%, 26.071167%, 100%)" offset="0.375"/><stop stop-opacity="1" stop-color="rgb(0%, 26.622009%, 100%)" offset="0.378906"/><stop stop-opacity="1" stop-color="rgb(0%, 27.172852%, 100%)" offset="0.382812"/><stop stop-opacity="1" stop-color="rgb(0%, 27.723694%, 100%)" offset="0.386719"/><stop stop-opacity="1" stop-color="rgb(0%, 28.276062%, 100%)" offset="0.390625"/><stop stop-opacity="1" stop-color="rgb(0%, 28.826904%, 100%)" offset="0.394531"/><stop stop-opacity="1" stop-color="rgb(0%, 29.379272%, 100%)" offset="0.398438"/><stop stop-opacity="1" stop-color="rgb(0%, 29.930115%, 100%)" offset="0.402344"/><stop stop-opacity="1" stop-color="rgb(0%, 30.480957%, 100%)" offset="0.40625"/><stop stop-opacity="1" stop-color="rgb(0%, 31.031799%, 100%)" offset="0.410156"/><stop stop-opacity="1" stop-color="rgb(0%, 31.584167%, 100%)" offset="0.414062"/><stop stop-opacity="1" stop-color="rgb(0%, 32.13501%, 100%)" offset="0.417969"/><stop stop-opacity="1" stop-color="rgb(0%, 32.685852%, 100%)" offset="0.421875"/><stop stop-opacity="1" stop-color="rgb(0%, 33.236694%, 100%)" offset="0.425781"/><stop stop-opacity="1" stop-color="rgb(0%, 33.789062%, 100%)" offset="0.429687"/><stop stop-opacity="1" stop-color="rgb(0%, 34.339905%, 100%)" offset="0.433594"/><stop stop-opacity="1" stop-color="rgb(0%, 34.892273%, 100%)" offset="0.4375"/><stop stop-opacity="1" stop-color="rgb(0%, 35.443115%, 100%)" offset="0.441406"/><stop stop-opacity="1" stop-color="rgb(0%, 35.993958%, 100%)" offset="0.445312"/><stop stop-opacity="1" stop-color="rgb(0%, 36.5448%, 100%)" offset="0.449219"/><stop stop-opacity="1" stop-color="rgb(0%, 37.097168%, 100%)" offset="0.453125"/><stop stop-opacity="1" stop-color="rgb(0%, 37.64801%, 100%)" offset="0.457031"/><stop stop-opacity="1" stop-color="rgb(0%, 38.200378%, 100%)" offset="0.460937"/><stop stop-opacity="1" stop-color="rgb(0%, 38.751221%, 100%)" offset="0.464844"/><stop stop-opacity="1" stop-color="rgb(0%, 39.302063%, 100%)" offset="0.46875"/><stop stop-opacity="1" stop-color="rgb(0%, 39.852905%, 100%)" offset="0.472656"/><stop stop-opacity="1" stop-color="rgb(0%, 40.405273%, 100%)" offset="0.476562"/><stop stop-opacity="1" stop-color="rgb(0%, 40.956116%, 100%)" offset="0.480469"/><stop stop-opacity="1" stop-color="rgb(0%, 41.506958%, 100%)" offset="0.484375"/><stop stop-opacity="1" stop-color="rgb(0%, 42.0578%, 100%)" offset="0.488281"/><stop stop-opacity="1" stop-color="rgb(0%, 42.610168%, 100%)" offset="0.492188"/><stop stop-opacity="1" stop-color="rgb(0%, 43.161011%, 100%)" offset="0.496094"/><stop stop-opacity="1" stop-color="rgb(0%, 43.713379%, 100%)" offset="0.5"/><stop stop-opacity="1" stop-color="rgb(0%, 44.264221%, 100%)" offset="0.503906"/><stop stop-opacity="1" stop-color="rgb(0%, 44.815063%, 100%)" offset="0.507812"/><stop stop-opacity="1" stop-color="rgb(0%, 45.365906%, 100%)" offset="0.511719"/><stop stop-opacity="1" stop-color="rgb(0%, 45.918274%, 100%)" offset="0.515625"/><stop stop-opacity="1" stop-color="rgb(0%, 46.469116%, 100%)" offset="0.519531"/><stop stop-opacity="1" stop-color="rgb(0%, 47.021484%, 100%)" offset="0.523438"/><stop stop-opacity="1" stop-color="rgb(0%, 47.572327%, 100%)" offset="0.527344"/><stop stop-opacity="1" stop-color="rgb(0%, 48.123169%, 100%)" offset="0.53125"/><stop stop-opacity="1" stop-color="rgb(0%, 48.674011%, 100%)" offset="0.535156"/><stop stop-opacity="1" stop-color="rgb(0%, 49.226379%, 100%)" offset="0.539062"/><stop stop-opacity="1" stop-color="rgb(0%, 49.777222%, 100%)" offset="0.542969"/><stop stop-opacity="1" stop-color="rgb(0%, 50.328064%, 100%)" offset="0.546875"/><stop stop-opacity="1" stop-color="rgb(0%, 50.878906%, 100%)" offset="0.550781"/><stop stop-opacity="1" stop-color="rgb(0%, 51.431274%, 100%)" offset="0.554688"/><stop stop-opacity="1" stop-color="rgb(0%, 51.982117%, 100%)" offset="0.558594"/><stop stop-opacity="1" stop-color="rgb(0%, 52.534485%, 100%)" offset="0.5625"/><stop stop-opacity="1" stop-color="rgb(0%, 53.085327%, 100%)" offset="0.566406"/><stop stop-opacity="1" stop-color="rgb(0%, 53.636169%, 100%)" offset="0.570312"/><stop stop-opacity="1" stop-color="rgb(0%, 54.187012%, 100%)" offset="0.574219"/><stop stop-opacity="1" stop-color="rgb(0%, 54.73938%, 100%)" offset="0.578125"/><stop stop-opacity="1" stop-color="rgb(0%, 55.290222%, 100%)" offset="0.582031"/><stop stop-opacity="1" stop-color="rgb(0%, 55.84259%, 100%)" offset="0.585938"/><stop stop-opacity="1" stop-color="rgb(0%, 56.393433%, 100%)" offset="0.589844"/><stop stop-opacity="1" stop-color="rgb(0%, 56.944275%, 100%)" offset="0.59375"/><stop stop-opacity="1" stop-color="rgb(0%, 57.495117%, 100%)" offset="0.597656"/><stop stop-opacity="1" stop-color="rgb(0%, 58.047485%, 100%)" offset="0.601562"/><stop stop-opacity="1" stop-color="rgb(0%, 58.598328%, 100%)" offset="0.605469"/><stop stop-opacity="1" stop-color="rgb(0%, 59.14917%, 100%)" offset="0.609375"/><stop stop-opacity="1" stop-color="rgb(0%, 59.700012%, 100%)" offset="0.613281"/><stop stop-opacity="1" stop-color="rgb(0%, 60.25238%, 100%)" offset="0.617188"/><stop stop-opacity="1" stop-color="rgb(0%, 60.803223%, 100%)" offset="0.621094"/><stop stop-opacity="1" stop-color="rgb(0%, 61.355591%, 100%)" offset="0.625"/><stop stop-opacity="1" stop-color="rgb(0%, 61.906433%, 100%)" offset="0.628906"/><stop stop-opacity="1" stop-color="rgb(0%, 62.457275%, 100%)" offset="0.632812"/><stop stop-opacity="1" stop-color="rgb(0%, 63.008118%, 100%)" offset="0.636719"/><stop stop-opacity="1" stop-color="rgb(0%, 63.560486%, 100%)" offset="0.640625"/><stop stop-opacity="1" stop-color="rgb(0%, 64.111328%, 100%)" offset="0.644531"/><stop stop-opacity="1" stop-color="rgb(0%, 64.663696%, 100%)" offset="0.648437"/><stop stop-opacity="1" stop-color="rgb(0%, 65.214539%, 100%)" offset="0.652344"/><stop stop-opacity="1" stop-color="rgb(0%, 65.765381%, 100%)" offset="0.65625"/><stop stop-opacity="1" stop-color="rgb(0%, 66.316223%, 100%)" offset="0.660156"/><stop stop-opacity="1" stop-color="rgb(0%, 66.868591%, 100%)" offset="0.664062"/><stop stop-opacity="1" stop-color="rgb(0%, 67.419434%, 100%)" offset="0.667969"/><stop stop-opacity="1" stop-color="rgb(0%, 67.970276%, 100%)" offset="0.671875"/><stop stop-opacity="1" stop-color="rgb(0%, 68.521118%, 100%)" offset="0.675781"/><stop stop-opacity="1" stop-color="rgb(0%, 69.073486%, 100%)" offset="0.679688"/><stop stop-opacity="1" stop-color="rgb(0%, 69.624329%, 100%)" offset="0.683594"/><stop stop-opacity="1" stop-color="rgb(0%, 70.176697%, 100%)" offset="0.6875"/><stop stop-opacity="1" stop-color="rgb(0%, 70.727539%, 100%)" offset="0.691406"/><stop stop-opacity="1" stop-color="rgb(0%, 71.278381%, 100%)" offset="0.695312"/><stop stop-opacity="1" stop-color="rgb(0%, 71.829224%, 100%)" offset="0.699219"/><stop stop-opacity="1" stop-color="rgb(0%, 72.381592%, 100%)" offset="0.703125"/><stop stop-opacity="1" stop-color="rgb(0%, 72.932434%, 100%)" offset="0.707031"/><stop stop-opacity="1" stop-color="rgb(0%, 73.484802%, 100%)" offset="0.710938"/><stop stop-opacity="1" stop-color="rgb(0%, 74.035645%, 100%)" offset="0.714844"/><stop stop-opacity="1" stop-color="rgb(0%, 74.586487%, 100%)" offset="0.71875"/><stop stop-opacity="1" stop-color="rgb(0%, 75.137329%, 100%)" offset="0.722656"/><stop stop-opacity="1" stop-color="rgb(0%, 75.689697%, 100%)" offset="0.726562"/><stop stop-opacity="1" stop-color="rgb(0%, 75.894165%, 100%)" offset="0.730469"/><stop stop-opacity="1" stop-color="rgb(0%, 76.098633%, 100%)" offset="0.734375"/><stop stop-opacity="1" stop-color="rgb(0%, 76.098633%, 100%)" offset="0.75"/><stop stop-opacity="1" stop-color="rgb(0%, 76.098633%, 100%)" offset="1"/></linearGradient></defs><g clip-path="url(#id1)"><g clip-path="url(#id2)"><g clip-path="url(#id3)"><g clip-path="url(#id4)"><path fill="url(#id5)" d="M 42.546875 36.367188 L 42.589844 57.140625 L 55.757812 57.167969 L 55.714844 36.394531 Z M 42.546875 36.367188 " fill-rule="nonzero"/></g></g></g></g><g clip-path="url(#id6)"><g clip-path="url(#id7)"><g clip-path="url(#id8)"><g clip-path="url(#id9)"><path fill="url(#id10)" d="M 62.769531 36.390625 L 62.761719 44.21875 L 73.785156 44.207031 L 73.792969 36.378906 Z M 62.769531 36.390625 " fill-rule="nonzero"/></g></g></g></g><g clip-path="url(#id11)"><g clip-path="url(#id12)"><g clip-path="url(#id13)"><g clip-path="url(#id14)"><path fill="url(#id15)" d="M 58.089844 62.3125 L 79.449219 40.953125 L 58.089844 19.59375 L 36.730469 40.953125 Z M 58.089844 62.3125 " fill-rule="nonzero"/></g></g></g></g><g fill="#ffffff" fill-opacity="1"><g transform="translate(4.346085, 71.787986)"><g><path d="M 0.976562 0 L 2.660156 0 L 2.660156 -7.402344 L 2.785156 -7.402344 L 5.84375 0 L 7.261719 0 L 10.335938 -7.414062 L 10.445312 -7.414062 L 10.445312 0 L 12.128906 0 L 12.128906 -9.757812 L 9.742188 -9.757812 L 6.613281 -2.082031 L 6.503906 -2.082031 L 3.335938 -9.757812 L 0.976562 -9.757812 Z M 0.976562 0 "/></g></g></g><g fill="#ffffff" fill-opacity="1"><g transform="translate(17.465784, 71.787986)"><g><path d="M 2.757812 0.21875 C 3.84375 0.21875 4.824219 -0.21875 5.277344 -1.089844 L 5.375 -1.089844 L 5.375 0 L 6.945312 0 L 6.945312 -4.574219 C 6.945312 -6.117188 5.691406 -7.167969 3.886719 -7.167969 C 2.039062 -7.167969 0.785156 -6.144531 0.785156 -4.671875 L 2.300781 -4.671875 C 2.300781 -5.527344 2.949219 -6.117188 3.871094 -6.117188 C 4.769531 -6.117188 5.375 -5.5 5.375 -4.628906 L 5.375 -4.257812 L 3.636719 -3.984375 C 1.433594 -3.636719 0.453125 -2.90625 0.453125 -1.652344 C 0.453125 -0.46875 1.378906 0.21875 2.757812 0.21875 Z M 3.308594 -0.800781 C 2.46875 -0.800781 1.972656 -1.171875 1.972656 -1.777344 C 1.972656 -2.425781 2.46875 -2.851562 3.734375 -3.074219 L 5.375 -3.347656 L 5.375 -2.742188 C 5.375 -1.625 4.546875 -0.800781 3.308594 -0.800781 Z M 3.308594 -0.800781 "/></g></g></g><g fill="#ffffff" fill-opacity="1"><g transform="translate(25.210818, 71.787986)"><g><path d="M 0.910156 0 L 2.46875 0 L 2.46875 -3.679688 C 2.46875 -4.949219 3.113281 -5.789062 4.105469 -5.789062 C 4.453125 -5.789062 4.878906 -5.691406 5.265625 -5.5 L 5.265625 -6.945312 C 4.988281 -7.070312 4.65625 -7.140625 4.339844 -7.140625 C 3.5 -7.140625 2.90625 -6.65625 2.578125 -5.855469 L 2.46875 -5.855469 L 2.46875 -7 L 0.910156 -7 Z M 0.910156 0 "/></g></g></g><g fill="#ffffff" fill-opacity="1"><g transform="translate(30.792198, 71.787986)"><g><path d="M 4.273438 0.21875 C 6.078125 0.21875 7.484375 -0.785156 7.757812 -2.34375 L 6.3125 -2.535156 C 6.089844 -1.679688 5.25 -1.0625 4.285156 -1.0625 C 2.992188 -1.0625 2.054688 -2.082031 2.054688 -3.5 C 2.054688 -4.917969 2.992188 -5.941406 4.285156 -5.941406 C 5.238281 -5.941406 6.089844 -5.304688 6.3125 -4.410156 L 7.757812 -4.601562 C 7.496094 -6.203125 6.078125 -7.222656 4.273438 -7.222656 C 2.039062 -7.222656 0.496094 -5.734375 0.496094 -3.5 C 0.480469 -1.296875 2.066406 0.21875 4.273438 0.21875 Z M 4.273438 0.21875 "/></g></g></g><g fill="#ffffff" fill-opacity="1"><g transform="translate(39.047135, 71.787986)"><g><path d="M 4.355469 0.21875 C 6.035156 0.21875 7.496094 -0.6875 7.882812 -2.039062 L 6.503906 -2.261719 C 6.214844 -1.472656 5.375 -0.910156 4.421875 -0.910156 C 3.128906 -0.910156 2.203125 -1.777344 2.09375 -3.074219 L 8.101562 -3.074219 L 8.117188 -3.5 C 8.117188 -5.71875 6.601562 -7.222656 4.367188 -7.222656 C 2.09375 -7.222656 0.496094 -5.734375 0.496094 -3.515625 C 0.496094 -1.28125 2.082031 0.21875 4.355469 0.21875 Z M 2.082031 -3.984375 C 2.203125 -5.238281 3.085938 -6.105469 4.339844 -6.105469 C 5.554688 -6.105469 6.449219 -5.195312 6.53125 -3.984375 Z M 2.082031 -3.984375 "/></g></g></g><g fill="#ffffff" fill-opacity="1"><g transform="translate(47.646597, 71.787986)"><g><path d="M 0.894531 0 L 2.46875 0 L 2.46875 -10.171875 L 0.894531 -10.171875 Z M 0.894531 0 "/></g></g></g><g fill="#ffffff" fill-opacity="1"><g transform="translate(51.009202, 71.787986)"><g><path d="M 4.285156 0.21875 C 6.558594 0.21875 8.101562 -1.253906 8.101562 -3.5 C 8.101562 -5.746094 6.558594 -7.222656 4.285156 -7.222656 C 2.011719 -7.222656 0.480469 -5.761719 0.480469 -3.5 C 0.480469 -1.253906 2.027344 0.21875 4.285156 0.21875 Z M 4.285156 -1.117188 C 2.976562 -1.117188 2.039062 -2.109375 2.039062 -3.5 C 2.039062 -4.890625 2.976562 -5.882812 4.285156 -5.882812 C 5.609375 -5.882812 6.546875 -4.890625 6.546875 -3.5 C 6.546875 -2.109375 5.609375 -1.117188 4.285156 -1.117188 Z M 4.285156 -1.117188 "/></g></g></g><g fill="#ffffff" fill-opacity="1"><g transform="translate(59.581095, 71.787986)"><g/></g></g><g fill="#ffffff" fill-opacity="1"><g transform="translate(62.971269, 71.787986)"><g><path d="M 0.976562 0 L 5.621094 0 C 7.71875 0 9.082031 -1.019531 9.082031 -2.632812 C 9.082031 -3.832031 8.296875 -4.714844 7.195312 -4.976562 L 7.195312 -5.085938 C 8.144531 -5.359375 8.804688 -6.132812 8.804688 -7.195312 C 8.804688 -8.722656 7.539062 -9.757812 5.554688 -9.757812 L 0.976562 -9.757812 Z M 2.714844 -5.59375 L 2.714844 -8.460938 L 5.25 -8.460938 C 6.285156 -8.460938 7.027344 -7.867188 7.027344 -7.027344 C 7.027344 -6.1875 6.285156 -5.59375 5.25 -5.59375 Z M 2.714844 -1.296875 L 2.714844 -4.453125 L 5.292969 -4.453125 C 6.449219 -4.453125 7.304688 -3.804688 7.304688 -2.878906 C 7.304688 -1.957031 6.449219 -1.296875 5.292969 -1.296875 Z M 2.714844 -1.296875 "/></g></g></g><g fill="#ffffff" fill-opacity="1"><g transform="translate(72.68701, 71.787986)"><g><path d="M 2.757812 0.21875 C 3.84375 0.21875 4.824219 -0.21875 5.277344 -1.089844 L 5.375 -1.089844 L 5.375 0 L 6.945312 0 L 6.945312 -4.574219 C 6.945312 -6.117188 5.691406 -7.167969 3.886719 -7.167969 C 2.039062 -7.167969 0.785156 -6.144531 0.785156 -4.671875 L 2.300781 -4.671875 C 2.300781 -5.527344 2.949219 -6.117188 3.871094 -6.117188 C 4.769531 -6.117188 5.375 -5.5 5.375 -4.628906 L 5.375 -4.257812 L 3.636719 -3.984375 C 1.433594 -3.636719 0.453125 -2.90625 0.453125 -1.652344 C 0.453125 -0.46875 1.378906 0.21875 2.757812 0.21875 Z M 3.308594 -0.800781 C 2.46875 -0.800781 1.972656 -1.171875 1.972656 -1.777344 C 1.972656 -2.425781 2.46875 -2.851562 3.734375 -3.074219 L 5.375 -3.347656 L 5.375 -2.742188 C 5.375 -1.625 4.546875 -0.800781 3.308594 -0.800781 Z M 3.308594 -0.800781 "/></g></g></g><g fill="#ffffff" fill-opacity="1"><g transform="translate(80.432044, 71.787986)"><g><path d="M 3.417969 0.152344 C 3.816406 0.152344 4.339844 0.0820312 4.699219 -0.0429688 L 4.699219 -1.183594 C 4.453125 -1.117188 4.121094 -1.074219 3.871094 -1.074219 C 3.292969 -1.074219 2.921875 -1.503906 2.921875 -2.136719 L 2.90625 -5.84375 L 4.601562 -5.84375 L 4.601562 -7 L 2.90625 -7 L 2.921875 -9.152344 L 1.652344 -9.152344 L 1.40625 -7 L 0.277344 -7 L 0.277344 -5.84375 L 1.351562 -5.84375 L 1.351562 -2.082031 C 1.351562 -0.746094 2.164062 0.152344 3.417969 0.152344 Z M 3.417969 0.152344 "/></g></g></g><g fill="#ffffff" fill-opacity="1"><g transform="translate(85.503521, 71.787986)"><g><path d="M 1.738281 -8.132812 C 2.300781 -8.132812 2.714844 -8.515625 2.714844 -9.066406 C 2.714844 -9.621094 2.300781 -10.003906 1.738281 -10.003906 C 1.183594 -10.003906 0.773438 -9.621094 0.773438 -9.066406 C 0.773438 -8.515625 1.183594 -8.132812 1.738281 -8.132812 Z M 0.949219 0 L 2.523438 0 L 2.523438 -7 L 0.949219 -7 Z M 0.949219 0 "/></g></g></g><g fill="#ffffff" fill-opacity="1"><g transform="translate(88.976385, 71.787986)"><g><path d="M 3.707031 0.25 C 5.59375 0.25 6.875 -0.621094 6.875 -2.027344 C 6.875 -3.695312 5.332031 -3.941406 4.023438 -4.121094 C 2.992188 -4.257812 2.039062 -4.355469 2.039062 -5.238281 C 2.039062 -5.828125 2.660156 -6.242188 3.542969 -6.242188 C 4.546875 -6.242188 5.222656 -5.71875 5.222656 -4.917969 L 6.628906 -4.917969 C 6.628906 -6.339844 5.347656 -7.25 3.542969 -7.25 C 1.777344 -7.25 0.59375 -6.394531 0.59375 -5.085938 C 0.59375 -3.335938 2.191406 -3.15625 3.445312 -3.003906 C 4.421875 -2.878906 5.320312 -2.796875 5.320312 -1.847656 C 5.320312 -1.183594 4.644531 -0.757812 3.722656 -0.757812 C 2.605469 -0.757812 1.847656 -1.363281 1.832031 -2.234375 L 0.480469 -2.234375 C 0.480469 -0.746094 1.765625 0.25 3.707031 0.25 Z M 3.707031 0.25 "/></g></g></g><g fill="#ffffff" fill-opacity="1"><g transform="translate(96.349326, 71.787986)"><g><path d="M 3.417969 0.152344 C 3.816406 0.152344 4.339844 0.0820312 4.699219 -0.0429688 L 4.699219 -1.183594 C 4.453125 -1.117188 4.121094 -1.074219 3.871094 -1.074219 C 3.292969 -1.074219 2.921875 -1.503906 2.921875 -2.136719 L 2.90625 -5.84375 L 4.601562 -5.84375 L 4.601562 -7 L 2.90625 -7 L 2.921875 -9.152344 L 1.652344 -9.152344 L 1.40625 -7 L 0.277344 -7 L 0.277344 -5.84375 L 1.351562 -5.84375 L 1.351562 -2.082031 C 1.351562 -0.746094 2.164062 0.152344 3.417969 0.152344 Z M 3.417969 0.152344 "/></g></g></g><g fill="#ffffff" fill-opacity="1"><g transform="translate(101.420803, 71.787986)"><g><path d="M 2.757812 0.21875 C 3.84375 0.21875 4.824219 -0.21875 5.277344 -1.089844 L 5.375 -1.089844 L 5.375 0 L 6.945312 0 L 6.945312 -4.574219 C 6.945312 -6.117188 5.691406 -7.167969 3.886719 -7.167969 C 2.039062 -7.167969 0.785156 -6.144531 0.785156 -4.671875 L 2.300781 -4.671875 C 2.300781 -5.527344 2.949219 -6.117188 3.871094 -6.117188 C 4.769531 -6.117188 5.375 -5.5 5.375 -4.628906 L 5.375 -4.257812 L 3.636719 -3.984375 C 1.433594 -3.636719 0.453125 -2.90625 0.453125 -1.652344 C 0.453125 -0.46875 1.378906 0.21875 2.757812 0.21875 Z M 3.308594 -0.800781 C 2.46875 -0.800781 1.972656 -1.171875 1.972656 -1.777344 C 1.972656 -2.425781 2.46875 -2.851562 3.734375 -3.074219 L 5.375 -3.347656 L 5.375 -2.742188 C 5.375 -1.625 4.546875 -0.800781 3.308594 -0.800781 Z M 3.308594 -0.800781 "/></g></g></g><g fill="#ff66c4" fill-opacity="1"><g transform="translate(5.073868, 83.967916)"><g><path d="M 2.292969 0.125 C 3.484375 0.125 4.265625 -0.429688 4.265625 -1.292969 C 4.265625 -2.332031 3.261719 -2.488281 2.445312 -2.613281 C 1.792969 -2.710938 1.203125 -2.808594 1.203125 -3.355469 C 1.203125 -3.800781 1.597656 -4.121094 2.253906 -4.121094 C 2.9375 -4.121094 3.378906 -3.761719 3.378906 -3.171875 L 4.132812 -3.171875 C 4.128906 -4.109375 3.378906 -4.730469 2.222656 -4.730469 C 1.097656 -4.730469 0.378906 -4.160156 0.378906 -3.300781 C 0.378906 -2.242188 1.410156 -2.113281 2.222656 -1.996094 C 2.859375 -1.898438 3.445312 -1.808594 3.445312 -1.246094 C 3.445312 -0.785156 3.003906 -0.488281 2.328125 -0.488281 C 1.566406 -0.488281 1.097656 -0.871094 1.097656 -1.496094 L 0.324219 -1.488281 C 0.324219 -0.519531 1.105469 0.125 2.292969 0.125 Z M 2.292969 0.125 "/></g></g></g><g fill="#ff66c4" fill-opacity="1"><g transform="translate(11.040896, 83.967916)"><g><path d="M 2.796875 0.125 C 4.277344 0.125 5.308594 -0.851562 5.308594 -2.300781 C 5.308594 -3.75 4.277344 -4.730469 2.796875 -4.730469 C 1.3125 -4.730469 0.28125 -3.75 0.28125 -2.300781 C 0.28125 -0.851562 1.3125 0.125 2.796875 0.125 Z M 2.796875 -0.558594 C 1.808594 -0.558594 1.105469 -1.28125 1.105469 -2.300781 C 1.105469 -3.328125 1.808594 -4.042969 2.796875 -4.042969 C 3.789062 -4.042969 4.492188 -3.328125 4.492188 -2.300781 C 4.492188 -1.273438 3.789062 -0.558594 2.796875 -0.558594 Z M 2.796875 -0.558594 "/></g></g></g><g fill="#ff66c4" fill-opacity="1"><g transform="translate(18.015431, 83.967916)"><g><path d="M 0.46875 0 L 1.285156 0 L 1.285156 -1.957031 L 3.328125 -1.957031 L 3.328125 -2.585938 L 1.285156 -2.585938 L 1.285156 -3.894531 L 3.648438 -3.894531 L 3.648438 -4.601562 L 0.46875 -4.601562 Z M 0.46875 0 "/></g></g></g><g fill="#ff66c4" fill-opacity="1"><g transform="translate(23.241454, 83.967916)"><g><path d="M 1.636719 0 L 2.457031 0 L 2.457031 -3.917969 L 3.996094 -3.917969 L 3.996094 -4.601562 L 0.105469 -4.601562 L 0.105469 -3.917969 L 1.636719 -3.917969 Z M 1.636719 0 "/></g></g></g><g fill="#ff66c4" fill-opacity="1"><g transform="translate(28.71448, 83.967916)"><g><path d="M 1.460938 0 L 2.632812 0 L 3.5625 -3.542969 L 3.621094 -3.542969 L 4.550781 0 L 5.71875 0 L 7.027344 -4.601562 L 6.207031 -4.601562 L 5.128906 -0.753906 L 5.070312 -0.753906 L 4.03125 -4.601562 L 3.152344 -4.601562 L 2.113281 -0.753906 L 2.054688 -0.753906 L 0.976562 -4.601562 L 0.148438 -4.601562 Z M 1.460938 0 "/></g></g></g><g fill="#ff66c4" fill-opacity="1"><g transform="translate(37.268522, 83.967916)"><g><path d="M 0.0976562 0 L 0.941406 0 L 1.285156 -0.957031 L 3.335938 -0.957031 L 3.679688 0 L 4.53125 0 L 2.917969 -4.601562 L 1.710938 -4.601562 Z M 1.460938 -1.566406 L 2.28125 -3.894531 L 2.339844 -3.894531 L 3.160156 -1.566406 Z M 1.460938 -1.566406 "/></g></g></g><g fill="#ff66c4" fill-opacity="1"><g transform="translate(43.26805, 83.967916)"><g><path d="M 0.46875 0 L 1.285156 0 L 1.285156 -1.761719 L 2.039062 -1.761719 L 3.464844 0 L 4.394531 0 L 2.847656 -1.820312 L 2.988281 -1.828125 C 3.796875 -1.890625 4.34375 -2.410156 4.34375 -3.164062 C 4.34375 -4.042969 3.660156 -4.601562 2.601562 -4.601562 L 0.46875 -4.601562 Z M 1.285156 -2.320312 L 1.285156 -3.992188 L 2.46875 -3.992188 C 3.101562 -3.992188 3.515625 -3.683594 3.515625 -3.160156 C 3.515625 -2.644531 3.09375 -2.320312 2.46875 -2.320312 Z M 1.285156 -2.320312 "/></g></g></g><g fill="#ff66c4" fill-opacity="1"><g transform="translate(49.280577, 83.967916)"><g><path d="M 0.46875 0 L 3.875 0 L 3.875 -0.664062 L 1.261719 -0.664062 L 1.261719 -2.078125 L 3.621094 -2.078125 L 3.621094 -2.640625 L 1.261719 -2.640625 L 1.261719 -3.945312 L 3.808594 -3.945312 L 3.808594 -4.601562 L 0.46875 -4.601562 Z M 0.46875 0 "/></g></g></g><g fill="#ff66c4" fill-opacity="1"><g transform="translate(54.786102, 83.967916)"><g/></g></g><g fill="#ff66c4" fill-opacity="1"><g transform="translate(57.763113, 83.967916)"><g><path d="M 0.46875 0 L 2.117188 0 C 3.640625 0 4.652344 -0.878906 4.652344 -2.300781 C 4.652344 -3.722656 3.632812 -4.601562 2.117188 -4.601562 L 0.46875 -4.601562 Z M 1.261719 -0.636719 L 1.261719 -3.972656 L 2.117188 -3.972656 C 3.132812 -3.972656 3.835938 -3.339844 3.835938 -2.300781 C 3.835938 -1.261719 3.144531 -0.636719 2.117188 -0.636719 Z M 1.261719 -0.636719 "/></g></g></g><g fill="#ff66c4" fill-opacity="1"><g transform="translate(64.081146, 83.967916)"><g><path d="M 0.46875 0 L 3.875 0 L 3.875 -0.664062 L 1.261719 -0.664062 L 1.261719 -2.078125 L 3.621094 -2.078125 L 3.621094 -2.640625 L 1.261719 -2.640625 L 1.261719 -3.945312 L 3.808594 -3.945312 L 3.808594 -4.601562 L 0.46875 -4.601562 Z M 0.46875 0 "/></g></g></g><g fill="#ff66c4" fill-opacity="1"><g transform="translate(69.586671, 83.967916)"><g><path d="M 1.664062 0 L 2.9375 0 L 4.503906 -4.601562 L 3.652344 -4.601562 L 2.328125 -0.628906 L 2.273438 -0.628906 L 0.941406 -4.601562 L 0.0976562 -4.601562 Z M 1.664062 0 "/></g></g></g><g fill="#ff66c4" fill-opacity="1"><g transform="translate(75.560199, 83.967916)"><g><path d="M 0.46875 0 L 3.875 0 L 3.875 -0.664062 L 1.261719 -0.664062 L 1.261719 -2.078125 L 3.621094 -2.078125 L 3.621094 -2.640625 L 1.261719 -2.640625 L 1.261719 -3.945312 L 3.808594 -3.945312 L 3.808594 -4.601562 L 0.46875 -4.601562 Z M 0.46875 0 "/></g></g></g><g fill="#ff66c4" fill-opacity="1"><g transform="translate(81.065728, 83.967916)"><g><path d="M 0.46875 0 L 3.574219 0 L 3.574219 -0.707031 L 1.285156 -0.707031 L 1.285156 -4.601562 L 0.46875 -4.601562 Z M 0.46875 0 "/></g></g></g><g fill="#ff66c4" fill-opacity="1"><g transform="translate(86.194249, 83.967916)"><g><path d="M 2.796875 0.125 C 4.277344 0.125 5.308594 -0.851562 5.308594 -2.300781 C 5.308594 -3.75 4.277344 -4.730469 2.796875 -4.730469 C 1.3125 -4.730469 0.28125 -3.75 0.28125 -2.300781 C 0.28125 -0.851562 1.3125 0.125 2.796875 0.125 Z M 2.796875 -0.558594 C 1.808594 -0.558594 1.105469 -1.28125 1.105469 -2.300781 C 1.105469 -3.328125 1.808594 -4.042969 2.796875 -4.042969 C 3.789062 -4.042969 4.492188 -3.328125 4.492188 -2.300781 C 4.492188 -1.273438 3.789062 -0.558594 2.796875 -0.558594 Z M 2.796875 -0.558594 "/></g></g></g><g fill="#ff66c4" fill-opacity="1"><g transform="translate(93.168789, 83.967916)"><g><path d="M 0.46875 0 L 1.285156 0 L 1.285156 -1.566406 L 2.371094 -1.566406 C 3.511719 -1.566406 4.160156 -2.183594 4.160156 -3.085938 C 4.167969 -3.984375 3.515625 -4.601562 2.378906 -4.601562 L 0.46875 -4.601562 Z M 1.285156 -2.175781 L 1.285156 -3.992188 L 2.292969 -3.992188 C 2.976562 -3.992188 3.339844 -3.613281 3.339844 -3.085938 C 3.339844 -2.546875 2.976562 -2.175781 2.292969 -2.175781 Z M 1.285156 -2.175781 "/></g></g></g><g fill="#ff66c4" fill-opacity="1"><g transform="translate(98.934315, 83.967916)"><g><path d="M 0.46875 0 L 3.875 0 L 3.875 -0.664062 L 1.261719 -0.664062 L 1.261719 -2.078125 L 3.621094 -2.078125 L 3.621094 -2.640625 L 1.261719 -2.640625 L 1.261719 -3.945312 L 3.808594 -3.945312 L 3.808594 -4.601562 L 0.46875 -4.601562 Z M 0.46875 0 "/></g></g></g><g fill="#ff66c4" fill-opacity="1"><g transform="translate(104.439844, 83.967916)"><g><path d="M 0.46875 0 L 1.285156 0 L 1.285156 -1.761719 L 2.039062 -1.761719 L 3.464844 0 L 4.394531 0 L 2.847656 -1.820312 L 2.988281 -1.828125 C 3.796875 -1.890625 4.34375 -2.410156 4.34375 -3.164062 C 4.34375 -4.042969 3.660156 -4.601562 2.601562 -4.601562 L 0.46875 -4.601562 Z M 1.285156 -2.320312 L 1.285156 -3.992188 L 2.46875 -3.992188 C 3.101562 -3.992188 3.515625 -3.683594 3.515625 -3.160156 C 3.515625 -2.644531 3.09375 -2.320312 2.46875 -2.320312 Z M 1.285156 -2.320312 "/></g></g></g></svg>